<?xml version="1.0" encoding="utf-8"?><svg height="16" viewBox="0 0 16 16" width="16" xmlns="http://www.w3.org/2000/svg"><path d="M7.5,12.5h-3a2,2,0,0,1-2-2v-1" style="fill:none;stroke:#009bb9;stroke-linecap:round;stroke-linejoin:round"/><path d="M7.5,2.5h3a2,2,0,0,1,2,2v1" style="fill:none;stroke:#009bb9;stroke-linecap:round;stroke-linejoin:round"/><polyline points="9.5 4.5 7.5 2.5 9.5 0.5" style="fill:none;stroke:#009bb9;stroke-linecap:round;stroke-linejoin:round"/><polyline points="5.5 14.5 7.5 12.5 5.5 10.5" style="fill:none;stroke:#009bb9;stroke-linecap:round;stroke-linejoin:round"/><rect height="6" style="fill:#949494" width="1" y="1"/><rect height="7" style="fill:#949494" width="1" x="10" y="8"/><rect height="2" style="fill:#949494" width="1" x="14" y="9"/><rect height="2" style="fill:#949494" width="1" x="14" y="12"/><rect height="1" style="fill:#949494" width="3" x="1" y="4"/><rect height="1" style="fill:#949494" width="3" x="11" y="11"/><rect height="1" style="fill:#949494" width="3" x="11" y="14"/><rect height="1" style="fill:#949494" width="3" x="11" y="8"/><rect height="1" style="fill:#949494" width="3" x="1"/><rect height="6" style="fill:#949494" width="1" x="4" y="1"/></svg>