<?xml version="1.0" encoding="utf-8"?><svg height="16" viewBox="0 0 16 16" width="16" xmlns="http://www.w3.org/2000/svg"><rect height="6" rx="1" style="fill:none;stroke:#009bb9;stroke-linecap:square;stroke-linejoin:round" transform="translate(22 7) rotate(-180)" width="3" x="9.5" y="0.5"/><rect height="1" style="fill:#009bb9" width="1" y="3"/><rect height="1" style="fill:#009bb9" width="1" x="2" y="3"/><rect height="1" style="fill:#009bb9" width="1" x="4" y="3"/><rect height="1" style="fill:#009bb9" width="1" x="6" y="3"/><rect height="1" style="fill:#009bb9" width="1" x="8" y="3"/><rect height="6" rx="1" style="fill:none;stroke:#009bb9;stroke-linecap:square;stroke-linejoin:round" transform="translate(14 23) rotate(-180)" width="3" x="5.5" y="8.5"/><rect height="1" style="fill:#009bb9" width="1" y="11"/><rect height="1" style="fill:#009bb9" width="1" x="2" y="11"/><rect height="1" style="fill:#009bb9" width="1" x="4" y="11"/><rect height="1" style="fill:#949494" width="1" x="10" y="11"/><rect height="1" style="fill:#949494" width="1" x="12" y="11"/><rect height="1" style="fill:#949494" width="1" x="14" y="11"/><rect height="1" style="fill:#949494" width="1" x="14" y="3"/></svg>