<?xml version="1.0" encoding="utf-8"?><svg height="21" viewBox="0 0 21 21" width="21" xmlns="http://www.w3.org/2000/svg"><path d="M3.5,13.5h-1a2,2,0,0,1-2-2v-5a2,2,0,0,1,2-2h16a2,2,0,0,1,2,2v5a2,2,0,0,1-2,2h-1" style="fill:none;stroke:#262e30;stroke-miterlimit:10"/><line style="fill:none;stroke:#262e30;stroke-linecap:square;stroke-linejoin:round" x1="14.5" x2="6.5" y1="16.5" y2="16.5"/><line style="fill:none;stroke:#262e30;stroke-linecap:square;stroke-linejoin:round" x1="14.5" x2="6.5" y1="13.5" y2="13.5"/><path d="M3.5,4.5v-2a2,2,0,0,1,2-2h10a2,2,0,0,1,2,2v2" style="fill:none;stroke:#262e30;stroke-linecap:round;stroke-miterlimit:10"/><path d="M3.5,9.5h14a0,0,0,0,1,0,0v9a2,2,0,0,1-2,2H5.5a2,2,0,0,1-2-2v-9a0,0,0,0,1,0,0Z" style="fill:none;stroke:#262e30;stroke-miterlimit:10"/><rect height="1" style="fill:#262e30" width="1" x="18" y="6"/></svg>