<?xml version="1.0" encoding="utf-8"?><svg height="16" viewBox="0 0 16 16" width="16" xmlns="http://www.w3.org/2000/svg"><rect height="1" style="fill:#009bb9" width="1" x="7" y="4"/><rect height="1" style="fill:#009bb9" width="1" x="7" y="2"/><rect height="1" style="fill:#009bb9" width="1" x="7"/><rect height="1" style="fill:#009bb9" width="1" y="7"/><rect height="1" style="fill:#009bb9" width="1" x="2" y="7"/><rect height="1" style="fill:#009bb9" width="1" x="4" y="7"/><rect height="1" style="fill:#009bb9" width="1" x="6" y="7"/><rect height="1" style="fill:#009bb9" width="1" x="8" y="7"/><rect height="1" style="fill:#009bb9" width="1" x="10" y="7"/><rect height="1" style="fill:#009bb9" width="1" x="12" y="7"/><rect height="1" style="fill:#009bb9" width="1" x="14" y="7"/><rect height="1" style="fill:#009bb9" width="1" x="7" y="14"/><rect height="1" style="fill:#009bb9" width="1" x="7" y="12"/><rect height="1" style="fill:#009bb9" width="1" x="7" y="10"/><rect height="3" style="fill:#009bb9" width="1" x="7" y="6"/><circle cx="3" cy="3" r="2.5" style="fill:none;stroke:#949494;stroke-linecap:round;stroke-linejoin:round"/><circle cx="12" cy="3" r="2.5" style="fill:none;stroke:#949494;stroke-linecap:round;stroke-linejoin:round"/><circle cx="3" cy="12" r="2.5" style="fill:none;stroke:#949494;stroke-linecap:round;stroke-linejoin:round"/><circle cx="12" cy="12" r="2.5" style="fill:none;stroke:#949494;stroke-linecap:round;stroke-linejoin:round"/></svg>