<?xml version="1.0" encoding="utf-8"?><svg height="16" viewBox="0 0 16 16" width="16" xmlns="http://www.w3.org/2000/svg"><rect height="3" style="fill:#009bb9" transform="translate(21 -6) rotate(90)" width="1" x="13" y="6"/><rect height="3" style="fill:#009bb9" transform="translate(9 6) rotate(90)" width="1" x="1" y="6"/><rect height="1" style="fill:#009bb9" transform="translate(12 3) rotate(90)" width="1" x="4" y="7"/><rect height="1" style="fill:#009bb9" transform="translate(18 -3) rotate(90)" width="1" x="10" y="7"/><rect height="3" style="fill:#009bb9" transform="translate(15 0) rotate(90)" width="1" x="7" y="6"/><polygon points="0.5 0.5 0.5 1.5 7.5 5.5 14.5 1.5 14.5 0.5 0.5 0.5" style="fill:none;stroke:#949494;stroke-linecap:round;stroke-linejoin:round"/><polygon points="7.5 9.5 0.5 13.5 0.5 14.5 14.5 14.5 14.5 13.5 7.5 9.5" style="fill:none;stroke:#009bb9;stroke-linecap:round;stroke-linejoin:round"/></svg>