<?xml version="1.0" encoding="utf-8"?><svg height="16" viewBox="0 0 16 16" width="16" xmlns="http://www.w3.org/2000/svg"><rect height="1" style="fill:#009bb9" width="1" x="7" y="4"/><rect height="1" style="fill:#009bb9" width="1" x="7" y="2"/><rect height="1" style="fill:#009bb9" width="1" x="7"/><rect height="1" style="fill:#009bb9" width="1" y="7"/><rect height="1" style="fill:#009bb9" width="1" x="2" y="7"/><rect height="1" style="fill:#009bb9" width="1" x="4" y="7"/><rect height="1" style="fill:#009bb9" width="1" x="6" y="7"/><rect height="1" style="fill:#009bb9" width="1" x="8" y="7"/><rect height="1" style="fill:#009bb9" width="1" x="10" y="7"/><rect height="1" style="fill:#009bb9" width="1" x="12" y="7"/><rect height="1" style="fill:#009bb9" width="1" x="14" y="7"/><rect height="1" style="fill:#009bb9" width="1" x="7" y="14"/><rect height="1" style="fill:#009bb9" width="1" x="7" y="12"/><rect height="1" style="fill:#009bb9" width="1" x="7" y="10"/><rect height="3" style="fill:#009bb9" width="1" x="7" y="6"/><path d="M3.5.5h2a0,0,0,0,1,0,0v5a0,0,0,0,1,0,0H.5a0,0,0,0,1,0,0v-2A3,3,0,0,1,3.5.5Z" style="fill:none;stroke:#949494;stroke-linecap:round;stroke-linejoin:round"/><path d="M9.5.5h2a3,3,0,0,1,3,3v2a0,0,0,0,1,0,0h-5a0,0,0,0,1,0,0V.5A0,0,0,0,1,9.5.5Z" style="fill:none;stroke:#949494;stroke-linecap:round;stroke-linejoin:round"/><path d="M.5,9.5h5a0,0,0,0,1,0,0v5a0,0,0,0,1,0,0h-2a3,3,0,0,1-3-3v-2A0,0,0,0,1,.5,9.5Z" style="fill:none;stroke:#949494;stroke-linecap:round;stroke-linejoin:round"/><path d="M9.5,9.5h5a0,0,0,0,1,0,0v2a3,3,0,0,1-3,3h-2a0,0,0,0,1,0,0v-5A0,0,0,0,1,9.5,9.5Z" style="fill:none;stroke:#949494;stroke-linecap:round;stroke-linejoin:round"/></svg>