<?xml version="1.0" encoding="utf-8"?><svg height="12" viewBox="0 0 12 12" width="12" xmlns="http://www.w3.org/2000/svg"><path d="M2.5,7.5h-1a1,1,0,0,1-1-1v-3a1,1,0,0,1,1-1h9a1,1,0,0,1,1,1v3a1,1,0,0,1-1,1h-1" style="fill:none;stroke:#009bb9;stroke-miterlimit:10"/><line style="fill:none;stroke:#009bb9;stroke-linecap:square;stroke-linejoin:round" x1="7.5" x2="4.5" y1="9.5" y2="9.5"/><line style="fill:none;stroke:#009bb9;stroke-linecap:square;stroke-linejoin:round" x1="7.5" x2="4.5" y1="7.5" y2="7.5"/><path d="M2.5,2.5v-1a1,1,0,0,1,1-1h5a1,1,0,0,1,1,1v1" style="fill:none;stroke:#009bb9;stroke-linecap:round;stroke-miterlimit:10"/><rect height="6" rx="1" style="fill:none;stroke:#009bb9;stroke-miterlimit:10" width="7" x="2.5" y="5.5"/></svg>