<?xml version="1.0" encoding="utf-8"?><svg enable-background="new 0 0 100 100" id="close_window" version="1.0" viewBox="0 0 100 100" x="0px" xml:space="preserve" xmlns="http://www.w3.org/2000/svg" xmlns:cc="http://creativecommons.org/ns#" xmlns:dc="http://purl.org/dc/elements/1.1/" xmlns:rdf="http://www.w3.org/1999/02/22-rdf-syntax-ns#" xmlns:svg="http://www.w3.org/2000/svg" y="0px"><metadata id="metadata19"><rdf:RDF><cc:Work rdf:about=""><dc:format>image/svg+xml</dc:format><dc:type rdf:resource="http://purl.org/dc/dcmitype/StillImage"/></cc:Work></rdf:RDF></metadata><defs id="defs17"/>



<g id="open" style="fill:#323a3e;fill-opacity:1" transform="matrix(4.7936726,0,0,4.7936726,9.1229931,8.9015147)"><circle cx="50" cy="50" id="path1" r="40.299999" style="fill:#3e3e45;fill-opacity:1;stroke-width:0.969441" transform="matrix(0.24691358,0,0,0.24691358,-3.8183951,-3.7721928)"/><g id="folder"><path d="M 1.9606173,14 V 3 c 0,0 0,-1 1,-1 0.9999999,0 3.9999998,0 4.9999998,0 1,0 1,2 1.9999999,2 0.99999,0 3.99999,0 3.99999,0 0,0 1,0 1,1 v 2 h -1 c 0,0 0,0 0,-1 0,-1 -1,-1 -1,-1 H 9.460617 C 8.4606171,5 8.4606171,3 7.4606171,3 c -1,0 -3.4999999,0 -3.4999999,0 C 2.9606173,3 2.9606173,4 2.9606173,4 v 9 1 h 0.9999999 v 1 c 0,0 0,0 -0.9999999,0 -1,0 -1,-1 -1,-1 z" fill="#808080" id="path2-7" style="fill:#818183;fill-opacity:1"/><path d="m 5.7406172,6 c -0.55,0 -1.14,0.43 -1.32,0.95 l -2.3699999,7.1 c -0.17,0.52 0.14,0.95 0.69,0.95 h 9.9999897 c 0.55,0 1.14,-0.43 1.32,-0.95 l 2.37,-7.1 c 0.17,-0.52 -0.14,-0.95 -0.69,-0.95 z" fill="#323a3e" id="path4" style="fill:#818183;fill-opacity:1"/></g></g></svg>