<?xml version="1.0" encoding="utf-8"?><!-- Created with Inkscape (http://www.inkscape.org/) --><svg height="1024" id="svg2" inkscape:version="1.2.2 (732a01da63, 2022-12-09)" sodipodi:docname="OrcaSlicer_gradient.svg" version="1.1" viewBox="0 0 1024 1024" width="1024" xmlns="http://www.w3.org/2000/svg" xmlns:inkscape="http://www.inkscape.org/namespaces/inkscape" xmlns:sodipodi="http://sodipodi.sourceforge.net/DTD/sodipodi-0.dtd" xmlns:svg="http://www.w3.org/2000/svg" xmlns:xlink="http://www.w3.org/1999/xlink">
  <defs id="defs6">
    <linearGradient id="linearGradient619" inkscape:collect="always">
      <stop id="stop615" offset="0" style="stop-color:#d9d9d9;stop-opacity:1;"/>
      <stop id="stop617" offset="1" style="stop-color:#f9f9f9;stop-opacity:1;"/>
    </linearGradient>
    <clipPath clipPathUnits="userSpaceOnUse" id="clipPath16">
      <path d="M 0,792 H 612 V 0 H 0 Z" id="path14"/>
    </clipPath>
    <linearGradient gradientTransform="matrix(1.0000697,0,0,1.0000572,-0.06245207,-0.06244275)" gradientUnits="userSpaceOnUse" id="linearGradient621" inkscape:collect="always" x1="6.0058432" x2="1024" xlink:href="#linearGradient619" y1="-2.0039091" y2="1024.9971"/>
  </defs>
  <sodipodi:namedview bordercolor="#000000" borderopacity="0.25" id="namedview4" inkscape:current-layer="layer1" inkscape:cx="362.03867" inkscape:cy="726.90577" inkscape:deskcolor="#d1d1d1" inkscape:pagecheckerboard="0" inkscape:pageopacity="0.0" inkscape:showpageshadow="2" inkscape:window-height="1237" inkscape:window-maximized="0" inkscape:window-width="1350" inkscape:window-x="412" inkscape:window-y="78" inkscape:zoom="0.35355339" pagecolor="#ffffff" showgrid="false"/>
  <g id="layer1" inkscape:groupmode="layer" inkscape:label="background" transform="matrix(0.99895749,0,0,0.99799215,-0.93372196,0.06231743)">
    <rect height="1026.0602" id="rect457" rx="2.0001395" ry="2.0001287" style="fill:url(#linearGradient621);fill-opacity:1;stroke-width:1.00007" width="1025.0686" x="0.93469638" y="-0.062442806"/>
  </g>
  <g id="g8" inkscape:groupmode="layer" inkscape:label="OrcaS" transform="matrix(1.3333333,0,0,-1.3333333,0,1056)">
    <g id="g10" transform="translate(76.258954,16.062441)">
      <g clip-path="url(#clipPath16)" id="g12">
        <g id="g18" transform="translate(59.7287,115.3517)">
          <path d="m 0,0 c 53.332,-53.285 126.698,-86.317 207.744,-86.646 164.049,-0.664 298.355,134.38 297.699,299.337 -0.324,81.496 -33.176,155.271 -86.17,208.899 z" id="path20" style="fill:#292826;fill-opacity:1;fill-rule:nonzero;stroke:none"/>
        </g>
        <g id="g22" transform="translate(479.0017,536.9419)">
          <path d="m 0,0 -419.273,-421.59 c 0.298,-0.298 0.606,-0.587 0.906,-0.884 146.894,74.925 348.023,206.579 486.003,316.297 C 52.756,-65.97 29.506,-29.859 0,0" id="path24" style="fill:#009789;fill-opacity:1;fill-rule:nonzero;stroke:none"/>
        </g>
        <g id="g26" transform="translate(397.0372,747)">
          <path d="m 0,0 c -163.742,0 -296.482,-133.473 -296.482,-298.121 0,-81.979 32.915,-156.223 86.172,-210.117 l 419.273,421.59 C 155.364,-33.096 81.529,0 0,0" id="path28" style="fill:#292826;fill-opacity:1;fill-rule:nonzero;stroke:none"/>
        </g>
        <g id="g30" transform="translate(397.0372,747)">
          <path d="m 0,0 c -56.714,0 -109.702,-16.022 -154.751,-43.796 -24.127,6.312 -54.061,11.37 -88.437,11.157 -59.938,-0.372 -108.713,-16.603 -141.822,-31.784 -8.218,-3.768 -6.898,-15.967 1.941,-17.829 21.801,-4.593 50.498,-14.324 78.883,-35.28 17.931,-13.238 31.574,-27.883 41.856,-41.597 -21.794,-41.504 -34.152,-88.793 -34.152,-138.992 0,-29.952 4.412,-58.865 12.586,-86.137 12.54,27.79 25.699,46.391 29.916,52.184 27.229,37.41 56.015,56.883 98.542,85.651 31.328,21.193 74.856,46.047 199.916,97.449 0,0 39.121,11.017 91.587,42.212 20.912,12.433 36.823,24.17 41.863,42.526 0.355,1.293 0.677,2.57 0.973,3.83 C 129.175,-22.506 67.208,0 0,0" id="path32" style="fill:#262523;fill-opacity:1;fill-rule:nonzero;stroke:none"/>
        </g>
        <g id="g34" transform="translate(446.5563,646.8041)">
          <path d="m 0,0 c 10.875,-19.229 -10.891,-52.305 -48.616,-73.879 -37.725,-21.573 -77.124,-23.474 -88,-4.245 -10.875,19.229 10.891,52.305 48.617,73.879 C -50.274,17.328 -10.875,19.229 0,0" id="path36" style="fill:#ffffff;fill-opacity:1;fill-rule:nonzero;stroke:none"/>
        </g>
      </g>
    </g>
  </g>
</svg>