<?xml version="1.0" encoding="UTF-8" standalone="no"?>
<!-- Created with Inkscape (http://www.inkscape.org/) -->

<svg
   width="1024"
   height="1024"
   viewBox="0 0 270.93332 270.93333"
   version="1.1"
   id="svg1"
   xml:space="preserve"
   inkscape:version="1.4.2 (f4327f4, 2025-05-13)"
   sodipodi:docname="OrcaSlicer_gray.svg"
   xmlns:inkscape="http://www.inkscape.org/namespaces/inkscape"
   xmlns:sodipodi="http://sodipodi.sourceforge.net/DTD/sodipodi-0.dtd"
   xmlns="http://www.w3.org/2000/svg"
   xmlns:svg="http://www.w3.org/2000/svg"><sodipodi:namedview
     id="namedview1"
     pagecolor="#ffffff"
     bordercolor="#111111"
     borderopacity="1"
     inkscape:showpageshadow="0"
     inkscape:pageopacity="0"
     inkscape:pagecheckerboard="1"
     inkscape:deskcolor="#d1d1d1"
     inkscape:document-units="mm"
     inkscape:zoom="0.25984537"
     inkscape:cx="325.1934"
     inkscape:cy="556.09995"
     inkscape:window-width="1920"
     inkscape:window-height="1027"
     inkscape:window-x="-8"
     inkscape:window-y="-8"
     inkscape:window-maximized="1"
     inkscape:current-layer="layer1-1"><inkscape:page
       x="0"
       y="0"
       width="270.93332"
       height="270.93332"
       id="page28"
       margin="0"
       bleed="0" /><inkscape:page
       x="225.63541"
       y="0"
       width="270.93332"
       height="270.93332"
       id="page29"
       margin="0"
       bleed="0" /></sodipodi:namedview><defs
     id="defs1" /><g
     inkscape:label="图层 1"
     inkscape:groupmode="layer"
     id="layer1" /><g
     inkscape:label="图层 1"
     inkscape:groupmode="layer"
     id="layer1-1"
     transform="translate(225.63541)"><g
       id="g42"
       transform="translate(-403.55177,32.678639)"><path
         style="fill:#f3f3f3"
         d="m 202.6105,238.82591 c 0.38805,-0.15659 1.02305,-0.15659 1.41111,0 0.38805,0.15658 0.0705,0.2847 -0.70556,0.2847 -0.77611,0 -1.09361,-0.12812 -0.70555,-0.2847 z m 221.26221,0 c 0.38805,-0.15659 1.02305,-0.15659 1.41111,0 0.38806,0.15658 0.0706,0.2847 -0.70556,0.2847 -0.77611,0 -1.09361,-0.12812 -0.70555,-0.2847 z m -227.09686,-1.22006 c -6.52368,-2.25514 -12.41937,-7.5473 -15.41301,-13.83521 -1.91199,-4.01597 -2.60014,-6.58424 -1.76421,-6.58424 0.31636,0 0.5752,0.47387 0.5752,1.05305 0,2.18127 4.03257,9.06569 7.11691,12.15004 3.08435,3.08434 9.96877,7.1169 12.15004,7.1169 0.57918,0 1.05305,0.254 1.05305,0.56445 0,0.74618 -0.33585,0.70417 -3.71798,-0.46499 z m 230.62464,0.47574 c 0,-0.31636 0.47387,-0.5752 1.05305,-0.5752 2.18127,0 9.06569,-4.03256 12.15004,-7.1169 3.08434,-3.08435 7.11691,-9.96877 7.11691,-12.15004 0,-0.57918 0.25883,-1.05305 0.57519,-1.05305 0.84669,0 0.1413,2.58097 -1.85116,6.77333 -3.07327,6.46649 -10.92693,12.91207 -17.49181,14.35572 -0.90117,0.19817 -1.55222,0.10009 -1.55222,-0.23386 z M 178.52506,214.59936 c 0.0271,-0.65755 0.16083,-0.7913 0.34102,-0.34102 0.16305,0.40746 0.143,0.89429 -0.0446,1.08185 -0.18756,0.18756 -0.32097,-0.14581 -0.29646,-0.74083 z m 270.36888,0 c 0.0271,-0.65755 0.16083,-0.7913 0.34101,-0.34102 0.16306,0.40746 0.143,0.89429 -0.0446,1.08185 -0.18756,0.18756 -0.32096,-0.14581 -0.29645,-0.74083 z M 178.52506,-7.2272961 c 0.0271,-0.6575455 0.16083,-0.7912942 0.34102,-0.3410185 0.16305,0.4074583 0.143,0.8942916 -0.0446,1.0818518 -0.18756,0.1875602 -0.32097,-0.1458148 -0.29646,-0.7408333 z m 270.36888,0 c 0.0271,-0.6575455 0.16083,-0.7912942 0.34101,-0.3410185 0.16306,0.4074583 0.143,0.8942916 -0.0446,1.0818518 -0.18756,0.1875602 -0.32096,-0.1458148 -0.29645,-0.7408333 z M 179.36478,-11.272481 c 1.84415,-8.386157 11.19067,-17.732675 19.57683,-19.576832 0.90117,-0.198172 1.55222,-0.100085 1.55222,0.233857 0,0.316359 -0.47387,0.575198 -1.05305,0.575198 -2.18127,0 -9.06569,4.032563 -12.15004,7.116908 -3.08434,3.084345 -7.11691,9.968767 -7.11691,12.150039 0,0.579179 -0.25884,1.0530521 -0.5752,1.0530521 -0.33394,0 -0.43202,-0.6510501 -0.23385,-1.5522221 z m 268.35571,0.49917 c 0,-2.181272 -4.03257,-9.065694 -7.11691,-12.150039 -3.08435,-3.084345 -9.96877,-7.116908 -12.15004,-7.116908 -0.57918,0 -1.05305,-0.258839 -1.05305,-0.575198 0,-0.846685 2.58097,-0.1413 6.77333,1.851163 4.86168,2.310565 9.96014,7.409025 12.2707,12.270701 1.99246,4.192357 2.69785,6.7733331 1.85116,6.7733331 -0.31636,0 -0.57519,-0.4738731 -0.57519,-1.0530521 z M 202.6105,-31.542967 c 0.38805,-0.156584 1.02305,-0.156584 1.41111,0 0.38805,0.156584 0.0705,0.284698 -0.70556,0.284698 -0.77611,0 -1.09361,-0.128114 -0.70555,-0.284698 z m 221.26221,0 c 0.38805,-0.156584 1.02305,-0.156584 1.41111,0 0.38806,0.156584 0.0706,0.284698 -0.70556,0.284698 -0.77611,0 -1.09361,-0.128114 -0.70555,-0.284698 z"
         id="path88" /><path
         style="fill:#ececec"
         d="m 202.6105,238.79334 c -1.16417,-0.12441 -2.11667,-0.46487 -2.11667,-0.75657 0,-0.29171 -0.47387,-0.53038 -1.05305,-0.53038 -2.18127,0 -9.06569,-4.03256 -12.15004,-7.1169 -3.05469,-3.0547 -7.11691,-9.96289 -7.11691,-12.10301 0,-0.5533 -0.3175,-1.11184 -0.70555,-1.2412 -0.56132,-0.1871 -0.70556,-23.35232 -0.70556,-113.31221 0,-89.959898 0.14424,-113.1251132 0.70556,-113.3122178 0.38805,-0.1293518 0.70555,-0.6878922 0.70555,-1.2412002 0,-2.140112 4.06222,-9.04831 7.11691,-12.103002 3.05469,-3.054692 9.96289,-7.116908 12.103,-7.116908 0.55331,0 1.11185,-0.3175 1.2412,-0.705555 0.34583,-1.037495 226.2786,-1.037495 226.62444,0 0.12935,0.388055 0.68789,0.705555 1.2412,0.705555 2.14011,0 9.04831,4.062216 12.103,7.116908 3.05469,3.054692 7.11691,9.96289 7.11691,12.103002 0,0.553308 0.3175,1.1118484 0.70555,1.2412002 1.0375,0.3458316 1.0375,226.2785978 0,226.6244278 -0.38805,0.12936 -0.70555,0.6879 -0.70555,1.2412 0,2.14012 -4.06222,9.04831 -7.11691,12.10301 -3.05469,3.05469 -9.96289,7.1169 -12.103,7.1169 -0.55331,0 -1.11184,0.3175 -1.24117,0.70556 -0.18698,0.56103 -23.00293,0.71601 -111.3837,0.75658 -61.1317,0.0281 -112.10105,-0.0508 -113.26521,-0.17519 z m 59.68999,-48.33355 v -5.55994 l -2.74379,-1.04152 c -3.44736,-1.3086 -4.47901,-2.24527 -6.09274,-5.53183 -1.13895,-2.31964 -1.29173,-3.48473 -1.30661,-9.96455 -0.0151,-6.56885 0.12131,-7.61831 1.30159,-10.01494 1.43624,-2.91636 3.38058,-4.57762 6.70059,-5.72503 l 2.14096,-0.73993 0.16245,-5.52158 0.16244,-5.52159 -4.39578,0.27645 c -12.44022,0.78236 -19.44368,7.89777 -21.09106,21.4282 -1.44082,11.83392 1.3164,22.39598 7.19351,27.55616 3.61803,3.17666 12.33832,6.35155 16.55733,6.02819 1.40237,-0.10748 1.41111,-0.14262 1.41111,-5.66809 z m 9.87778,5.2411 c 7.84965,-1.26773 14.28102,-6.34266 16.92408,-13.35462 2.5263,-6.70222 2.66803,-18.5466 0.31593,-26.40285 -1.87219,-6.25333 -7.08325,-11.62165 -13.23095,-13.63025 -2.04844,-0.66928 -4.85241,-1.03523 -7.96017,-1.03889 l -4.79778,-0.006 -0.16482,4.71137 c -0.17795,5.08655 0.28725,6.2953 2.42278,6.2953 3.73646,0 8.13402,3.74871 9.42683,8.03592 0.40324,1.33722 0.72517,5.18662 0.7246,8.66429 -9.5e-4,5.83227 -0.1161,6.48505 -1.69272,9.59556 -1.35735,2.67792 -2.18885,3.58856 -4.20712,4.60756 -1.38348,0.6985 -3.17279,1.27 -3.97626,1.27 -0.80346,0 -1.76564,0.3048 -2.13818,0.67733 -0.71961,0.71962 -0.98162,10.11912 -0.30103,10.79971 0.55297,0.55297 4.46886,0.45127 8.65481,-0.22477 z m 104.07961,-0.29177 c 0.48283,-1.25824 0.41114,-9.42023 -0.0894,-10.17353 -0.22808,-0.34327 -1.35971,-0.79788 -2.51474,-1.01024 -2.64527,-0.48633 -5.22173,-2.63054 -6.76889,-5.63329 -1.49791,-2.90714 -2.06362,-12.48702 -1.03108,-17.46072 0.87843,-4.2314 3.68849,-7.35337 7.54776,-8.38557 3.143,-0.84063 3.32392,-1.26579 3.08526,-7.25046 l -0.16855,-4.22669 -4.51556,0.0532 c -10.06843,0.11867 -17.36635,5.55254 -20.39649,15.18678 -1.3803,4.38861 -1.69378,16.6238 -0.54232,21.16667 2.61939,10.3343 9.00798,16.31725 19.24548,18.02351 4.47329,0.74555 5.77477,0.68424 6.1485,-0.28968 z m 10.01215,0.0799 c 12.16187,-2.57784 17.95845,-11.05312 17.97417,-26.28039 0.01,-9.44804 -1.60709,-15.64726 -5.36658,-20.5762 -3.39464,-4.4506 -10.84238,-7.64602 -17.82103,-7.64602 h -3.89166 v 5.37994 c 0,3.82096 0.20446,5.4379 0.70556,5.57998 0.38805,0.11002 1.77361,0.48982 3.07901,0.84399 5.49946,1.49206 8.15631,6.33079 8.24018,15.0072 0.0687,7.10562 -0.89248,10.56213 -3.77112,13.56168 -1.69631,1.76756 -2.93886,2.5267 -4.58474,2.80104 -1.24178,0.20699 -2.57528,0.47558 -2.96333,0.59687 -0.5029,0.15719 -0.70556,1.84688 -0.70556,5.88269 v 5.66216 l 2.68111,-0.01 c 1.47462,-0.005 4.36541,-0.3668 6.42399,-0.80314 z m -159.75897,-1.55798 c 6.137,-3.60783 8.8342,-11.04058 7.07248,-19.48984 -1.30132,-6.24115 -4.32784,-9.81278 -9.69017,-11.43546 -1.22808,-0.37163 -7.14893,-0.84781 -13.15744,-1.05818 l -10.92456,-0.3825 -1.39336,-1.61987 c -1.58339,-1.84081 -1.43505,-3.79148 0.43304,-5.69434 1.04532,-1.06478 1.98882,-1.13958 16.61552,-1.31714 l 15.50726,-0.18825 v -5.87953 -5.87952 h -17.67755 c -20.99385,0 -22.27273,0.21922 -26.45782,4.53523 -3.13368,3.23171 -4.40685,6.81415 -4.40685,12.4 0,5.06357 1.3343,8.69989 4.26926,11.63485 3.4798,3.4798 6.38656,4.21198 18.02629,4.54058 5.27756,0.149 10.3253,0.55081 11.21721,0.89291 0.99369,0.38115 1.92676,1.35224 2.40956,2.50773 0.68127,1.63053 0.6747,2.10463 -0.0486,3.50325 -0.46005,0.88965 -1.29035,1.83599 -1.84511,2.10298 -0.55476,0.267 -7.86665,0.61528 -16.24865,0.77396 l -15.24,0.28851 -0.16116,5.81287 -0.16116,5.81286 19.63449,-0.16842 19.63449,-0.16842 z m 102.52857,-2.9913 c 1.07574,-2.48355 2.79642,-6.42055 3.82374,-8.74889 11.34555,-25.71383 17.24206,-39.7377 16.98731,-40.40155 -0.24431,-0.63668 -1.81205,-0.80289 -7.57298,-0.80289 h -7.26489 l -0.69517,1.52572 c -0.38234,0.83914 -2.59949,6.36364 -4.927,12.27666 -8.49588,21.58369 -8.85345,22.41876 -9.27421,21.65924 -0.22801,-0.41156 -2.58143,-6.33629 -5.22983,-13.16607 -2.64841,-6.82977 -5.66761,-14.57677 -6.70935,-17.21555 l -1.89407,-4.79778 -7.4569,-0.15749 -7.4569,-0.1575 v 1.37078 c 0,0.75393 3.84352,10.4768 8.54115,21.60639 4.69763,11.12958 9.11149,21.6326 9.80857,23.34004 0.69709,1.70745 1.80092,4.31881 2.45295,5.80303 l 1.18553,2.69859 6.86308,-0.15859 6.86309,-0.15858 z m 118.11641,-1.12889 v -5.92666 l -8.60778,-0.0434 c -9.65649,-0.0487 -12.45172,-0.63193 -14.19224,-2.9614 -1.13939,-1.52494 -1.20061,-2.38237 -1.47109,-20.60097 l -0.28222,-19.00981 h -6.77333 -6.77334 l 0.0147,19.75556 c 0.0163,21.83323 0.25594,23.71369 3.60169,28.25807 1.71608,2.33086 6.19509,5.17549 9.33085,5.92603 0.95057,0.22752 6.99881,0.43967 13.44053,0.47145 l 11.71222,0.0578 z m -115.5993,-57.16362 c 23.27718,-6.40276 40.45898,-22.60603 48.09626,-45.357084 4.24215,-12.637146 4.26,-30.16029 0.0439,-43.076037 -4.39681,-13.469283 -13.15193,-25.773338 -24.26305,-34.098214 -5.3748,-4.027007 -16.29719,-9.32114314 -23.14222,-11.2171396 -5.38076,-1.4904109 -6.22455,-1.5633273 -18.06222,-1.5608421 -11.2325,0.00236 -12.87573,0.1276912 -17.21555,1.3130707 -26.40955,7.2134971 -45.53114,27.607248 -50.51399,53.874683 -1.12894,5.951299 -1.12894,20.263528 0,26.214827 1.6477,8.685984 5.18097,17.513908 9.89001,24.710366 4.42914,6.76869 8.27204,11.00666 9.98061,11.00666 1.14325,0 23.00349,-12.51258 34.11694,-19.528193 2.16294,-1.365405 2.93392,-3.404668 1.46531,-3.875798 -0.38805,-0.124489 -7.69055,-2.811558 -16.22777,-5.971266 -8.53722,-3.159708 -17.30022,-6.378656 -19.47333,-7.153217 -2.17312,-0.774562 -4.14633,-1.589433 -4.38492,-1.810826 -0.2386,-0.221392 5.0954,-4.437213 11.85333,-9.368491 53.20678,-38.825137 68.81175,-50.114784 69.34023,-50.165223 0.33475,-0.03195 1.87242,1.08491 3.41704,2.48191 1.54462,1.397 7.18741,6.472233 12.53953,11.278296 7.99255,7.177091 9.58004,8.848775 8.88546,9.356668 -0.46512,0.340105 -11.91954,7.431085 -25.45425,15.757733 -22.4549,13.814407 -24.59365,15.260429 -24.43805,16.522735 0.13989,1.134961 3.51533,3.560477 18.79718,13.507239 10.24466,6.668125 18.84762,12.337545 19.11767,12.598711 0.27104,0.26212 -0.36113,0.71749 -1.41111,1.01647 -1.04617,0.297892 -17.65012,5.300592 -36.89767,11.117102 -19.24756,5.81651 -36.01156,10.8748 -37.25333,11.24064 -1.81591,0.53498 -2.25778,0.92825 -2.25778,2.00949 0,1.08047 0.75216,1.75144 3.83211,3.41848 4.2869,2.32029 12.3478,5.23215 17.899,6.4657 2.71692,0.60373 6.74446,0.77265 15.52222,0.65101 9.98324,-0.13834 12.53886,-0.35283 16.19847,-1.35946 z"
         id="path87" /><path
         style="fill:#ebecec"
         d="m 413.78182,190.79862 c -0.70209,-0.89524 -0.68213,-0.91521 0.21311,-0.21311 0.94022,0.73737 1.23923,1.20089 0.77467,1.20089 -0.11721,0 -0.56171,-0.4445 -0.98778,-0.98778 z M 284.0316,189.81084 c 0.72912,-0.77611 1.45267,-1.41111 1.6079,-1.41111 0.15522,0 -0.31433,0.635 -1.04345,1.41111 -0.72912,0.77611 -1.45267,1.41111 -1.60789,1.41111 -0.15523,0 0.31433,-0.635 1.04344,-1.41111 z m -41.20444,-42.26422 c 0,-0.11721 0.4445,-0.56171 0.98778,-0.98777 0.89524,-0.7021 0.91521,-0.68214 0.21311,0.21311 -0.73737,0.94022 -1.20089,1.23922 -1.20089,0.77466 z M 362.7716,114.45751 c 1.52888,-1.55222 2.90679,-2.82222 3.06201,-2.82222 0.15522,0 -0.96868,1.27 -2.49756,2.82222 -1.52889,1.55222 -2.90679,2.82222 -3.06201,2.82222 -0.15522,0 0.96868,-1.27 2.49756,-2.82222 z m -3.74089,-83.961104 c -0.70209,-0.895241 -0.68213,-0.915205 0.21311,-0.213109 0.94023,0.737373 1.23923,1.200886 0.77467,1.200886 -0.11721,0 -0.56171,-0.4445 -0.98778,-0.987777 z m -6.20888,-5.644444 c -0.7021,-0.895241 -0.68214,-0.915205 0.2131,-0.213109 0.54328,0.426067 0.98778,0.870567 0.98778,0.987777 0,0.464557 -0.46351,0.165554 -1.20088,-0.774668 z m -87.41689,-8.325556 c 1.68623,-1.707444 3.19288,-3.104444 3.3481,-3.104444 0.15522,0 -1.09742,1.397 -2.78366,3.104444 -1.68623,1.707445 -3.19288,3.104445 -3.3481,3.104445 -0.15522,0 1.09742,-1.397 2.78366,-3.104445 z m 97.08444,0 c -1.37105,-1.397 -2.36582,-2.539999 -2.2106,-2.539999 0.15522,0 1.40399,1.142999 2.77504,2.539999 1.37105,1.397 2.36582,2.54 2.2106,2.54 -0.15522,0 -1.40399,-1.143 -2.77504,-2.54 z"
         id="path86" /><path
         style="fill:#eaebec"
         d="m 260.21911,195.91637 c 0.40745,-0.16305 0.89429,-0.143 1.08185,0.0446 0.18756,0.18756 -0.14582,0.32097 -0.74084,0.29646 -0.65754,-0.0271 -0.79129,-0.16083 -0.34101,-0.34102 z m 3.12528,-5.25886 c 0,-2.63878 0.0972,-3.71828 0.21606,-2.39889 0.11884,1.31939 0.11884,3.47839 0,4.79778 -0.11883,1.31939 -0.21606,0.23989 -0.21606,-2.39889 z m 112.88515,-0.28222 c 0.002,-2.48356 0.10129,-3.42935 0.22052,-2.10175 0.11924,1.32759 0.11756,3.35959 -0.004,4.51555 -0.12128,1.15597 -0.21884,0.0697 -0.21679,-2.4138 z M 233.90609,179.0864 c 0.0115,-0.93134 0.13801,-1.244 0.28112,-0.69482 0.14311,0.54919 0.1337,1.31119 -0.0209,1.69334 -0.15461,0.38215 -0.2717,-0.0672 -0.2602,-0.99852 z m 175.11827,-20.03778 c 0,-9.46855 0.0772,-13.34205 0.17166,-8.60778 0.0944,4.73428 0.0944,12.48128 0,17.21556 -0.0944,4.73428 -0.17166,0.86078 -0.17166,-8.60778 z M 202.32828,173.8715 c 1.78505,-0.11201 4.70605,-0.11201 6.49111,0 1.78505,0.11202 0.32455,0.20366 -3.24556,0.20366 -3.57011,0 -5.03061,-0.0916 -3.24555,-0.20366 z m 34.47066,-5.22732 c 0,-2.01789 0.10244,-2.84339 0.22765,-1.83445 0.12521,1.00895 0.12521,2.65995 0,3.66889 -0.12521,1.00894 -0.22765,0.18344 -0.22765,-1.83444 z m 54.17514,0.56444 c 0,-1.70744 0.10582,-2.40594 0.23514,-1.55222 0.12933,0.85372 0.12933,2.25072 0,3.10444 -0.12932,0.85372 -0.23514,0.15522 -0.23514,-1.55222 z m 73.88311,-0.84667 c 0.0115,-0.93133 0.13801,-1.244 0.28112,-0.69481 0.14311,0.54919 0.1337,1.31119 -0.0209,1.69333 -0.15462,0.38215 -0.27171,-0.0672 -0.26021,-0.99852 z M 263.34066,146.34862 c 0.002,-2.48355 0.10128,-3.42934 0.22052,-2.10174 0.11924,1.32759 0.11756,3.35959 -0.004,4.51555 -0.12128,1.15596 -0.21884,0.0697 -0.21679,-2.41381 z m 112.88888,0 c 0.002,-2.48355 0.10129,-3.42934 0.22052,-2.10174 0.11924,1.32759 0.11756,3.35959 -0.004,4.51555 -0.12128,1.15596 -0.21884,0.0697 -0.21679,-2.41381 z m -19.94905,1.198 c 0,-0.11721 0.4445,-0.56171 0.98778,-0.98777 0.89524,-0.7021 0.9152,-0.68214 0.21311,0.21311 -0.73738,0.94022 -1.20089,1.23922 -1.20089,0.77466 z m -78.45777,-24.02469 c 0,-0.60256 0.2173,-1.22988 0.4829,-1.39402 0.2656,-0.16415 0.36299,0.32886 0.21642,1.09557 -0.31835,1.66537 -0.69932,1.82796 -0.69932,0.29845 z m -14.15383,-10.61664 -1.3684,-1.55222 1.55223,1.36839 c 1.45078,1.27897 1.81107,1.73605 1.36839,1.73605 -0.10111,0 -0.79961,-0.6985 -1.55222,-1.55222 z m 99.87738,-78.457773 c -0.7021,-0.895241 -0.68213,-0.915205 0.21311,-0.213109 0.94022,0.737373 1.23922,1.200886 0.77467,1.200886 -0.11721,0 -0.56171,-0.4445 -0.98778,-0.987777 z M 346.04849,18.643073 c -0.70209,-0.89524 -0.68213,-0.915205 0.21311,-0.213109 0.94022,0.737373 1.23923,1.200887 0.77467,1.200887 -0.11721,0 -0.56171,-0.4445 -0.98778,-0.987778 z"
         id="path85" /><path
         style="fill:#e9eaeb"
         d="m 373.63716,195.92813 c 0.38805,-0.15658 1.02305,-0.15658 1.41111,0 0.38805,0.15659 0.0706,0.2847 -0.70556,0.2847 -0.77611,0 -1.09361,-0.12811 -0.70555,-0.2847 z m 22.15444,-4.8828 c 0,-0.0971 0.8255,-0.92264 1.83444,-1.83444 l 1.83445,-1.65783 -1.65783,1.83445 c -1.54532,1.70996 -2.01106,2.09389 -2.01106,1.65782 z m -38.98939,-1.94004 -1.36839,-1.55223 1.55223,1.36839 c 1.45078,1.27897 1.81107,1.73606 1.36839,1.73606 -0.10111,0 -0.79961,-0.6985 -1.55223,-1.55222 z m -101.62927,-7.33778 c -0.70209,-0.89524 -0.68213,-0.91521 0.21311,-0.21311 0.54328,0.42607 0.98778,0.87057 0.98778,0.98778 0,0.46455 -0.46352,0.16555 -1.20089,-0.77467 z m 169.33333,0 c -0.7021,-0.89524 -0.68214,-0.91521 0.21311,-0.21311 0.94022,0.73737 1.23922,1.20089 0.77466,1.20089 -0.11721,0 -0.56171,-0.4445 -0.98777,-0.98778 z m -212.26494,-7.86447 c 0.40746,-0.16305 0.89429,-0.143 1.08185,0.0446 0.18756,0.18756 -0.14581,0.32097 -0.74083,0.29646 -0.65755,-0.0271 -0.79129,-0.16083 -0.34102,-0.34102 z m 152.55039,-3.33035 c 0.0271,-0.65754 0.16083,-0.79129 0.34102,-0.34101 0.16305,0.40745 0.14299,0.89429 -0.0446,1.08185 -0.18756,0.18756 -0.32096,-0.14582 -0.29645,-0.74084 z m 0,-4.51555 c 0.0271,-0.65755 0.16083,-0.7913 0.34102,-0.34102 0.16305,0.40746 0.14299,0.89429 -0.0446,1.08185 -0.18756,0.18756 -0.32096,-0.14581 -0.29645,-0.74083 z M 283.95961,147.3364 c -0.7021,-0.89524 -0.68213,-0.91521 0.21311,-0.21311 0.54327,0.42607 0.98777,0.87057 0.98777,0.98778 0,0.46456 -0.46351,0.16555 -1.20088,-0.77467 z m 74.01421,-28.57644 c 0,-0.11721 0.4445,-0.56171 0.98778,-0.98778 0.89524,-0.70209 0.91521,-0.68213 0.21311,0.21311 -0.73737,0.94022 -1.20089,1.23923 -1.20089,0.77467 z m 9.82415,-80.643555 -1.07526,-1.27 1.27,1.07526 c 1.19349,1.010479 1.52696,1.46474 1.07526,1.46474 -0.10711,0 -0.67861,-0.5715 -1.27,-1.27 z m -6.20889,-5.644444 -1.07526,-1.27 1.27,1.07526 c 1.19349,1.010478 1.52696,1.46474 1.07526,1.46474 -0.1071,0 -0.6786,-0.5715 -1.27,-1.27 z m -5.08,-4.515555 -1.07526,-1.27 1.27,1.075259 c 1.19349,1.010479 1.52696,1.464741 1.07526,1.464741 -0.1071,0 -0.6786,-0.5715 -1.27,-1.27 z m -6.20889,-5.644444 -1.07526,-1.27 1.27,1.075259 c 1.19349,1.010479 1.52696,1.464741 1.07526,1.464741 -0.1071,0 -0.6786,-0.5715 -1.27,-1.27 z m -89.41081,-0.636443 c 0,-0.11721 0.4445,-0.56171 0.98778,-0.987777 0.89524,-0.702096 0.91521,-0.682132 0.21311,0.213109 -0.73737,0.940222 -1.20089,1.239225 -1.20089,0.774668 z m 104.91467,-1.339113 c -0.7021,-0.89524 -0.68213,-0.915205 0.21311,-0.213109 0.94022,0.737373 1.23922,1.200887 0.77466,1.200887 -0.11721,0 -0.56171,-0.4445 -0.98777,-0.987778 z M 343.94129,16.78985 c -0.73289,-0.610561 -1.08976,-1.11011 -0.79303,-1.11011 0.29672,0 0.99922,0.508 1.56112,1.128889 1.29082,1.426336 0.95677,1.418169 -0.76809,-0.01878 z m 15.08942,-3.226777 c -0.70209,-0.89524 -0.68213,-0.915205 0.21311,-0.213109 0.94023,0.737373 1.23923,1.200887 0.77467,1.200887 -0.11721,0 -0.56171,-0.4445 -0.98778,-0.987778 z"
         id="path84" /><path
         style="fill:#e5e9ea"
         d="m 381.01021,195.91637 c 0.40746,-0.16305 0.89429,-0.143 1.08185,0.0446 0.18756,0.18756 -0.14581,0.32097 -0.74083,0.29646 -0.65755,-0.0271 -0.79129,-0.16083 -0.34102,-0.34102 z m -160.86666,-0.56444 c 0.40746,-0.16305 0.89429,-0.143 1.08185,0.0446 0.18756,0.18756 -0.14581,0.32097 -0.74083,0.29646 -0.65754,-0.0271 -0.79129,-0.16084 -0.34102,-0.34102 z m 193.93886,-4.83553 -1.07526,-1.27 1.27,1.07526 c 1.19349,1.01048 1.52696,1.46474 1.07526,1.46474 -0.1071,0 -0.6786,-0.5715 -1.27,-1.27 z m -131.74414,0.52893 c 0,-0.0971 0.8255,-0.92264 1.83445,-1.83444 l 1.83444,-1.65783 -1.65782,1.83445 c -1.54533,1.70996 -2.01107,2.09389 -2.01107,1.65782 z m -89.88777,-7.01807 c 3.4925,-0.099 9.2075,-0.099 12.7,0 3.4925,0.099 0.635,0.18005 -6.35,0.18005 -6.985,0 -9.8425,-0.081 -6.35,-0.18005 z m 244.70726,0.004 c 1.79639,-0.11236 4.59039,-0.11131 6.20889,0.002 1.6185,0.11363 0.14872,0.20555 -3.26616,0.20428 -3.41489,-0.001 -4.73912,-0.0942 -2.94273,-0.20659 z m -165.26171,-1.84005 c 0.5619,-0.62089 1.14863,-1.12889 1.30385,-1.12889 0.15522,0 -0.17751,0.508 -0.73941,1.12889 -0.56189,0.62089 -1.14863,1.12889 -1.30385,1.12889 -0.15522,0 0.17751,-0.508 0.73941,-1.12889 z m 78.22011,-9.36037 c 0.0271,-0.65754 0.16084,-0.79129 0.34102,-0.34102 0.16305,0.40746 0.143,0.8943 -0.0446,1.08186 -0.18756,0.18756 -0.32097,-0.14582 -0.29646,-0.74084 z m 72.45246,-14.62852 c 2.8e-4,-8.69244 0.0786,-12.16957 0.17412,-7.72696 0.0955,4.44262 0.0952,11.55462 -5.2e-4,15.80445 -0.0958,4.24983 -0.17388,0.61496 -0.1736,-8.07749 z m -171.16475,10.16 c 0.0115,-0.93133 0.138,-1.244 0.28111,-0.69481 0.14311,0.54919 0.1337,1.31119 -0.0209,1.69333 -0.15462,0.38215 -0.27171,-0.0672 -0.2602,-0.99852 z m -22.19537,-1.83444 c -0.7021,-0.89524 -0.68213,-0.91521 0.21311,-0.21311 0.54328,0.42607 0.98778,0.87057 0.98778,0.98778 0,0.46456 -0.46352,0.16555 -1.20089,-0.77467 z m 120.90766,-2.1637 c 0.0271,-0.65755 0.16084,-0.7913 0.34102,-0.34102 0.16305,0.40746 0.143,0.89429 -0.0446,1.08185 -0.18756,0.18756 -0.32097,-0.14582 -0.29646,-0.74083 z m 53.62222,0 c 0.0271,-0.65755 0.16084,-0.7913 0.34102,-0.34102 0.16305,0.40746 0.143,0.89429 -0.0446,1.08185 -0.18756,0.18756 -0.32097,-0.14582 -0.29646,-0.74083 z M 206.58373,162.0168 c 1.95244,-0.11053 5.00044,-0.10962 6.77333,0.002 1.77289,0.11165 0.17544,0.20209 -3.5499,0.20097 -3.72533,-0.001 -5.17588,-0.0925 -3.22343,-0.203 z m 191.39365,-13.55151 c -0.7021,-0.89524 -0.68213,-0.91521 0.21311,-0.21311 0.94022,0.73737 1.23922,1.20089 0.77467,1.20089 -0.11721,0 -0.56171,-0.4445 -0.98778,-0.98778 z m -154.30355,-1.27 c 0.5619,-0.62089 1.14863,-1.12889 1.30385,-1.12889 0.15522,0 -0.17751,0.508 -0.73941,1.12889 -0.56189,0.62089 -1.14863,1.12889 -1.30385,1.12889 -0.15522,0 0.17751,-0.508 0.73941,-1.12889 z m 118.81555,-33.02 c 1.68623,-1.70744 3.19288,-3.10444 3.3481,-3.10444 0.15522,0 -1.09742,1.397 -2.78366,3.10444 -1.68623,1.70744 -3.19288,3.10444 -3.3481,3.10444 -0.15522,0 1.09742,-1.397 2.78366,-3.10444 z M 245.69395,72.923811 c 0.0271,-0.657546 0.16083,-0.791294 0.34101,-0.341019 0.16306,0.407459 0.143,0.894292 -0.0446,1.081852 -0.18756,0.18756 -0.32096,-0.145815 -0.29645,-0.740833 z m 136.59554,-1.693333 c 0.0271,-0.657546 0.16084,-0.791295 0.34102,-0.341019 0.16305,0.407458 0.143,0.894292 -0.0446,1.081852 -0.18756,0.18756 -0.32096,-0.145815 -0.29646,-0.740833 z m 0,-11.288889 c 0.0271,-0.657545 0.16084,-0.791294 0.34102,-0.341018 0.16305,0.407458 0.143,0.894291 -0.0446,1.081852 -0.18756,0.18756 -0.32096,-0.145815 -0.29646,-0.740834 z M 365.80405,36.14085 c -0.7021,-0.89524 -0.68213,-0.915205 0.21311,-0.213109 0.54327,0.426068 0.98777,0.870568 0.98777,0.987778 0,0.464557 -0.46351,0.165553 -1.20088,-0.774669 z m -6.20889,-5.644444 c -0.7021,-0.895241 -0.68213,-0.915205 0.21311,-0.213109 0.54328,0.426067 0.98778,0.870567 0.98778,0.987777 0,0.464557 -0.46352,0.165554 -1.20089,-0.774668 z m -11.55274,-10.442222 -1.07526,-1.27 1.27,1.07526 c 0.6985,0.591392 1.27,1.162892 1.27,1.27 0,0.451698 -0.45426,0.118227 -1.46474,-1.07526 z m -82.35526,-3.245555 c 1.84323,-1.862667 3.47833,-3.386667 3.63355,-3.386667 0.15522,0 -1.22587,1.524 -3.0691,3.386667 -1.84323,1.862666 -3.47833,3.386666 -3.63355,3.386666 -0.15523,0 1.22587,-1.524 3.0691,-3.386666 z m 96.80222,0.282222 c -1.37105,-1.397 -2.36582,-2.54 -2.2106,-2.54 0.15522,0 1.40399,1.143 2.77504,2.54 1.37105,1.397 2.36582,2.54 2.2106,2.54 -0.15522,0 -1.40399,-1.143 -2.77504,-2.54 z"
         id="path83" /><path
         style="fill:#e2e8e9"
         d="m 385.06716,182.54218 c 0,-0.11721 0.4445,-0.56171 0.98777,-0.98778 0.89524,-0.7021 0.91521,-0.68213 0.21311,0.21311 -0.73737,0.94022 -1.20088,1.23922 -1.20088,0.77467 z M 186.87517,169.34973 c -0.7021,-0.89524 -0.68213,-0.9152 0.21311,-0.21311 0.54327,0.42607 0.98777,0.87057 0.98777,0.98778 0,0.46456 -0.46351,0.16555 -1.20088,-0.77467 z m 169.96976,-21.87222 c 0.72912,-0.77611 1.45267,-1.41111 1.6079,-1.41111 0.15522,0 -0.31433,0.635 -1.04345,1.41111 -0.72912,0.77611 -1.45267,1.41111 -1.60789,1.41111 -0.15523,0 0.31433,-0.635 1.04344,-1.41111 z m -93.17604,-35.13666 -1.3684,-1.55223 1.55223,1.36839 c 1.45078,1.27897 1.81107,1.73606 1.36839,1.73606 -0.10111,0 -0.79961,-0.6985 -1.55222,-1.55222 z M 364.11071,34.447517 c -0.70209,-0.895241 -0.68213,-0.915205 0.21311,-0.213109 0.94022,0.737373 1.23923,1.200886 0.77467,1.200886 -0.11721,0 -0.56171,-0.4445 -0.98778,-0.987777 z"
         id="path82" /><path
         style="fill:#e0e6e8"
         d="m 184.87005,190.09306 c 0,-2.01788 0.10245,-2.84338 0.22765,-1.83444 0.12521,1.00894 0.12521,2.65994 0,3.66889 -0.1252,1.00894 -0.22765,0.18344 -0.22765,-1.83445 z m 77.32313,0.28223 c 0.003,-1.86267 0.10854,-2.55662 0.23416,-1.54212 0.12563,1.01451 0.12303,2.53851 -0.006,3.38667 -0.12879,0.84816 -0.23157,0.0181 -0.2284,-1.84455 z m 14.09764,-22.01334 c 0.004,-1.55222 0.11386,-2.12023 0.2436,-1.26224 0.12974,0.858 0.12627,2.128 -0.008,2.82223 -0.13397,0.69423 -0.24013,-0.008 -0.23589,-1.55999 z m 73.93452,0.28223 c 0,-1.397 0.11007,-1.9685 0.24461,-1.27 0.13454,0.6985 0.13454,1.8415 0,2.54 -0.13454,0.6985 -0.24461,0.127 -0.24461,-1.27 z m -88.03216,-22.29556 c 0.003,-1.86266 0.10854,-2.55662 0.23416,-1.54211 0.12563,1.0145 0.12303,2.5385 -0.006,3.38666 -0.12879,0.84817 -0.23157,0.0181 -0.2284,-1.84455 z M 382.43843,65.63307 c 0.002,-2.483555 0.10128,-3.429341 0.22052,-2.101746 0.11924,1.327595 0.11756,3.359595 -0.004,4.515555 -0.12128,1.155961 -0.21884,0.06975 -0.21679,-2.413809 z"
         id="path81" /><path
         style="fill:#dde5e8"
         d="m 283.39516,147.3364 c -0.70209,-0.89524 -0.68213,-0.91521 0.21311,-0.21311 0.54328,0.42607 0.98778,0.87057 0.98778,0.98778 0,0.46456 -0.46351,0.16555 -1.20089,-0.77467 z"
         id="path80" /><path
         style="fill:#d9e4e7"
         d="m 357.07353,188.82306 -1.07526,-1.27 1.27,1.07526 c 1.19348,1.01048 1.52696,1.46474 1.07526,1.46474 -0.10711,0 -0.67861,-0.5715 -1.27,-1.27 z m 39.28251,1.05689 c 0,-0.1172 0.4445,-0.5617 0.98778,-0.98777 0.89524,-0.7021 0.91521,-0.68213 0.21311,0.21311 -0.73737,0.94022 -1.20089,1.23922 -1.20089,0.77466 z M 254.6085,181.76751 c -0.7021,-0.89524 -0.68213,-0.91521 0.21311,-0.21311 0.94022,0.73737 1.23922,1.20089 0.77467,1.20089 -0.11721,0 -0.56171,-0.4445 -0.98778,-0.98778 z M 245.84974,65.63307 c -0.002,-2.793999 0.0937,-4.008163 0.2121,-2.698142 0.11838,1.310022 0.11979,3.596022 0.003,5.08 -0.11666,1.483978 -0.21351,0.412142 -0.21523,-2.381858 z m 122.51268,-27.516665 -1.07526,-1.27 1.27,1.07526 c 1.19348,1.010479 1.52695,1.46474 1.07526,1.46474 -0.10711,0 -0.67861,-0.5715 -1.27,-1.27 z m -6.50948,-5.926666 c -0.7021,-0.89524 -0.68214,-0.915205 0.21311,-0.213109 0.54327,0.426068 0.98777,0.870568 0.98777,0.987778 0,0.464557 -0.46351,0.165553 -1.20088,-0.774669 z"
         id="path79" /><path
         style="fill:#d3e4e7"
         d="m 194.14383,195.31564 c 4.11339,-0.0964 10.84439,-0.0964 14.95778,0 4.11339,0.0965 0.74789,0.17535 -7.47889,0.17535 -8.22678,0 -11.59228,-0.0789 -7.47889,-0.17535 z m 123.34814,0.006 c 1.48398,-0.11665 3.76998,-0.11525 5.08,0.003 1.31002,0.11838 0.0959,0.21383 -2.69814,0.21211 -2.794,-0.002 -3.86584,-0.0986 -2.38186,-0.21524 z m 116.23382,-0.002 c 2.08192,-0.1083 5.63792,-0.10902 7.90222,-0.002 2.26431,0.10741 0.56092,0.19601 -3.7853,0.19689 -4.34622,8.8e-4 -6.19884,-0.087 -4.11692,-0.19529 z m -56.37564,-4.37978 c 0.002,-2.17311 0.10453,-2.99295 0.22671,-1.82185 0.12219,1.17109 0.12014,2.94909 -0.005,3.95111 -0.12469,1.00202 -0.22466,0.0438 -0.22216,-2.12926 z m 69.43122,-0.84667 c 0,-2.32833 0.0996,-3.28083 0.22141,-2.11666 0.12177,1.16416 0.12177,3.06916 0,4.23333 -0.12178,1.16417 -0.22141,0.21167 -0.22141,-2.11667 z m -57.06771,-21.44888 c 0,-1.08656 0.11616,-1.53106 0.25814,-0.98778 0.14197,0.54328 0.14197,1.43228 0,1.97555 -0.14198,0.54328 -0.25814,0.0988 -0.25814,-0.98777 z M 182.47617,157.59047 c 0.0271,-0.65754 0.16083,-0.79129 0.34102,-0.34102 0.16305,0.40746 0.143,0.8943 -0.0446,1.08186 -0.18756,0.18756 -0.32097,-0.14582 -0.29646,-0.74084 z m 27.18988,-5.17225 c 3.64773,-0.0983 9.61672,-0.0983 13.26445,0 3.64772,0.0983 0.66322,0.17876 -6.63222,0.17876 -7.29545,0 -10.27995,-0.0804 -6.63223,-0.17876 z m 20.93683,-5.50515 c 0.002,-2.48356 0.10129,-3.42935 0.22052,-2.10175 0.11924,1.32759 0.11756,3.35959 -0.004,4.51555 -0.12129,1.15597 -0.21885,0.0697 -0.2168,-2.4138 z m 146.74727,-0.56445 c 0.002,-2.17311 0.10453,-2.99294 0.22671,-1.82185 0.12219,1.17109 0.12014,2.94909 -0.005,3.95111 -0.12469,1.00202 -0.22466,0.0438 -0.22216,-2.12926 z m -169.37743,-5.21953 c 3.95817,-0.097 10.43517,-0.097 14.39333,0 3.95817,0.097 0.71967,0.17641 -7.19666,0.17641 -7.91634,0 -11.15484,-0.0794 -7.19667,-0.17641 z m 58.71296,0.0306 c 0.54919,-0.14311 1.31119,-0.1337 1.69333,0.0209 0.38215,0.15462 -0.0672,0.27171 -0.99852,0.26021 -0.93133,-0.0115 -1.24399,-0.13801 -0.69481,-0.28112 z m 29.05815,-0.025 c 1.62983,-0.11402 4.29683,-0.11402 5.92666,0 1.62984,0.11402 0.29634,0.20731 -2.96333,0.20731 -3.25967,0 -4.59317,-0.0933 -2.96333,-0.20731 z m 44.04558,-6.5e-4 c 1.64024,-0.11438 4.18024,-0.11318 5.64445,0.003 1.4642,0.11585 0.12219,0.20943 -2.98226,0.20796 -3.10444,-0.001 -4.30243,-0.0963 -2.66219,-0.21063 z m 32.75413,0.0312 c 0.40746,-0.16305 0.8943,-0.14299 1.08186,0.0446 0.18756,0.18756 -0.14582,0.32096 -0.74084,0.29645 -0.65754,-0.0271 -0.79129,-0.16083 -0.34102,-0.34102 z m 7.02028,-0.004 c 0.54328,-0.14197 1.43228,-0.14197 1.97556,0 0.54328,0.14197 0.0988,0.25813 -0.98778,0.25813 -1.08656,0 -1.53106,-0.11616 -0.98778,-0.25813 z m 34.14889,-0.0242 c 1.31939,-0.11884 3.47839,-0.11884 4.79778,0 1.31939,0.11883 0.23989,0.21606 -2.39889,0.21606 -2.63878,0 -3.71828,-0.0972 -2.39889,-0.21606 z m -102.14552,-7.34128 c 1.64024,-0.11438 4.18024,-0.11318 5.64445,0.003 1.4642,0.11585 0.12219,0.20943 -2.98226,0.20796 -3.10444,-0.001 -4.30243,-0.0962 -2.66219,-0.21063 z m 0.28033,-136.594346 c 1.48398,-0.1166573 3.76998,-0.1152499 5.08,0.00313 1.31002,0.1183775 0.0959,0.2138244 -2.69814,0.2121043 -2.794,-0.00172 -3.86583,-0.098575 -2.38186,-0.2152319 z"
         id="path78" /><path
         style="fill:#d5e2e5"
         d="m 271.61383,183.10662 c 0,-0.11721 0.4445,-0.56171 0.98778,-0.98778 0.89524,-0.70209 0.9152,-0.68213 0.2131,0.21311 -0.73737,0.94023 -1.20088,1.23923 -1.20088,0.77467 z M 366.36849,36.14085 c -0.70209,-0.89524 -0.68213,-0.915205 0.21311,-0.213109 0.94022,0.737373 1.23923,1.200887 0.77467,1.200887 -0.11721,0 -0.56171,-0.4445 -0.98778,-0.987778 z M 348.87071,20.336406 c -0.70209,-0.89524 -0.68213,-0.915205 0.21311,-0.213109 0.94023,0.737373 1.23923,1.200887 0.77467,1.200887 -0.11721,0 -0.56171,-0.4445 -0.98778,-0.987778 z m 13.31523,-3.104444 -2.80101,-2.963333 2.96334,2.801003 c 2.75358,2.602743 3.22218,3.125663 2.801,3.125663 -0.0893,0 -1.42278,-1.3335 -2.96333,-2.963333 z"
         id="path77" /><path
         style="fill:#d1e1e5"
         d="m 282.90272,189.87995 c 0,-0.1172 0.4445,-0.5617 0.98777,-0.98777 0.89524,-0.7021 0.91521,-0.68213 0.21311,0.21311 -0.73737,0.94022 -1.20088,1.23922 -1.20088,0.77466 z m 78.99862,-75.56355 c 1.38403,-1.47461 2.59053,-2.68111 2.68112,-2.68111 0.42383,0 -0.0243,0.50677 -2.51641,2.84581 l -2.68112,2.51641 z M 265.68716,17.373073 c 1.52888,-1.552222 2.90679,-2.822222 3.06201,-2.822222 0.15522,0 -0.96868,1.27 -2.49756,2.822222 -1.52889,1.552222 -2.90679,2.822222 -3.06201,2.822222 -0.15522,0 0.96868,-1.27 2.49756,-2.822222 z"
         id="path76" /><path
         style="fill:#cde0e4"
         d="m 263.89227,190.65751 c 0,-2.01789 0.10244,-2.84339 0.22765,-1.83445 0.12521,1.00895 0.12521,2.65995 0,3.66889 -0.12521,1.00895 -0.22765,0.18345 -0.22765,-1.83444 z m 111.76455,-0.28222 c 0.002,-2.17311 0.10452,-2.99295 0.22671,-1.82186 0.12219,1.17109 0.12014,2.94909 -0.005,3.95111 -0.12469,1.00202 -0.22467,0.0439 -0.22216,-2.12925 z M 233.34165,179.0864 c 0.0115,-0.93134 0.138,-1.244 0.28111,-0.69482 0.14311,0.54919 0.1337,1.31119 -0.0209,1.69334 -0.15462,0.38215 -0.27171,-0.0672 -0.2602,-0.99852 z m 176.24624,-19.47333 c 0,-9.15812 0.0776,-12.90461 0.1725,-8.32556 0.0949,4.57906 0.0949,12.07206 0,16.65111 -0.0949,4.57906 -0.1725,0.83256 -0.1725,-8.32555 z m -206.69517,13.69399 c 1.78506,-0.11202 4.70606,-0.11202 6.49111,0 1.78506,0.11201 0.32456,0.20366 -3.24555,0.20366 -3.57012,0 -5.03062,-0.0916 -3.24556,-0.20366 z m 34.4649,-4.94511 c 0.003,-1.86266 0.10855,-2.55661 0.23417,-1.54211 0.12562,1.0145 0.12303,2.5385 -0.006,3.38667 -0.12879,0.84816 -0.23158,0.0181 -0.22841,-1.84456 z m 53.04431,0.56445 c 0.004,-1.55222 0.11386,-2.12023 0.2436,-1.26224 0.12974,0.85799 0.12627,2.12799 -0.008,2.82222 -0.13397,0.69423 -0.24013,-0.008 -0.23589,-1.55998 z m -102.96232,0.42333 c -0.70209,-0.89524 -0.68213,-0.9152 0.21311,-0.21311 0.54328,0.42607 0.98778,0.87057 0.98778,0.98778 0,0.46456 -0.46351,0.16555 -1.20089,-0.77467 z m 176.88545,-0.98778 c 0.006,-1.24177 0.12185,-1.68331 0.25686,-0.98119 0.13501,0.70212 0.12989,1.71812 -0.0114,2.25777 -0.14128,0.53966 -0.25174,-0.0348 -0.24547,-1.27658 z m 11.3272,-21.73111 c 0,-2.01788 0.10245,-2.84338 0.22766,-1.83444 0.12521,1.00894 0.12521,2.65994 0,3.66889 -0.12521,1.00894 -0.22766,0.18344 -0.22766,-1.83445 z m -111.76575,-0.28222 c 0.003,-1.86266 0.10854,-2.55662 0.23417,-1.54211 0.12562,1.0145 0.12303,2.5385 -0.006,3.38666 -0.1288,0.84817 -0.23158,0.0181 -0.22841,-1.84455 z"
         id="path75" /><path
         style="fill:#cadee3"
         d="m 264.20405,112.34085 c -0.70209,-0.89524 -0.68213,-0.91521 0.21311,-0.21311 0.54328,0.42606 0.98778,0.87056 0.98778,0.98777 0,0.46456 -0.46351,0.16556 -1.20089,-0.77466 z"
         id="path74" /><path
         style="fill:#c5dce1"
         d="m 243.88405,188.54084 c -0.70209,-0.89524 -0.68213,-0.9152 0.21311,-0.21311 0.54328,0.42607 0.98778,0.87057 0.98778,0.98778 0,0.46456 -0.46351,0.16555 -1.20089,-0.77467 z m 178.11851,-30.62111 c 0,-8.22678 0.0789,-11.59227 0.17535,-7.47889 0.0964,4.11339 0.0964,10.84439 0,14.95778 -0.0965,4.11339 -0.17535,0.74789 -0.17535,-7.47889 z m -171.22861,10.39519 c 0.0271,-0.65755 0.16083,-0.7913 0.34101,-0.34102 0.16306,0.40746 0.143,0.89429 -0.0446,1.08185 -0.18756,0.18756 -0.32096,-0.14581 -0.29645,-0.74083 z m -43.93012,-5.73231 c 1.78506,-0.11201 4.70606,-0.11201 6.49111,0 1.78506,0.11202 0.32456,0.20367 -3.24555,0.20367 -3.57011,0 -5.03061,-0.0917 -3.24556,-0.20367 z m 76.28748,-14.96399 -1.07526,-1.27 1.27,1.07526 c 1.19349,1.01048 1.52696,1.46474 1.07526,1.46474 -0.10711,0 -0.67861,-0.5715 -1.27,-1.27 z m -4.1797,-24.09669 c 0,-0.29212 0.25109,-0.68631 0.55797,-0.87598 0.31997,-0.19774 0.41459,0.0288 0.22184,0.53113 -0.37524,0.97786 -0.77981,1.15677 -0.77981,0.34485 z"
         id="path73" /><path
         style="fill:#c1dae0"
         d="m 192.73272,184.59187 c 3.33728,-0.0998 8.79828,-0.0998 12.13556,0 3.33727,0.0998 0.60677,0.18144 -6.06778,0.18144 -6.67456,0 -9.40506,-0.0816 -6.06778,-0.18144 z m 244.14113,0.004 c 1.64024,-0.11438 4.18024,-0.11318 5.64445,0.003 1.4642,0.11585 0.12219,0.20943 -2.98226,0.20796 -3.10444,-0.001 -4.30243,-0.0962 -2.66219,-0.21063 z"
         id="path72" /><path
         style="fill:#bad8df"
         d="m 357.33738,188.54084 c -0.70209,-0.89524 -0.68213,-0.9152 0.21311,-0.21311 0.94022,0.73738 1.23923,1.20089 0.77467,1.20089 -0.11721,0 -0.56171,-0.4445 -0.98778,-0.98778 z"
         id="path71" /><path
         style="fill:#b9d6de"
         d="m 185.4345,190.09306 c 0,-2.01788 0.10244,-2.84338 0.22765,-1.83444 0.12521,1.00894 0.12521,2.65994 0,3.66889 -0.12521,1.00894 -0.22765,0.18344 -0.22765,-1.83445 z m 76.19423,0.28223 c 0.003,-1.86267 0.10855,-2.55662 0.23417,-1.54212 0.12562,1.01451 0.12303,2.53851 -0.006,3.38667 -0.12879,0.84816 -0.23158,0.0181 -0.22841,-1.84455 z m 15.21883,-21.73111 c 0,-1.397 0.11008,-1.9685 0.24461,-1.27 0.13454,0.6985 0.13454,1.8415 0,2.54 -0.13453,0.6985 -0.24461,0.127 -0.24461,-1.27 z m -15.21883,-22.29556 c 0.003,-1.86266 0.10855,-2.55662 0.23417,-1.54211 0.12562,1.0145 0.12303,2.5385 -0.006,3.38666 -0.12879,0.84817 -0.23158,0.0181 -0.22841,-1.84455 z"
         id="path70" /><path
         style="fill:#b5d6dd"
         d="m 350.767,168.64418 c 0,-1.08656 0.11616,-1.53106 0.25813,-0.98778 0.14198,0.54328 0.14198,1.43228 0,1.97555 -0.14197,0.54328 -0.25813,0.0988 -0.25813,-0.98777 z M 381.87399,65.63307 c 0.002,-2.483555 0.10128,-3.429341 0.22052,-2.101746 0.11923,1.327595 0.11756,3.359595 -0.004,4.515555 -0.12129,1.155961 -0.21884,0.06975 -0.21679,-2.413809 z"
         id="path69" /><path
         style="fill:#b1d4dd"
         d="m 243.39161,148.67551 c 0,-0.11721 0.4445,-0.56171 0.98777,-0.98778 0.89524,-0.70209 0.91521,-0.68213 0.21311,0.21311 -0.73737,0.94023 -1.20088,1.23923 -1.20088,0.77467 z m 118.22454,-131.443548 -2.23122,-2.398889 2.39889,2.231219 c 1.31939,1.227171 2.39889,2.306671 2.39889,2.398889 0,0.427046 -0.49154,-2.76e-4 -2.56656,-2.231219 z"
         id="path68" /><path
         style="fill:#abd2db"
         d="m 282.90272,189.31551 c 0,-0.11721 0.4445,-0.56171 0.98777,-0.98778 0.89524,-0.70209 0.91521,-0.68213 0.21311,0.21311 -0.73737,0.94022 -1.20088,1.23923 -1.20088,0.77467 z m 78.99862,-75.56355 c 1.38403,-1.47461 2.59053,-2.68111 2.68112,-2.68111 0.42383,0 -0.0243,0.50677 -2.51641,2.84581 l -2.68112,2.51641 z M 246.41731,65.915293 c 0,-2.949222 0.0951,-4.155722 0.21141,-2.681111 0.11627,1.474611 0.11627,3.887611 0,5.362222 -0.11628,1.474611 -0.21141,0.268111 -0.21141,-2.681111 z m 19.8343,-48.54222 c 1.52888,-1.552222 2.90678,-2.822222 3.062,-2.822222 0.15523,0 -0.96868,1.27 -2.49756,2.822222 -1.52888,1.552222 -2.90678,2.822222 -3.06201,2.822222 -0.15522,0 0.96868,-1.27 2.49757,-2.822222 z"
         id="path67" /><path
         style="fill:#9bd0da"
         d="m 194.39274,194.75155 c 3.93984,-0.0969 10.54384,-0.0971 14.67555,-5.8e-4 4.13171,0.0966 0.90821,0.17584 -7.16335,0.17616 -8.07155,3.3e-4 -11.45205,-0.0787 -7.5122,-0.17558 z m 123.36442,0.008 c 1.31939,-0.11883 3.47839,-0.11883 4.79778,0 1.31938,0.11884 0.23989,0.21607 -2.39889,0.21607 -2.63878,0 -3.71828,-0.0972 -2.39889,-0.21607 z m 115.99333,-0.005 c 2.0955,-0.1086 5.5245,-0.1086 7.62,0 2.0955,0.1086 0.381,0.19746 -3.81,0.19746 -4.191,0 -5.9055,-0.0889 -3.81,-0.19746 z m -55.84045,-4.09699 c 0,-2.01789 0.10245,-2.84339 0.22765,-1.83445 0.12521,1.00895 0.12521,2.65995 0,3.66889 -0.1252,1.00895 -0.22765,0.18345 -0.22765,-1.83444 z m 68.29778,-0.56445 c 0,-2.01788 0.10244,-2.84338 0.22765,-1.83444 0.12521,1.00894 0.12521,2.65994 0,3.66889 -0.12521,1.00894 -0.22765,0.18344 -0.22765,-1.83445 z M 219.7295,179.03936 c 0.0271,-0.65754 0.16084,-0.79129 0.34102,-0.34102 0.16305,0.40746 0.143,0.89429 -0.0446,1.08185 -0.18756,0.18756 -0.32097,-0.14581 -0.29646,-0.74083 z m 190.21777,-2.25778 c 0.0271,-0.65754 0.16083,-0.79129 0.34102,-0.34102 0.16305,0.40746 0.143,0.8943 -0.0446,1.08186 -0.18756,0.18756 -0.32097,-0.14582 -0.29646,-0.74084 z m -19.64638,-8.1374 c 0,-1.397 0.11007,-1.9685 0.24461,-1.27 0.13454,0.6985 0.13454,1.8415 0,2.54 -0.13454,0.6985 -0.24461,0.127 -0.24461,-1.27 z M 183.04062,157.59047 c 0.0271,-0.65754 0.16083,-0.79129 0.34101,-0.34102 0.16306,0.40746 0.143,0.8943 -0.0446,1.08186 -0.18756,0.18756 -0.32096,-0.14582 -0.29645,-0.74084 z m 13.02678,-0.23518 c 0,-0.77611 0.12811,-1.09361 0.2847,-0.70556 0.15658,0.38806 0.15658,1.02306 0,1.41111 -0.15659,0.38806 -0.2847,0.0706 -0.2847,-0.70555 z m 13.03421,-5.50151 c 3.64772,-0.0983 9.61672,-0.0983 13.26444,0 3.64772,0.0983 0.66322,0.17876 -6.63222,0.17876 -7.29544,0 -10.27994,-0.0804 -6.63222,-0.17876 z m 20.92855,-4.94071 c 0.002,-2.17311 0.10452,-2.99295 0.22671,-1.82186 0.12219,1.17109 0.12014,2.94909 -0.005,3.95111 -0.12469,1.00202 -0.22467,0.0439 -0.22216,-2.12925 z m 147.87412,-0.56445 c 0.003,-1.86266 0.10854,-2.55662 0.23417,-1.54211 0.12562,1.0145 0.12303,2.5385 -0.006,3.38666 -0.12879,0.84817 -0.23158,0.0181 -0.22841,-1.84455 z m -169.8987,-4.65533 c 3.97624,-0.0972 10.32624,-0.0969 14.11111,6.2e-4 3.78487,0.0975 0.53158,0.17701 -7.22953,0.17666 -7.76111,-3.4e-4 -10.85782,-0.0801 -6.88158,-0.17728 z m 58.6801,0.0308 c 0.54919,-0.14311 1.31119,-0.1337 1.69333,0.0209 0.38215,0.15461 -0.0672,0.2717 -0.99852,0.2602 -0.93133,-0.0115 -1.24399,-0.138 -0.69481,-0.28112 z m 29.34037,-0.0237 c 1.47461,-0.11628 3.88761,-0.11628 5.36222,0 1.47461,0.11627 0.26811,0.21141 -2.68111,0.21141 -2.94922,0 -4.15572,-0.0951 -2.68111,-0.21141 z m 43.46222,0 c 1.47461,-0.11628 3.88761,-0.11628 5.36222,0 1.47461,0.11627 0.26811,0.21141 -2.68111,0.21141 -2.94922,0 -4.15572,-0.0951 -2.68111,-0.21141 z m 33.05527,0.0293 c 0.40746,-0.16305 0.8943,-0.143 1.08186,0.0446 0.18756,0.18756 -0.14582,0.32097 -0.74084,0.29646 -0.65754,-0.0271 -0.79129,-0.16084 -0.34102,-0.34102 z m 7.59547,-0.006 c 0.54918,-0.14311 1.31118,-0.1337 1.69333,0.0209 0.38215,0.15461 -0.0672,0.2717 -0.99852,0.2602 -0.93133,-0.0115 -1.244,-0.138 -0.69481,-0.28112 z m 33.58862,-0.0229 c 1.32759,-0.11924 3.35959,-0.11756 4.51555,0.004 1.15597,0.12128 0.0697,0.21884 -2.4138,0.21679 -2.48356,-0.002 -3.42935,-0.10128 -2.10175,-0.22052 z m -102.46158,-8.46754 c 1.47461,-0.11627 3.88761,-0.11627 5.36222,0 1.47461,0.11628 0.26811,0.21141 -2.68111,0.21141 -2.94922,0 -4.15572,-0.0951 -2.68111,-0.21141 z m 0.58147,-135.4673516 c 1.48398,-0.1166573 3.76998,-0.1152499 5.08,0.00313 1.31002,0.1183775 0.0959,0.2138245 -2.69814,0.2121043 -2.794,-0.00172 -3.86583,-0.098574 -2.38186,-0.2152319 z"
         id="path66" /><path
         style="fill:#99cbd6"
         d="m 282.83072,147.90084 c -0.7021,-0.89524 -0.68213,-0.9152 0.21311,-0.21311 0.94022,0.73738 1.23922,1.20089 0.77467,1.20089 -0.11721,0 -0.56171,-0.4445 -0.98778,-0.98778 z"
         id="path65" /><path
         style="fill:#93cad6"
         d="m 264.45671,190.65751 c 0,-2.01789 0.10245,-2.84339 0.22766,-1.83445 0.12521,1.00895 0.12521,2.65995 0,3.66889 -0.12521,1.00895 -0.22766,0.18345 -0.22766,-1.83444 z m 110.62535,-0.28222 c 0.003,-1.86267 0.10854,-2.55662 0.23417,-1.54212 0.12562,1.01451 0.12303,2.53851 -0.006,3.38667 -0.1288,0.84816 -0.23158,0.0181 -0.22841,-1.84455 z M 232.7772,179.0864 c 0.0115,-0.93134 0.13801,-1.244 0.28112,-0.69482 0.14311,0.54919 0.1337,1.31119 -0.0209,1.69334 -0.15461,0.38215 -0.2717,-0.0672 -0.2602,-0.99852 z m 177.37513,-19.47333 c 0,-9.15812 0.0776,-12.90461 0.1725,-8.32556 0.0949,4.57906 0.0949,12.07206 0,16.65111 -0.0949,4.57906 -0.1725,0.83256 -0.1725,-8.32555 z m -207.51971,13.12817 c 1.95244,-0.11053 5.00044,-0.10962 6.77333,0.002 1.77289,0.11166 0.17544,0.20209 -3.5499,0.20098 -3.72533,-0.001 -5.17588,-0.0925 -3.22343,-0.20301 z m 35.29521,-4.09706 c 0,-2.01789 0.10244,-2.84339 0.22765,-1.83445 0.12521,1.00895 0.12521,2.65995 0,3.66889 -0.12521,1.00894 -0.22765,0.18344 -0.22765,-1.83444 z m 51.90966,0.28222 c 0.004,-1.55222 0.11385,-2.12023 0.24359,-1.26224 0.12974,0.85799 0.12628,2.12799 -0.008,2.82222 -0.13398,0.69423 -0.24013,-0.008 -0.23589,-1.55998 z m 73.92312,-0.56445 c 0.006,-1.24177 0.12186,-1.68331 0.25687,-0.98119 0.13501,0.70212 0.12988,1.71812 -0.0114,2.25777 -0.14128,0.53966 -0.25174,-0.0348 -0.24548,-1.27658 z m -99.30966,-22.01333 c 0.003,-1.86266 0.10855,-2.55662 0.23417,-1.54211 0.12562,1.0145 0.12303,2.5385 -0.006,3.38666 -0.12879,0.84817 -0.23157,0.0181 -0.22841,-1.84455 z m 110.63111,0 c 0.003,-1.86266 0.10854,-2.55662 0.23417,-1.54211 0.12562,1.0145 0.12303,2.5385 -0.006,3.38666 -0.1288,0.84817 -0.23158,0.0181 -0.22841,-1.84455 z"
         id="path64" /><path
         style="fill:#8ec8d5"
         d="m 395.7916,189.31551 c 0,-0.11721 0.4445,-0.56171 0.98778,-0.98778 0.89524,-0.70209 0.9152,-0.68213 0.21311,0.21311 -0.73738,0.94022 -1.20089,1.23923 -1.20089,0.77467 z"
         id="path63" /><path
         style="fill:#8ac6d3"
         d="m 357.33738,187.9764 c -0.70209,-0.89524 -0.68213,-0.91521 0.21311,-0.21311 0.94022,0.73737 1.23923,1.20089 0.77467,1.20089 -0.11721,0 -0.56171,-0.4445 -0.98778,-0.98778 z"
         id="path62" /><path
         style="fill:#85c4d2"
         d="m 421.43866,158.20195 c -3e-4,-8.382 0.0782,-11.88968 0.17457,-7.79485 0.0963,4.09483 0.0966,10.95283 5.5e-4,15.24 -0.096,4.28717 -0.17481,0.93685 -0.17512,-7.44515 z m -171.16368,10.16 c 0.0115,-0.93133 0.138,-1.244 0.28111,-0.69481 0.14312,0.54919 0.1337,1.31119 -0.0209,1.69333 -0.15461,0.38215 -0.27171,-0.0672 -0.2602,-0.99852 z M 206.3,163.14644 c 1.79639,-0.11235 4.59039,-0.11131 6.20888,0.002 1.6185,0.11363 0.14873,0.20555 -3.26616,0.20428 -3.41489,-0.001 -4.73911,-0.0942 -2.94272,-0.2066 z"
         id="path61" /><path
         style="fill:#81c2d1"
         d="m 193.29717,185.15631 c 3.33727,-0.0998 8.79827,-0.0998 12.13555,0 3.33728,0.0998 0.60678,0.18144 -6.06778,0.18144 -6.67455,0 -9.40505,-0.0816 -6.06777,-0.18144 z m 242.99332,0.005 c 1.62983,-0.11402 4.29683,-0.11402 5.92666,0 1.62984,0.11402 0.29634,0.2073 -2.96333,0.2073 -3.25967,0 -4.59317,-0.0933 -2.96333,-0.2073 z m -74.93,-167.506085 c -1.37105,-1.397 -2.36582,-2.54 -2.2106,-2.54 0.15522,0 1.40399,1.143 2.77504,2.54 1.37106,1.397 2.36583,2.54 2.2106,2.54 -0.15522,0 -1.40399,-1.143 -2.77504,-2.54 z"
         id="path60" /><path
         style="fill:#78bece"
         d="m 185.99894,190.09306 c 0,-2.01788 0.10244,-2.84338 0.22765,-1.83444 0.12521,1.00894 0.12521,2.65994 0,3.66889 -0.12521,1.00894 -0.22765,0.18344 -0.22765,-1.83445 z m 75.06535,0.28223 c 0.003,-1.86267 0.10854,-2.55662 0.23416,-1.54212 0.12563,1.01451 0.12304,2.53851 -0.006,3.38667 -0.12879,0.84816 -0.23157,0.0181 -0.2284,-1.84455 z m 16.35542,-22.01334 c 0.004,-1.55222 0.11386,-2.12023 0.2436,-1.26224 0.12974,0.858 0.12627,2.128 -0.008,2.82223 -0.13398,0.69423 -0.24013,-0.008 -0.23589,-1.55999 z m -16.35542,-22.01333 c 0.003,-1.86266 0.10854,-2.55662 0.23416,-1.54211 0.12563,1.0145 0.12304,2.5385 -0.006,3.38666 -0.12879,0.84817 -0.23157,0.0181 -0.2284,-1.84455 z m 99.16731,-31.50328 c 0,-0.0971 0.8255,-0.92264 1.83445,-1.83445 l 1.83444,-1.65782 -1.65783,1.83444 c -1.54532,1.70996 -2.01106,2.09389 -2.01106,1.65783 z M 266.53383,17.655295 c 1.05313,-1.086555 2.04178,-1.975555 2.197,-1.975555 0.15523,0 -0.57943,0.889 -1.63256,1.975555 -1.05313,1.086556 -2.04178,1.975556 -2.197,1.975556 -0.15523,0 0.57943,-0.889 1.63256,-1.975556 z"
         id="path59" /><path
         style="fill:#73bdce"
         d="m 351.28961,168.64418 c 0,-0.77611 0.12812,-1.09361 0.2847,-0.70556 0.15658,0.38806 0.15658,1.02306 0,1.41111 -0.15658,0.38806 -0.2847,0.0706 -0.2847,-0.70555 z M 381.30126,65.63307 c 0.003,-2.173111 0.10453,-2.992945 0.22671,-1.821854 0.12219,1.171091 0.12014,2.94909 -0.005,3.951111 -0.12469,1.00202 -0.22466,0.04385 -0.22216,-2.129257 z"
         id="path58" /><path
         style="fill:#64b8cb"
         d="m 246.97863,65.63307 c -0.002,-2.793999 0.0937,-4.008163 0.2121,-2.698142 0.11838,1.310022 0.11979,3.596022 0.003,5.08 -0.11666,1.483978 -0.21351,0.412142 -0.21523,-2.381858 z"
         id="path57" /><path
         style="fill:#51b5c9"
         d="m 194.39274,194.18711 c 3.93984,-0.0969 10.54384,-0.0971 14.67555,-5.9e-4 4.13171,0.0966 0.90821,0.17585 -7.16335,0.17617 -8.07155,3.2e-4 -11.45205,-0.0787 -7.5122,-0.17558 z m 123.36442,0.008 c 1.31939,-0.11884 3.47839,-0.11884 4.79778,0 1.31938,0.11884 0.23989,0.21606 -2.39889,0.21606 -2.63878,0 -3.71828,-0.0972 -2.39889,-0.21606 z m 116.58124,-0.006 c 2.10842,-0.1089 5.41042,-0.10809 7.33778,0.002 1.92737,0.10988 0.20231,0.19898 -3.83347,0.19799 -4.03578,-9.9e-4 -5.61272,-0.0909 -3.50431,-0.19979 z m -55.86967,-3.81423 c 0.003,-1.86267 0.10854,-2.55662 0.23416,-1.54212 0.12563,1.01451 0.12303,2.53851 -0.006,3.38667 -0.12879,0.84816 -0.23157,0.0181 -0.2284,-1.84455 z m 67.17464,-0.28223 c 0,-2.01788 0.10245,-2.84338 0.22765,-1.83444 0.12521,1.00894 0.12521,2.65994 0,3.66889 -0.1252,1.00894 -0.22765,0.18344 -0.22765,-1.83445 z m -225.34942,-11.0537 c 0.0271,-0.65754 0.16083,-0.79129 0.34102,-0.34102 0.16305,0.40746 0.14299,0.89429 -0.0446,1.08185 -0.18756,0.18756 -0.32096,-0.14581 -0.29645,-0.74083 z m 170.57909,-10.67741 c 0.004,-1.55222 0.11385,-2.12023 0.24359,-1.26224 0.12974,0.858 0.12628,2.128 -0.008,2.82223 -0.13398,0.69423 -0.24013,-0.008 -0.23589,-1.55999 z M 195.50295,157.35529 c 0,-0.77611 0.12812,-1.09361 0.2847,-0.70556 0.15659,0.38806 0.15659,1.02306 0,1.41111 -0.15658,0.38806 -0.2847,0.0706 -0.2847,-0.70555 z m 13.34881,-6.06635 c 3.82074,-0.0978 9.91674,-0.0975 13.54666,6.7e-4 3.62992,0.0982 0.50385,0.17818 -6.94681,0.17781 -7.45067,-3.6e-4 -10.4206,-0.0807 -6.59985,-0.17848 z m 20.61395,-4.37587 c 0.003,-2.17311 0.10453,-2.99295 0.22672,-1.82186 0.12219,1.17109 0.12014,2.94909 -0.005,3.95111 -0.12469,1.00202 -0.22466,0.0439 -0.22216,-2.12925 z m 149.00302,-0.56445 c 0.003,-1.86266 0.10854,-2.55662 0.23416,-1.54211 0.12563,1.0145 0.12303,2.5385 -0.006,3.38666 -0.12879,0.84817 -0.23157,0.0181 -0.2284,-1.84455 z m -170.21379,-4.09053 c 3.80295,-0.0977 10.02595,-0.0977 13.82889,0 3.80294,0.0977 0.69144,0.17755 -6.91444,0.17755 -7.60589,0 -10.71739,-0.0799 -6.91445,-0.17755 z m 58.13778,0.0478 c 0.38805,-0.15658 1.02305,-0.15658 1.41111,0 0.38805,0.15659 0.0705,0.2847 -0.70556,0.2847 -0.77611,0 -1.09361,-0.12811 -0.70555,-0.2847 z m 30.2148,-0.0418 c 1.48398,-0.11666 3.76998,-0.11525 5.08,0.003 1.31003,0.11837 0.0959,0.21382 -2.69814,0.2121 -2.794,-0.002 -3.86583,-0.0986 -2.38186,-0.21523 z m 42.88075,6.9e-4 c 1.47461,-0.11627 3.88761,-0.11627 5.36222,0 1.47461,0.11628 0.26811,0.21141 -2.68111,0.21141 -2.94922,0 -4.15572,-0.0951 -2.68111,-0.21141 z m 40.35777,0.0411 c 0.38806,-0.15658 1.02306,-0.15658 1.41112,0 0.38805,0.15659 0.0706,0.2847 -0.70556,0.2847 -0.77611,0 -1.09361,-0.12811 -0.70556,-0.2847 z m 33.88159,-0.0402 c 1.32759,-0.11924 3.35959,-0.11756 4.51555,0.004 1.15597,0.12129 0.0697,0.21885 -2.4138,0.2168 -2.48356,-0.002 -3.42935,-0.10129 -2.10175,-0.22052 z m -101.88011,-9.59713 c 1.48398,-0.11665 3.76998,-0.11525 5.08,0.003 1.31002,0.11838 0.0959,0.21383 -2.69814,0.21211 -2.794,-0.002 -3.86583,-0.0986 -2.38186,-0.21524 z M 311.54827,-1.6668817 c 1.31939,-0.1188352 3.47839,-0.1188352 4.79778,0 1.31939,0.1188352 0.23989,0.216064 -2.39889,0.216064 -2.63878,0 -3.71828,-0.097229 -2.39889,-0.216064 z"
         id="path56" /><path
         style="fill:#4bb1c6"
         d="m 265.0154,190.37529 c 0.003,-1.86267 0.10854,-2.55662 0.23417,-1.54212 0.12562,1.01451 0.12303,2.53851 -0.006,3.38667 -0.1288,0.84816 -0.23158,0.0181 -0.22841,-1.84455 z m 109.50222,0 c 0.003,-1.86267 0.10854,-2.55662 0.23416,-1.54212 0.12563,1.01451 0.12303,2.53851 -0.006,3.38667 -0.12879,0.84816 -0.23157,0.0181 -0.2284,-1.84455 z m 40.69368,-0.98778 -1.07526,-1.27 1.27,1.07526 c 0.6985,0.59139 1.27,1.16289 1.27,1.27 0,0.4517 -0.45426,0.11822 -1.46474,-1.07526 z m -142.46858,-5.71644 c 0,-0.11721 0.4445,-0.56171 0.98777,-0.98778 0.89524,-0.7021 0.91521,-0.68213 0.21311,0.21311 -0.73737,0.94022 -1.20088,1.23922 -1.20088,0.77467 z m -40.52996,-4.58467 c 0.0115,-0.93134 0.138,-1.244 0.28111,-0.69482 0.14311,0.54919 0.1337,1.31119 -0.0209,1.69334 -0.15462,0.38215 -0.27171,-0.0672 -0.2602,-0.99852 z m 178.50402,-19.47333 c 0,-9.15812 0.0776,-12.90461 0.1725,-8.32556 0.0949,4.57906 0.0949,12.07206 0,16.65111 -0.0949,4.57906 -0.1725,0.83256 -0.1725,-8.32555 z m -207.80059,12.56312 c 2.10842,-0.1089 5.41041,-0.10809 7.33778,0.002 1.92737,0.10989 0.20231,0.19899 -3.83347,0.198 -4.03578,-9.9e-4 -5.61272,-0.0909 -3.50431,-0.19979 z m 187.83997,-0.47461 c 0.0271,-0.65754 0.16083,-0.79129 0.34102,-0.34102 0.16305,0.40746 0.143,0.8943 -0.0446,1.08186 -0.18756,0.18756 -0.32097,-0.14582 -0.29646,-0.74084 z m -152.26389,-3.0574 c 0,-2.01789 0.10244,-2.84339 0.22765,-1.83445 0.12521,1.00895 0.12521,2.65995 0,3.66889 -0.12521,1.00894 -0.22765,0.18344 -0.22765,-1.83444 z m 50.78077,0.28222 c 0.004,-1.55222 0.11386,-2.12023 0.2436,-1.26224 0.12974,0.85799 0.12627,2.12799 -0.008,2.82222 -0.13397,0.69423 -0.24012,-0.008 -0.23589,-1.55998 z m 73.95569,-0.56445 c 0.003,-1.86266 0.10854,-2.55661 0.23416,-1.54211 0.12563,1.0145 0.12303,2.5385 -0.006,3.38667 -0.12879,0.84816 -0.23157,0.0181 -0.2284,-1.84456 z M 216.72161,163.7548 c 0.38805,-0.15658 1.02305,-0.15658 1.41111,0 0.38805,0.15658 0.0705,0.2847 -0.70556,0.2847 -0.77611,0 -1.09361,-0.12812 -0.70555,-0.2847 z m 27.23444,-14.51484 c 0,-0.11721 0.4445,-0.56171 0.98778,-0.98778 0.89524,-0.7021 0.9152,-0.68213 0.21311,0.21311 -0.73738,0.94022 -1.20089,1.23922 -1.20089,0.77467 z m 21.05935,-2.89134 c 0.003,-1.86266 0.10854,-2.55662 0.23417,-1.54211 0.12562,1.0145 0.12303,2.5385 -0.006,3.38666 -0.1288,0.84817 -0.23158,0.0181 -0.22841,-1.84455 z m 109.50222,0 c 0.003,-1.86266 0.10854,-2.55662 0.23416,-1.54211 0.12563,1.0145 0.12303,2.5385 -0.006,3.38666 -0.12879,0.84817 -0.23157,0.0181 -0.2284,-1.84455 z M 366.93294,35.011961 c -0.7021,-0.89524 -0.68214,-0.915205 0.2131,-0.213109 0.54328,0.426068 0.98778,0.870568 0.98778,0.987778 0,0.464557 -0.46351,0.165553 -1.20088,-0.774669 z M 361.36049,18.21974 c -1.37105,-1.397 -2.36582,-2.54 -2.2106,-2.54 0.15522,0 1.40399,1.143 2.77504,2.54 1.37106,1.397 2.36583,2.539999 2.2106,2.539999 -0.15522,0 -1.40399,-1.142999 -2.77504,-2.539999 z m -11.92533,0.987777 c -0.7021,-0.89524 -0.68213,-0.915204 0.21311,-0.213109 0.94022,0.737373 1.23922,1.200887 0.77467,1.200887 -0.11721,0 -0.56171,-0.4445 -0.98778,-0.987778 z"
         id="path55" /><path
         style="fill:#42adc4"
         d="m 351.8095,172.83047 c 0.0271,-0.65754 0.16083,-0.79129 0.34101,-0.34102 0.16306,0.40746 0.143,0.8943 -0.0446,1.08186 -0.18756,0.18756 -0.32096,-0.14582 -0.29645,-0.74084 z m 69.06527,-14.34629 c 0,-8.53723 0.0784,-12.02972 0.17434,-7.76111 0.0959,4.26861 0.0959,11.25361 0,15.52222 -0.0959,4.26861 -0.17434,0.77611 -0.17434,-7.76111 z m -171.16424,9.87777 c 0.0115,-0.93133 0.13801,-1.244 0.28112,-0.69481 0.14311,0.54919 0.1337,1.31119 -0.0209,1.69333 -0.15462,0.38215 -0.27171,-0.0672 -0.26021,-0.99852 z m -61.70647,-0.14111 c -0.7021,-0.89524 -0.68213,-0.9152 0.21311,-0.21311 0.54327,0.42607 0.98777,0.87057 0.98777,0.98778 0,0.46456 -0.46351,0.16556 -1.20088,-0.77467 z m 163.80544,-3.85703 c 0.0271,-0.65755 0.16083,-0.7913 0.34101,-0.34102 0.16306,0.40746 0.143,0.89429 -0.0446,1.08185 -0.18756,0.18756 -0.32096,-0.14582 -0.29645,-0.74083 z m -145.22577,-0.65368 c 1.95244,-0.11053 5.00044,-0.10962 6.77333,0.002 1.77289,0.11165 0.17544,0.20209 -3.5499,0.20098 -3.72533,-10e-4 -5.17588,-0.0925 -3.22343,-0.20301 z M 395.7196,148.46529 c -0.70209,-0.89524 -0.68213,-0.91521 0.21311,-0.21311 0.94022,0.73737 1.23923,1.20089 0.77467,1.20089 -0.11721,0 -0.56171,-0.4445 -0.98778,-0.98778 z m -34.64133,-35.13667 c 1.21256,-1.24177 2.33166,-2.25777 2.48688,-2.25777 0.15522,0 -0.70987,1.016 -1.92244,2.25777 -1.21256,1.24178 -2.33166,2.25778 -2.48688,2.25778 -0.15522,0 0.70987,-1.016 1.92244,-2.25778 z m 19.51789,-53.387031 c 0.0271,-0.657545 0.16083,-0.791294 0.34102,-0.341018 0.16305,0.407458 0.143,0.894291 -0.0446,1.081852 -0.18756,0.18756 -0.32097,-0.145815 -0.29646,-0.740834 z M 353.95071,23.158628 c -0.70209,-0.89524 -0.68213,-0.915205 0.21311,-0.213109 0.54328,0.426068 0.98778,0.870568 0.98778,0.987778 0,0.464557 -0.46351,0.165553 -1.20089,-0.774669 z m -87.44047,-4.797777 c 2.33904,-2.49213 2.84581,-2.940244 2.84581,-2.516411 0,0.09058 -1.2065,1.297085 -2.68111,2.681111 l -2.68111,2.516411 z"
         id="path54" /><path
         style="fill:#3babc2"
         d="m 227.02272,191.00884 c 0,-0.11721 0.4445,-0.56171 0.98778,-0.98777 0.89524,-0.7021 0.9152,-0.68214 0.21311,0.21311 -0.73738,0.94022 -1.20089,1.23922 -1.20089,0.77466 z m -33.44333,-5.28825 c 3.4925,-0.099 9.2075,-0.099 12.7,0 3.4925,0.099 0.635,0.18006 -6.35,0.18006 -6.985,0 -9.8425,-0.081 -6.35,-0.18006 z m 242.44948,0.004 c 1.79639,-0.11235 4.59039,-0.11131 6.20889,0.002 1.6185,0.11362 0.14873,0.20555 -3.26616,0.20427 -3.41489,-0.001 -4.73912,-0.0942 -2.94273,-0.20659 z m -33.98382,-20.23153 c 0.0271,-0.65754 0.16083,-0.79129 0.34102,-0.34101 0.16305,0.40745 0.143,0.89429 -0.0446,1.08185 -0.18756,0.18756 -0.32097,-0.14582 -0.29646,-0.74084 z M 197.56578,142.8586 c 0.40745,-0.16305 0.89429,-0.143 1.08185,0.0446 0.18756,0.18756 -0.14582,0.32096 -0.74084,0.29646 -0.65754,-0.0271 -0.79129,-0.16084 -0.34101,-0.34102 z m 67.20272,-31.64664 c -0.7021,-0.89524 -0.68213,-0.91521 0.21311,-0.21311 0.54327,0.42607 0.98777,0.87057 0.98777,0.98778 0,0.46455 -0.46351,0.16555 -1.20088,-0.77467 z"
         id="path53" /><path
         style="fill:#34a8c1"
         d="m 186.56339,190.09306 c 0,-2.01788 0.10244,-2.84338 0.22765,-1.83444 0.12521,1.00894 0.12521,2.65994 0,3.66889 -0.12521,1.00894 -0.22765,0.18344 -0.22765,-1.83445 z m 73.93645,0.28223 c 0.003,-1.86267 0.10855,-2.55662 0.23417,-1.54212 0.12562,1.01451 0.12303,2.53851 -0.006,3.38667 -0.12879,0.84816 -0.23157,0.0181 -0.22841,-1.84455 z m 17.48432,-22.01334 c 0.004,-1.55222 0.11385,-2.12023 0.24359,-1.26224 0.12974,0.858 0.12627,2.128 -0.008,2.82223 -0.13398,0.69423 -0.24013,-0.008 -0.23589,-1.55999 z m 73.93451,0.28223 c 0,-1.397 0.11007,-1.9685 0.24461,-1.27 0.13454,0.6985 0.13454,1.8415 0,2.54 -0.13454,0.6985 -0.24461,0.127 -0.24461,-1.27 z m -91.41883,-22.29556 c 0.003,-1.86266 0.10855,-2.55662 0.23417,-1.54211 0.12562,1.0145 0.12303,2.5385 -0.006,3.38666 -0.12879,0.84817 -0.23157,0.0181 -0.22841,-1.84455 z m 21.76643,2.11667 c -0.70209,-0.89524 -0.68213,-0.91521 0.21311,-0.21311 0.94022,0.73737 1.23923,1.20089 0.77467,1.20089 -0.11721,0 -0.56171,-0.4445 -0.98778,-0.98778 z M 380.7451,65.63307 c 0.002,-2.483555 0.10128,-3.429341 0.22052,-2.101746 0.11923,1.327595 0.11756,3.359595 -0.004,4.515555 -0.12129,1.155961 -0.21884,0.06975 -0.21679,-2.413809 z"
         id="path52" /><path
         style="fill:#2aa5be"
         d="m 247.53622,65.068626 c 0.002,-2.483555 0.10128,-3.429341 0.22052,-2.101747 0.11923,1.327595 0.11755,3.359595 -0.004,4.515556 -0.12129,1.15596 -0.21884,0.06975 -0.21679,-2.413809 z"
         id="path51" /><path
         style="fill:#23a3bd"
         d="m 273.58938,183.31973 c 0.5619,-0.62089 1.14863,-1.12889 1.30386,-1.12889 0.15522,0 -0.17752,0.508 -0.73941,1.12889 -0.5619,0.62089 -1.14863,1.12889 -1.30385,1.12889 -0.15523,0 0.17751,-0.508 0.7394,-1.12889 z m -20.60222,-28.99977 c 0,-0.11721 0.4445,-0.56171 0.98778,-0.98778 0.89524,-0.7021 0.9152,-0.68213 0.21311,0.21311 -0.73737,0.94022 -1.20089,1.23922 -1.20089,0.77467 z m -8.18444,-5.43134 c 0.56189,-0.62089 1.14863,-1.12889 1.30385,-1.12889 0.15522,0 -0.17751,0.508 -0.73941,1.12889 -0.56189,0.62089 -1.14863,1.12889 -1.30385,1.12889 -0.15522,0 0.17751,-0.508 0.73941,-1.12889 z m 122.99525,-113.594437 -1.07526,-1.27 1.27,1.07526 c 1.19349,1.010479 1.52696,1.46474 1.07526,1.46474 -0.10711,0 -0.67861,-0.5715 -1.27,-1.27 z m -5.94503,-5.362222 c -0.7021,-0.89524 -0.68214,-0.915205 0.21311,-0.213109 0.94022,0.737373 1.23922,1.200887 0.77466,1.200887 -0.11721,0 -0.56171,-0.4445 -0.98777,-0.987778 z m -5.64445,-5.079999 c -0.70209,-0.895241 -0.68213,-0.915205 0.21311,-0.213109 0.54328,0.426067 0.98778,0.870567 0.98778,0.987777 0,0.464557 -0.46351,0.165554 -1.20089,-0.774668 z m 4.56827,-6.773333 -3.08516,-3.245556 3.24556,3.085163 c 1.78505,1.696839 3.24555,3.157339 3.24555,3.245555 0,0.418961 -0.53973,-0.06994 -3.40595,-3.085162 z m -11.04101,0.846666 -1.07526,-1.27 1.27,1.07526 c 1.19349,1.010478 1.52696,1.46474 1.07526,1.46474 -0.10711,0 -0.67861,-0.5715 -1.27,-1.27 z"
         id="path50" /><path
         style="fill:#1da1bc"
         d="m 360.77246,113.18751 c 2.33903,-2.49213 2.84581,-2.94024 2.84581,-2.51641 0,0.0906 -1.2065,1.29709 -2.68111,2.68111 l -2.68111,2.51641 z m -6.2573,-90.028882 c -0.7021,-0.89524 -0.68213,-0.915205 0.21311,-0.213109 0.54328,0.426068 0.98778,0.870568 0.98778,0.987778 0,0.464557 -0.46352,0.165553 -1.20089,-0.774669 z m -87.69911,-4.656666 c 1.52888,-1.552222 2.90679,-2.822222 3.06201,-2.822222 0.15522,0 -0.96868,1.27 -2.49757,2.822222 -1.52888,1.552222 -2.90678,2.822222 -3.062,2.822222 -0.15522,0 0.96868,-1.27 2.49756,-2.822222 z"
         id="path49" /><path
         style="fill:#19a1bc"
         d="m 194.39274,193.62267 c 3.93984,-0.0969 10.54384,-0.0972 14.67555,-5.9e-4 4.13171,0.0966 0.90821,0.17584 -7.16335,0.17616 -8.07155,3.3e-4 -11.45205,-0.0787 -7.5122,-0.17557 z m 123.36442,0.008 c 1.31939,-0.11884 3.47839,-0.11884 4.79778,0 1.31938,0.11883 0.23989,0.21606 -2.39889,0.21606 -2.63878,0 -3.71828,-0.0972 -2.39889,-0.21606 z m 119.77601,-6.9e-4 7.31207,-0.18287 0.21524,-3.51158 0.21524,-3.51157 -0.0476,3.66888 -0.0476,3.66889 -7.4797,0.0256 -7.47969,0.0256 z m -58.5,-3.25491 c 0.003,-1.86267 0.10854,-2.55662 0.23417,-1.54212 0.12562,1.01451 0.12303,2.53851 -0.006,3.38667 -0.12879,0.84816 -0.23158,0.0181 -0.22841,-1.84455 z M 220.85839,179.03936 c 0.0271,-0.65754 0.16083,-0.79129 0.34102,-0.34102 0.16305,0.40746 0.143,0.89429 -0.0446,1.08185 -0.18756,0.18756 -0.32097,-0.14581 -0.29646,-0.74083 z m 170.57139,-10.39518 c 0,-1.397 0.11007,-1.9685 0.24461,-1.27 0.13454,0.6985 0.13454,1.8415 0,2.54 -0.13454,0.6985 -0.24461,0.127 -0.24461,-1.27 z M 194.93851,157.35529 c 0,-0.77611 0.12811,-1.09361 0.2847,-0.70556 0.15658,0.38806 0.15658,1.02306 0,1.41111 -0.15659,0.38806 -0.2847,0.0706 -0.2847,-0.70555 z m 20.93643,-6.62702 12.84111,-0.16712 v -3.64845 -3.64845 l -13.68777,-0.16684 -13.68778,-0.16684 13.82889,0.0157 13.82888,0.0157 v 3.95111 3.95111 l -12.98222,0.0156 -12.98222,0.0156 z m 142.09888,-1.48831 c 0,-0.11721 0.4445,-0.56171 0.98778,-0.98778 0.89524,-0.7021 0.91521,-0.68213 0.21311,0.21311 -0.73737,0.94022 -1.20089,1.23922 -1.20089,0.77467 z m 21.12027,-3.02962 c 0.0436,-3.05042 0.1324,-3.25402 1.45751,-3.34084 1.19028,-0.078 1.21661,-0.0503 0.16821,0.17681 -1.06031,0.22972 -1.27442,0.72049 -1.45751,3.34084 l -0.21461,3.07157 z m -112.70137,-3.33998 c 0.38805,-0.15659 1.02305,-0.15659 1.41111,0 0.38805,0.15658 0.0705,0.28469 -0.70556,0.28469 -0.77611,0 -1.09361,-0.12811 -0.70555,-0.28469 z m 30.2148,-0.0418 c 1.48398,-0.11665 3.76998,-0.11525 5.08,0.003 1.31003,0.11838 0.0959,0.21383 -2.69814,0.2121 -2.794,-0.002 -3.86583,-0.0986 -2.38186,-0.21523 z m 42.89778,0 c 1.48398,-0.11665 3.76998,-0.11525 5.08,0.003 1.31002,0.11838 0.0959,0.21383 -2.69814,0.2121 -2.794,-0.002 -3.86584,-0.0986 -2.38186,-0.21523 z m 74.22233,0.002 c 1.32759,-0.11924 3.35959,-0.11756 4.51555,0.004 1.15597,0.12128 0.0697,0.21884 -2.4138,0.21679 -2.48356,-0.002 -3.42935,-0.10128 -2.10175,-0.22052 z M 311.26605,132.10484 c 1.47461,-0.11627 3.88761,-0.11627 5.36222,0 1.47461,0.11628 0.26811,0.21141 -2.68111,0.21141 -2.94922,0 -4.15572,-0.0951 -2.68111,-0.21141 z M 264.7685,110.64751 c -0.7021,-0.89524 -0.68213,-0.9152 0.21311,-0.21311 0.54327,0.42607 0.98777,0.87057 0.98777,0.98778 0,0.46456 -0.46351,0.16555 -1.20088,-0.77467 z M 311.84752,-1.1047327 c 1.48398,-0.1166574 3.76998,-0.1152499 5.08,0.00313 1.31002,0.11837748 0.0959,0.21382438 -2.69814,0.21210421 -2.794,-0.00172 -3.86583,-0.0985745 -2.38186,-0.21523181 z"
         id="path48" /><path
         style="fill:#16a0bb"
         d="m 373.77031,190.49037 0.27426,-3.50175 0.18136,3.04393 c 0.0997,1.67416 -0.0237,3.24995 -0.27426,3.50175 -0.25059,0.2518 -0.33221,-1.11797 -0.18136,-3.04393 z m -108.19047,-0.11508 c 0.003,-1.86267 0.10855,-2.55662 0.23417,-1.54212 0.12562,1.01451 0.12303,2.53851 -0.006,3.38667 -0.12879,0.84816 -0.23158,0.0181 -0.22841,-1.84455 z m -20.5669,-2.96334 c -0.70209,-0.89524 -0.68213,-0.9152 0.21311,-0.21311 0.54328,0.42607 0.98778,0.87057 0.98778,0.98778 0,0.46456 -0.46351,0.16556 -1.20089,-0.77467 z m -13.36463,-8.32555 c 0.0115,-0.93134 0.13801,-1.244 0.28112,-0.69482 0.14311,0.54919 0.1337,1.31119 -0.0209,1.69334 -0.15461,0.38215 -0.2717,-0.0672 -0.2602,-0.99852 z m 179.63291,-19.47333 c 0,-9.15812 0.0776,-12.90461 0.1725,-8.32556 0.0949,4.57906 0.0949,12.07206 0,16.65111 -0.0949,4.57906 -0.1725,0.83256 -0.1725,-8.32555 z m -19.96061,12.08851 c 0.0271,-0.65754 0.16083,-0.79129 0.34101,-0.34102 0.16305,0.40746 0.143,0.8943 -0.0446,1.08186 -0.18756,0.18756 -0.32096,-0.14582 -0.29645,-0.74084 z m -188.40442,-0.0898 c 2.10842,-0.10889 5.41041,-0.10809 7.33778,0.002 1.92737,0.10988 0.20231,0.19898 -3.83347,0.19799 -4.03578,-9.8e-4 -5.61272,-0.0909 -3.50431,-0.19979 z m 36.14508,-3.24979 c 0.002,-2.17311 0.10452,-2.99294 0.22671,-1.82185 0.12219,1.17109 0.12014,2.94909 -0.005,3.95111 -0.12469,1.00202 -0.22467,0.0438 -0.22216,-2.12926 z m 49.65503,0.84667 c 0,-1.70744 0.10582,-2.40594 0.23515,-1.55222 0.12932,0.85372 0.12932,2.25072 0,3.10444 -0.12933,0.85372 -0.23515,0.15522 -0.23515,-1.55222 z m 73.94798,-0.84667 c 0.003,-1.86266 0.10855,-2.55661 0.23417,-1.54211 0.12562,1.0145 0.12303,2.5385 -0.006,3.38667 -0.12879,0.84816 -0.23158,0.0181 -0.22841,-1.84456 z m 28.70089,-3.10444 c 0,-0.77611 0.12811,-1.09361 0.28469,-0.70556 0.15659,0.38806 0.15659,1.02306 0,1.41112 -0.15658,0.38805 -0.28469,0.0706 -0.28469,-0.70556 z m -174.64356,-0.93827 c 0.38805,-0.15658 1.02305,-0.15658 1.41111,0 0.38805,0.15659 0.0705,0.2847 -0.70556,0.2847 -0.77611,0 -1.09361,-0.12811 -0.70555,-0.2847 z m -15.20472,-13.55842 c 0.40746,-0.16305 0.89429,-0.143 1.08185,0.0446 0.18756,0.18756 -0.14582,0.32097 -0.74083,0.29646 -0.65755,-0.0271 -0.7913,-0.16084 -0.34102,-0.34102 z m 80.48553,-2.01331 -1.07526,-1.27 1.27,1.07526 c 1.19349,1.01048 1.52696,1.46474 1.07526,1.46474 -0.10711,0 -0.67861,-0.5715 -1.27,-1.27 z m -16.42258,-2.39889 c 0.003,-1.86266 0.10855,-2.55662 0.23417,-1.54211 0.12562,1.0145 0.12303,2.5385 -0.006,3.38666 -0.12879,0.84817 -0.23158,0.0181 -0.22841,-1.84455 z m 108.37333,0 c 0.003,-1.86266 0.10854,-2.55662 0.23417,-1.54211 0.12562,1.0145 0.12303,2.5385 -0.006,3.38666 -0.12879,0.84817 -0.23158,0.0181 -0.22841,-1.84455 z"
         id="path47" /><path
         style="fill:#119eba"
         d="m 267.55688,193.65859 c 0.40746,-0.16305 0.8943,-0.14299 1.08186,0.0446 0.18756,0.18756 -0.14582,0.32096 -0.74084,0.29645 -0.65754,-0.0271 -0.79129,-0.16083 -0.34102,-0.34102 z m 112.85361,0.0118 c 0.38805,-0.15658 1.02305,-0.15658 1.41111,0 0.38806,0.15659 0.0706,0.2847 -0.70556,0.2847 -0.77611,0 -1.09361,-0.12811 -0.70555,-0.2847 z m 45.19083,-0.5762 c 0.40746,-0.16305 0.89429,-0.143 1.08185,0.0446 0.18756,0.18756 -0.14581,0.32097 -0.74083,0.29646 -0.65755,-0.0271 -0.7913,-0.16083 -0.34102,-0.34102 z m -31.50305,-3.77864 c 0,-0.11721 0.4445,-0.56171 0.98777,-0.98778 0.89524,-0.70209 0.91521,-0.68213 0.21311,0.21311 -0.73737,0.94022 -1.20088,1.23923 -1.20088,0.77467 z m -200.83239,-3.02999 c 3.32007,-0.0996 8.90807,-0.1 12.41778,-7.8e-4 3.5097,0.0992 0.79328,0.1807 -6.0365,0.18113 -6.82977,4.2e-4 -9.70135,-0.0807 -6.38128,-0.18035 z m 243.02461,0.005 c 1.62983,-0.11402 4.29683,-0.11402 5.92666,0 1.62984,0.11401 0.29634,0.2073 -2.96333,0.2073 -3.25967,0 -4.59317,-0.0933 -2.96333,-0.2073 z M 401.4806,173.39492 c 0.0271,-0.65755 0.16084,-0.7913 0.34102,-0.34102 0.16305,0.40746 0.143,0.89429 -0.0446,1.08185 -0.18756,0.18756 -0.32096,-0.14581 -0.29646,-0.74083 z m 18.83024,-14.62852 c 2.9e-4,-8.69245 0.0786,-12.16958 0.17412,-7.72696 0.0955,4.44261 0.0953,11.55461 -5.1e-4,15.80444 -0.0958,4.24983 -0.17389,0.61496 -0.17361,-8.07748 z m -67.9369,13.49963 c 0.0271,-0.65755 0.16083,-0.7913 0.34102,-0.34102 0.16305,0.40746 0.143,0.89429 -0.0446,1.08185 -0.18756,0.18756 -0.32097,-0.14581 -0.29646,-0.74083 z m 10.16,0 c 0.0271,-0.65755 0.16083,-0.7913 0.34102,-0.34102 0.16305,0.40746 0.143,0.89429 -0.0446,1.08185 -0.18756,0.18756 -0.32097,-0.14581 -0.29646,-0.74083 z m -113.35555,-3.90408 c 0.006,-1.24177 0.12186,-1.68331 0.25687,-0.98119 0.13501,0.70212 0.12989,1.71812 -0.0114,2.25777 -0.14128,0.53966 -0.25174,-0.0348 -0.24548,-1.27658 z m 103.24011,-3.66888 c 0,-0.77612 0.12812,-1.09362 0.2847,-0.70556 0.15658,0.38806 0.15658,1.02306 0,1.41111 -0.15658,0.38806 -0.2847,0.0706 -0.2847,-0.70555 z m 10.11544,-0.32926 c 0.0271,-0.65755 0.16083,-0.7913 0.34102,-0.34102 0.16305,0.40746 0.143,0.89429 -0.0446,1.08185 -0.18756,0.18756 -0.32097,-0.14582 -0.29646,-0.74083 z m -156.53678,-0.0887 c 1.94028,-0.11022 5.11528,-0.11022 7.05556,0 1.94028,0.11022 0.35278,0.2004 -3.52778,0.2004 -3.88055,0 -5.46805,-0.0902 -3.52778,-0.2004 z m 41.95456,-91.351339 c 0.0271,-0.657546 0.16084,-0.791294 0.34102,-0.341019 0.16305,0.407459 0.143,0.894292 -0.0446,1.081852 -0.18756,0.18756 -0.32097,-0.145815 -0.29646,-0.740833 z m 132.08,-1.693333 c 0.0271,-0.657546 0.16083,-0.791295 0.34102,-0.341019 0.16305,0.407458 0.14299,0.894292 -0.0446,1.081852 -0.18756,0.18756 -0.32096,-0.145815 -0.29645,-0.740833 z m 0,-11.288889 c 0.0271,-0.657545 0.16083,-0.791294 0.34102,-0.341018 0.16305,0.407458 0.14299,0.894291 -0.0446,1.081852 -0.18756,0.18756 -0.32096,-0.145815 -0.29645,-0.740834 z M 305.9391,-0.51028375 c 0.40746,-0.16305141 0.8943,-0.14299878 1.08186,0.0445614 0.18756,0.18756017 -0.14582,0.32096587 -0.74084,0.2964571 -0.65754,-0.0270843 -0.79129,-0.16083296 -0.34102,-0.3410185 z"
         id="path46" /><path
         style="fill:#0d9cb9"
         d="m 187.12783,190.09306 c 0,-2.01788 0.10244,-2.84338 0.22765,-1.83444 0.12521,1.00894 0.12521,2.65994 0,3.66889 -0.12521,1.00894 -0.22765,0.18344 -0.22765,-1.83445 z m 72.80757,0.28223 c 0.003,-1.86267 0.10854,-2.55662 0.23417,-1.54212 0.12562,1.01451 0.12303,2.53851 -0.006,3.38667 -0.1288,0.84816 -0.23158,0.0181 -0.22841,-1.84455 z m 167.35925,2.71886 c 0.40746,-0.16305 0.89429,-0.143 1.08185,0.0446 0.18756,0.18756 -0.14581,0.32097 -0.74083,0.29646 -0.65754,-0.0271 -0.79129,-0.16083 -0.34102,-0.34102 z m -68.82838,-5.6822 c -0.7021,-0.89524 -0.68213,-0.9152 0.21311,-0.21311 0.94022,0.73738 1.23922,1.20089 0.77467,1.20089 -0.11721,0 -0.56171,-0.4445 -0.98778,-0.98778 z m 73.90838,-1.09113 c 0.40746,-0.16305 0.89429,-0.143 1.08185,0.0446 0.18756,0.18756 -0.14581,0.32096 -0.74083,0.29646 -0.65754,-0.0271 -0.79129,-0.16084 -0.34102,-0.34102 z m -79.87613,-17.67664 c 0,-1.70745 0.10582,-2.40595 0.23514,-1.55223 0.12933,0.85373 0.12933,2.25073 0,3.10445 -0.12932,0.85372 -0.23514,0.15522 -0.23514,-1.55222 z m -73.94992,-0.28223 c 0.004,-1.55222 0.11386,-2.12023 0.2436,-1.26224 0.12974,0.858 0.12627,2.128 -0.008,2.82223 -0.13398,0.69423 -0.24013,-0.008 -0.23589,-1.55999 z m 122.932,-2.30481 c 0.0271,-0.65755 0.16084,-0.7913 0.34102,-0.34102 0.16305,0.40746 0.143,0.89429 -0.0446,1.08185 -0.18756,0.18756 -0.32096,-0.14581 -0.29646,-0.74083 z M 259.9354,146.34862 c 0.003,-1.86266 0.10854,-2.55662 0.23417,-1.54211 0.12562,1.0145 0.12303,2.5385 -0.006,3.38666 -0.1288,0.84817 -0.23158,0.0181 -0.22841,-1.84455 z m -61.80518,-2.92558 c 0.40746,-0.16305 0.89429,-0.143 1.08185,0.0446 0.18756,0.18756 -0.14581,0.32097 -0.74083,0.29646 -0.65755,-0.0271 -0.7913,-0.16083 -0.34102,-0.34102 z M 380.18751,65.63307 c -0.002,-2.793999 0.0937,-4.008163 0.2121,-2.698142 0.11838,1.310022 0.11979,3.596022 0.003,5.08 -0.11666,1.483978 -0.21351,0.412142 -0.21523,-2.381858 z m -10.9968,-29.49222 c -0.70209,-0.89524 -0.68213,-0.915205 0.21311,-0.213109 0.54328,0.426068 0.98778,0.870568 0.98778,0.987778 0,0.464557 -0.46351,0.165553 -1.20089,-0.774669 z m -6.20888,-5.644444 c -0.7021,-0.895241 -0.68214,-0.915205 0.2131,-0.213109 0.94023,0.737373 1.23923,1.200886 0.77467,1.200886 -0.11721,0 -0.56171,-0.4445 -0.98777,-0.987777 z m -11.28889,-10.16 c -0.7021,-0.89524 -0.68213,-0.915205 0.21311,-0.213109 0.94022,0.737373 1.23922,1.200887 0.77466,1.200887 -0.11721,0 -0.56171,-0.4445 -0.98777,-0.987778 z"
         id="path45" /><path
         style="fill:#099cb9"
         d="m 415.77575,188.82306 -1.07526,-1.27 1.27,1.07526 c 1.19348,1.01048 1.52695,1.46474 1.07526,1.46474 -0.10711,0 -0.67861,-0.5715 -1.27,-1.27 z M 280.64494,189.352 c 0,-0.0971 0.8255,-0.92264 1.83444,-1.83444 l 1.83445,-1.65783 -1.65783,1.83445 c -1.54532,1.70995 -2.01106,2.09389 -2.01106,1.65782 z m -6.77333,-5.75005 c 0.72911,-0.77611 1.45267,-1.41111 1.60789,-1.41111 0.15522,0 -0.31433,0.635 -1.04345,1.41111 -0.72912,0.77611 -1.45267,1.41111 -1.60789,1.41111 -0.15522,0 0.31433,-0.635 1.04345,-1.41111 z m 92.49688,-0.14111 c -0.70209,-0.89524 -0.68213,-0.9152 0.21311,-0.21311 0.54328,0.42607 0.98778,0.87057 0.98778,0.98778 0,0.46456 -0.46352,0.16555 -1.20089,-0.77467 z m 20.392,0.77467 c 0,-0.11721 0.4445,-0.56171 0.98778,-0.98778 0.89524,-0.70209 0.9152,-0.68213 0.21311,0.21311 -0.73738,0.94022 -1.20089,1.23923 -1.20089,0.77467 z m -198.16271,-16.57911 -1.36839,-1.55222 1.55222,1.36839 c 1.45079,1.27896 1.81107,1.73605 1.36839,1.73605 -0.10111,0 -0.79961,-0.6985 -1.55222,-1.55222 z m 85.20183,-14.67556 c -0.7021,-0.89524 -0.68213,-0.9152 0.21311,-0.21311 0.54327,0.42607 0.98777,0.87057 0.98777,0.98778 0,0.46456 -0.46351,0.16556 -1.20088,-0.77467 z m 83.04532,-2.04755 c 0,-0.11721 0.4445,-0.56171 0.98778,-0.98778 0.89524,-0.70209 0.91521,-0.68213 0.21311,0.21311 -0.73737,0.94022 -1.20089,1.23923 -1.20089,0.77467 z m 38.62894,-1.62134 -1.65783,-1.83444 1.83445,1.65783 c 1.00894,0.9118 1.83444,1.7373 1.83444,1.83444 0,0.43607 -0.46574,0.0521 -2.01106,-1.65783 z M 244.5205,149.8044 c 0,-0.11721 0.4445,-0.56171 0.98777,-0.98778 0.89524,-0.70209 0.91521,-0.68213 0.21311,0.21311 -0.73737,0.94022 -1.20088,1.23923 -1.20088,0.77467 z m 116.27555,-37.32244 c 1.68623,-1.70745 3.19288,-3.10445 3.3481,-3.10445 0.15522,0 -1.09743,1.397 -2.78366,3.10445 -1.68624,1.70744 -3.19288,3.10444 -3.3481,3.10444 -0.15523,0 1.09742,-1.397 2.78366,-3.10444 z m -96.29141,-2.68111 -1.07526,-1.27 1.27,1.07526 c 1.19349,1.01047 1.52696,1.46474 1.07526,1.46474 -0.1071,0 -0.6786,-0.5715 -1.27,-1.27 z m 102.72889,-75.635556 -1.07526,-1.27 1.27,1.07526 c 1.19348,1.010479 1.52696,1.46474 1.07526,1.46474 -0.10711,0 -0.67861,-0.5715 -1.27,-1.27 z m -6.20889,-5.644444 -1.07526,-1.27 1.27,1.07526 c 1.19349,1.010479 1.52696,1.46474 1.07526,1.46474 -0.10711,0 -0.67861,-0.5715 -1.27,-1.27 z m -5.62633,-5.08 -1.65782,-1.834444 1.83444,1.657825 c 1.70996,1.545325 2.0939,2.011064 1.65783,2.011064 -0.0971,0 -0.92264,-0.8255 -1.83445,-1.834445 z m -88.01782,-4.938888 c 1.84324,-1.862667 3.47833,-3.386667 3.63356,-3.386667 0.15522,0 -1.22588,1.524 -3.06911,3.386667 -1.84323,1.862666 -3.47833,3.386666 -3.63355,3.386666 -0.15522,0 1.22587,-1.524 3.0691,-3.386666 z m 93.11211,-0.141111 -2.801,-2.963333 2.96333,2.801003 c 1.62984,1.540552 2.96334,2.874052 2.96334,2.963333 0,0.421184 -0.52292,-0.04742 -3.12567,-2.801003 z m -11.02816,-0.282222 -1.36839,-1.552223 1.55222,1.368391 c 1.45078,1.278967 1.81107,1.736054 1.36839,1.736054 -0.10111,0 -0.79961,-0.6985 -1.55222,-1.552222 z"
         id="path44" /><path
         style="fill:#059ab8"
         d="m 394.38049,188.39973 c 0.56189,-0.62089 1.14863,-1.12889 1.30385,-1.12889 0.15522,0 -0.17751,0.508 -0.73941,1.12889 -0.56189,0.62089 -1.14863,1.12889 -1.30385,1.12889 -0.15522,0 0.17751,-0.508 0.73941,-1.12889 z m -148.8031,-0.98778 c -0.7021,-0.89524 -0.68213,-0.9152 0.21311,-0.21311 0.54327,0.42607 0.98777,0.87057 0.98777,0.98778 0,0.46456 -0.46351,0.16556 -1.20088,-0.77467 z m 176.97169,-3.66889 -1.07526,-1.27 1.27,1.07526 c 1.19349,1.01048 1.52696,1.46474 1.07526,1.46474 -0.10711,0 -0.67861,-0.5715 -1.27,-1.27 z m -35.56,-31.04444 -1.07526,-1.27 1.27,1.07526 c 1.19349,1.01048 1.52696,1.46474 1.07526,1.46474 -0.10711,0 -0.67861,-0.5715 -1.27,-1.27 z m -105.25797,-3.66889 -1.36839,-1.55222 1.55222,1.36839 c 1.45078,1.27897 1.81107,1.73605 1.36839,1.73605 -0.10111,0 -0.79961,-0.6985 -1.55222,-1.55222 z m 78.96588,-50.56057 c -0.21001,-1.03001 -0.13134,-1.401152 0.22208,-1.047733 0.30101,0.301008 0.44735,1.018767 0.3252,1.59502 -0.16448,0.776008 -0.30642,0.634072 -0.54728,-0.547287 z M 248.11064,65.915293 c 0,-2.949222 0.0951,-4.155722 0.21141,-2.681111 0.11628,1.474611 0.11628,3.887611 0,5.362222 -0.11627,1.474611 -0.21141,0.268111 -0.21141,-2.681111 z M 365.2396,32.189739 c -0.70209,-0.89524 -0.68213,-0.915205 0.21311,-0.213109 0.54328,0.426068 0.98778,0.870568 0.98778,0.987778 0,0.464557 -0.46351,0.165553 -1.20089,-0.774669 z m -6.47274,-5.926666 -1.07526,-1.27 1.27,1.075259 c 1.19349,1.010479 1.52696,1.46474 1.07526,1.46474 -0.10711,0 -0.67861,-0.571499 -1.27,-1.269999 z M 347.17738,15.820851 c -0.70209,-0.89524 -0.68213,-0.915205 0.21311,-0.213109 0.94022,0.737373 1.23923,1.200887 0.77467,1.200887 -0.11721,0 -0.56171,-0.4445 -0.98778,-0.987778 z"
         id="path43" /><path
         style="fill:#009ab8"
         d="m 187.51161,190.15412 v -3.44772 l 13.12333,-0.0135 c 7.21784,-0.007 14.13934,-0.24792 15.38111,-0.53448 1.34985,-0.31149 2.88198,-1.21759 3.81,-2.25321 2.02297,-2.25754 2.21442,-6.9292 0.37956,-9.26185 -2.05589,-2.61364 -3.09324,-2.85257 -14.06733,-3.24007 -12.21182,-0.43121 -14.76605,-1.08433 -17.71529,-4.52985 -6.12237,-7.15262 -3.35786,-19.15311 5.11999,-22.22538 2.26648,-0.82135 5.4109,-1.03075 18.9453,-1.26165 l 16.22777,-0.27685 v 3.73618 3.73618 h -15.28342 -15.28341 l -1.64992,1.64992 c -1.44782,1.44782 -1.64991,2.05466 -1.64991,4.95441 0,3.69127 0.92677,5.51761 3.30251,6.50811 0.8224,0.34288 6.35169,0.77772 12.28732,0.96632 10.57062,0.33587 10.86012,0.37772 14.1098,2.03967 2.47476,1.26564 3.64218,2.28488 4.59458,4.0114 4.35734,7.899 2.02281,17.31876 -5.21535,21.0438 -2.78905,1.43535 -2.87852,1.44285 -19.60924,1.64409 l -16.8074,0.20216 z m 68.29777,2.30155 c -11.56909,-3.02397 -17.2153,-12.31322 -16.16869,-26.60103 0.97577,-13.32071 6.34868,-19.94065 17.8985,-22.05269 l 2.2213,-0.40619 v 3.24032 c 0,3.19336 -0.0262,3.24555 -1.80503,3.60133 -2.48375,0.49675 -6.7615,5.0348 -7.70058,8.16915 -1.89508,6.32521 -1.34076,17.48722 1.11236,22.39912 1.31921,2.64147 5.38512,5.90072 7.36114,5.90072 0.88518,0 1.03211,0.48214 1.03211,3.38666 0,1.86267 -0.0635,3.37203 -0.14111,3.35413 -0.0776,-0.0179 -1.79211,-0.46408 -3.81,-0.99152 z m 10.16,-2.00748 c 0,-2.91506 0.10484,-3.17837 1.27,-3.18974 3.98291,-0.0389 9.40061,-4.83774 10.53138,-9.32843 1.78297,-7.08083 1.16898,-17.66007 -1.27814,-22.02264 -1.59912,-2.85083 -5.38561,-5.68555 -8.23827,-6.1675 l -2.28497,-0.38604 v -3.11892 -3.11892 l 2.68111,0.3994 c 6.02061,0.89689 9.85604,2.61937 13.17265,5.91584 3.63596,3.61386 5.10815,6.92344 6.16259,13.85386 1.47996,9.72717 -1.00316,19.8513 -6.05197,24.67504 -2.3753,2.2694 -8.43964,4.84424 -12.4366,5.28042 l -3.52778,0.38498 z m 48.76802,0.91487 c -0.50504,-1.16416 -1.49107,-3.51366 -2.19119,-5.22111 -0.70011,-1.70744 -4.98931,-11.91 -9.53155,-22.67234 -4.54224,-10.76234 -8.25861,-19.72612 -8.25861,-19.91949 0,-0.19338 2.07022,-0.27783 4.6005,-0.18766 l 4.6005,0.16394 2.64611,6.77333 c 10.20247,26.11567 12.55019,31.81876 13.20132,32.06862 1.73984,0.66764 1.62597,0.90584 11.35027,-23.74306 l 6.06804,-15.38111 h 4.67339 4.67338 l -3.39836,7.76111 c -1.8691,4.26861 -5.68078,12.96811 -8.4704,19.33222 -5.68239,12.96352 -8.72899,19.98569 -9.48937,21.87222 -0.47108,1.16876 -0.87237,1.27 -5.03384,1.27 h -4.52195 z m 55.71535,1.50616 c -3.89695,-0.76531 -9.35089,-3.5858 -11.7218,-6.0619 -1.19253,-1.24543 -2.90993,-4.00014 -3.81645,-6.12156 -1.41814,-3.31873 -1.68331,-4.76596 -1.89968,-10.36787 -0.59491,-15.40255 4.39709,-23.39802 16.37123,-26.22111 1.95005,-0.45975 3.73605,-0.83967 3.96888,-0.84426 0.23284,-0.005 0.42334,1.39663 0.42334,3.11382 0,2.48515 -0.20154,3.18216 -0.98778,3.41626 -2.62564,0.78176 -5.89251,2.81218 -7.07813,4.39918 -2.57382,3.44516 -2.94076,5.21451 -2.94076,14.18017 0,7.96328 0.0882,8.65484 1.48403,11.63149 1.6268,3.46927 4.30971,5.89111 7.50291,6.77279 2.00157,0.55266 2.01973,0.58535 2.01973,3.63559 0,1.69285 -0.1905,3.05008 -0.42334,3.01607 -0.23283,-0.034 -1.53881,-0.28092 -2.90218,-0.54867 z m 8.96996,-2.44432 v -3.05483 l 2.16397,-0.3656 c 4.80093,-0.81111 8.47788,-4.74929 9.66731,-10.35414 0.42848,-2.01912 0.62939,-6.01744 0.507,-10.09012 -0.18579,-6.18241 -0.345,-7.02391 -1.90638,-10.07648 -1.88817,-3.69145 -4.22029,-5.60058 -8.00591,-6.55381 l -2.42599,-0.61087 v -3.03744 c 0,-3.51243 0.077,-3.54367 5.34942,-2.17039 12.09328,3.1499 16.71844,10.09642 16.71046,25.0974 -0.006,10.86523 -3.53388,17.97155 -10.77099,21.695 -2.57653,1.3256 -7.38492,2.57611 -9.90556,2.57611 -1.29774,0 -1.38333,-0.189 -1.38333,-3.05483 z m 47.13111,2.50754 c -4.72197,-0.45622 -9.15758,-2.53491 -11.24281,-5.2688 -3.1887,-4.1806 -3.34766,-5.31744 -3.58673,-25.65169 l -0.22064,-18.76777 h 4.2328 4.2328 l 0.18785,18.48555 c 0.17635,17.3547 0.25786,18.60641 1.33244,20.46111 1.97224,3.40405 4.30568,4.11386 14.48874,4.40734 l 8.91999,0.25707 v 3.31224 3.31224 l -7.19666,-0.0828 c -3.95817,-0.0455 -8.97467,-0.25456 -11.14778,-0.46451 z m -118.81555,-61.233 c -0.46567,-0.11378 -2.75167,-0.51668 -5.08,-0.89533 -5.05198,-0.82159 -11.01097,-2.70121 -16.2272,-5.11849 -3.48482,-1.61491 -3.68995,-1.80258 -2.39947,-2.19531 0.77612,-0.2362 18.04811,-5.43998 38.38223,-11.56396 20.33411,-6.12398 37.43102,-11.37892 37.99313,-11.67764 0.56467,-0.300082 0.94356,-1.01914 0.84667,-1.606828 -0.11487,-0.696744 -6.87423,-5.408419 -19.59371,-13.657978 -10.68009,-6.926856 -19.33091,-12.844508 -19.22405,-13.150337 0.10686,-0.305829 11.38512,-7.451816 25.06279,-15.879972 18.87141,-11.628527 24.8685,-15.586116 24.8685,-16.41119 0,-1.057103 -3.36597,-4.298615 -20.88445,-20.112245 -5.22256,-4.714314 -7.66319,-6.563522 -8.46666,-6.414974 -0.62089,0.114791 -12.55889,8.548746 -26.52889,18.74212 -13.97,10.193375 -33.0835,24.142432 -42.47444,30.997905 -13.1997,9.635897 -17.07445,12.738976 -17.07445,13.674016 0,1.069292 1.94682,1.933818 16.79222,7.456955 9.23573,3.43609 18.37973,6.817961 20.32,7.515267 1.94028,0.697307 3.51731,1.407683 3.50452,1.578614 -0.0128,0.170931 -6.9343,4.413414 -15.38111,9.427737 l -15.35785,9.11696 -1.31878,-1.21474 c -3.64189,-3.35456 -9.93783,-13.40526 -12.64695,-20.189323 -3.077,-7.705269 -3.89046,-12.013122 -4.19773,-22.229849 -0.24869,-8.268741 -0.12669,-10.376034 0.88227,-15.239999 2.62556,-12.657218 8.30022,-23.490163 17.23902,-32.909326 9.0268,-9.511911 21.16278,-16.1559155 34.87061,-19.09038443 6.77203,-1.44970586 18.76845,-1.35474607 25.84946,0.20461596 27.39461,6.03277527 47.48557,27.31055947 51.9393,55.00748047 1.09315,6.798083 0.45787,19.210947 -1.33236,26.033272 -6.41755,24.456463 -24.76892,42.395043 -49.47818,48.365213 -4.39625,1.06221 -18.45906,2.03031 -20.88444,1.43772 z"
         id="path42" /></g></g></svg>
