<?xml version="1.0" encoding="utf-8"?><svg height="18" viewBox="0 0 18 18" width="18" xmlns="http://www.w3.org/2000/svg"><rect height="4" style="fill:none;stroke:#009bb9;stroke-linecap:round;stroke-linejoin:round" width="16" x="0.5" y="10.5"/><line style="fill:none;stroke:#949494;stroke-linecap:square;stroke-linejoin:round" x1="0.5" x2="16.5" y1="16.5" y2="16.5"/><line style="fill:none;stroke:#009bb9;stroke-linecap:round;stroke-linejoin:round" x1="2.5" x2="2.5" y1="10.5" y2="14.5"/><line style="fill:none;stroke:#009bb9;stroke-linecap:round;stroke-linejoin:round" x1="4.5" x2="4.5" y1="10.5" y2="14.5"/><line style="fill:none;stroke:#009bb9;stroke-linecap:round;stroke-linejoin:round" x1="6.5" x2="6.5" y1="10.5" y2="14.5"/><line style="fill:none;stroke:#009bb9;stroke-linecap:round;stroke-linejoin:round" x1="8.5" x2="8.5" y1="10.5" y2="14.5"/><line style="fill:none;stroke:#009bb9;stroke-linecap:round;stroke-linejoin:round" x1="10.5" x2="10.5" y1="10.5" y2="14.5"/><line style="fill:none;stroke:#009bb9;stroke-linecap:round;stroke-linejoin:round" x1="12.5" x2="12.5" y1="10.5" y2="14.5"/><line style="fill:none;stroke:#009bb9;stroke-linecap:round;stroke-linejoin:round" x1="14.5" x2="14.5" y1="10.5" y2="14.5"/><path d="M1.5.5h14a1,1,0,0,1,1,1v9a0,0,0,0,1,0,0H.5a0,0,0,0,1,0,0v-9A1,1,0,0,1,1.5.5Z" style="fill:none;stroke:#949494;stroke-linecap:round;stroke-linejoin:round"/></svg>