<?xml version="1.0" encoding="utf-8"?><svg height="24" viewBox="0 0 24 24" width="24" xmlns="http://www.w3.org/2000/svg"><g style="opacity:0.75"><line style="fill:none;stroke:#949494;stroke-linecap:round;stroke-linejoin:round" x1="18.5" x2="21.5" y1="14.167" y2="12.5"/><line style="fill:none;stroke:#949494;stroke-linecap:round;stroke-linejoin:round" x1="12.5" x2="12.5" y1="17.5" y2="10.833"/><line style="fill:none;stroke:#949494;stroke-linecap:round;stroke-linejoin:round" x1="6.5" x2="12.5" y1="7.5" y2="10.833"/><line style="fill:none;stroke:#949494;stroke-linecap:round;stroke-linejoin:round" x1="18.5" x2="22.5" y1="7.5" y2="9.722"/><line style="fill:none;stroke:#949494;stroke-linecap:round;stroke-linejoin:round" x1="18.5" x2="12.5" y1="7.5" y2="10.833"/><line style="fill:none;stroke:#949494;stroke-linecap:round;stroke-linejoin:round" x1="6.5" x2="6.5" y1="22.5" y2="20.833"/><line style="fill:none;stroke:#949494;stroke-linecap:round;stroke-linejoin:round" x1="1.5" x2="6.5" y1="18.056" y2="20.833"/><line style="fill:none;stroke:#949494;stroke-linecap:round;stroke-linejoin:round" x1="12.5" x2="6.5" y1="17.5" y2="20.833"/><line style="fill:none;stroke:#949494;stroke-linecap:round;stroke-linejoin:round" x1="6.5" x2="6.5" y1="7.5" y2="1.5"/><line style="fill:none;stroke:#949494;stroke-linecap:round;stroke-linejoin:round" x1="18.5" x2="18.5" y1="7.5" y2="1.5"/><line style="fill:none;stroke:#949494;stroke-linecap:round;stroke-linejoin:round" x1="6.5" x2="1.5" y1="7.5" y2="10.278"/><line style="fill:none;stroke:#949494;stroke-linecap:round;stroke-linejoin:round" x1="18.5" x2="18.5" y1="14.167" y2="17.5"/><line style="fill:none;stroke:#949494;stroke-linecap:round;stroke-linejoin:round" x1="18.5" x2="20" y1="20.833" y2="20"/><line style="fill:none;stroke:#949494;stroke-linecap:round;stroke-linejoin:round" x1="15.5" x2="15.5" y1="22.5" y2="19.167"/><line style="fill:none;stroke:#949494;stroke-linecap:round;stroke-linejoin:round" x1="12.5" x2="15.5" y1="17.5" y2="19.167"/><line style="fill:none;stroke:#949494;stroke-linecap:round;stroke-linejoin:round" x1="18.5" x2="22.5" y1="17.5" y2="19.722"/><line style="fill:none;stroke:#949494;stroke-linecap:round;stroke-linejoin:round" x1="18.5" x2="15.5" y1="17.5" y2="19.167"/><line style="fill:none;stroke:#949494;stroke-linecap:round;stroke-linejoin:round" x1="18.5" x2="18.5" y1="20.833" y2="22.5"/><line style="fill:none;stroke:#949494;stroke-linecap:round;stroke-linejoin:round" x1="17" x2="18.5" y1="20" y2="20.833"/><line style="fill:none;stroke:#949494;stroke-linecap:round;stroke-linejoin:round" x1="15.5" x2="18.5" y1="12.5" y2="14.167"/><line style="fill:none;stroke:#949494;stroke-linecap:round;stroke-linejoin:round" x1="12.5" x2="15.5" y1="4.167" y2="2.5"/><line style="fill:none;stroke:#949494;stroke-linecap:round;stroke-linejoin:round" x1="12.5" x2="12.5" y1="4.167" y2="7.5"/><line style="fill:none;stroke:#949494;stroke-linecap:round;stroke-linejoin:round" x1="9.5" x2="12.5" y1="2.5" y2="4.167"/><line style="fill:none;stroke:#949494;stroke-linecap:round;stroke-linejoin:round" x1="1.5" x2="3.5" y1="3.611" y2="2.5"/></g><line style="fill:none;stroke:#009bb9;stroke-linecap:round;stroke-linejoin:round" x1="6.5" x2="22.5" y1="7.5" y2="7.5"/><line style="fill:none;stroke:#009bb9;stroke-linecap:round;stroke-linejoin:round" x1="12.5" x2="22.5" y1="17.5" y2="17.5"/><line style="fill:none;stroke:#009bb9;stroke-linecap:round;stroke-linejoin:round" x1="15.5" x2="2.947" y1="22.5" y2="1.578"/><line style="fill:none;stroke:#009bb9;stroke-linecap:round;stroke-linejoin:round" x1="10.1" x2="6.5" y1="1.5" y2="7.5"/><line style="fill:none;stroke:#009bb9;stroke-linecap:round;stroke-linejoin:round" x1="14.9" x2="22.5" y1="1.5" y2="14.167"/><line style="fill:none;stroke:#009bb9;stroke-linecap:round;stroke-linejoin:round" x1="12.5" x2="21.808" y1="17.5" y2="1.987"/><line style="fill:none;stroke:#009bb9;stroke-linecap:round;stroke-linejoin:round" x1="6.5" x2="1.5" y1="7.5" y2="15.833"/><line style="fill:none;stroke:#009bb9;stroke-linecap:round;stroke-linejoin:round" x1="1.5" x2="6.5" y1="7.5" y2="7.5"/><line style="fill:none;stroke:#009bb9;stroke-linecap:round;stroke-linejoin:round" x1="21.378" x2="18.5" y1="22.297" y2="17.5"/><line style="fill:none;stroke:#009bb9;stroke-linecap:round;stroke-linejoin:round" x1="18.5" x2="15.5" y1="17.5" y2="22.5"/><rect height="21" rx="2" style="fill:none;stroke:#949494;stroke-linecap:round;stroke-linejoin:round" width="21" x="1.5" y="1.5"/></svg>