<?xml version="1.0" encoding="utf-8"?><svg height="18" viewBox="0 0 18 18" width="18" xmlns="http://www.w3.org/2000/svg"><path d="M11.5,8.5h2m-1,1v-2m-1,5h2m-1,1v-2m-5,1h2m-1,1v-2m-1-3h2m-1,1v-2" style="fill:none;stroke:#009bb9;stroke-linecap:square;stroke-linejoin:round"/><path d="M11.5,4.5h2m-1,1v-2m-9,9h2m-1,1v-2m-1-3h2m-1,1v-2m3-3h2m-1,1v-2m-5,1h2m-1,1v-2m12,12V1.5a1,1,0,0,0-1-1H1.5a1,1,0,0,0-1,1v14a1,1,0,0,0,1,1h14A1,1,0,0,0,16.5,15.5Z" style="fill:none;stroke:#949494;stroke-linecap:square;stroke-linejoin:round"/></svg>