<?xml version="1.0" encoding="utf-8"?><svg height="18" viewBox="0 0 18 18" width="18" xmlns="http://www.w3.org/2000/svg"><polygon points="1 7.293 1 8.707 8.707 1 7.293 1 1 7.293" style="fill:#009bb9"/><polygon points="5.707 16 16 5.707 16 4.293 4.293 16 5.707 16" style="fill:#009bb9"/><path d="M1,15.5a.5.5,0,0,0,.5.5h.207L16,1.707V1.5a.5.5,0,0,0-.5-.5h-.207L1,15.293Z" style="fill:#009bb9"/><polygon points="1 12.707 12.707 1 11.293 1 1 11.293 1 12.707" style="fill:#009bb9"/><polygon points="3.293 1 1 3.293 1 4.707 4.707 1 3.293 1" style="fill:#009bb9"/><polygon points="13.707 16 16 13.707 16 12.293 12.293 16 13.707 16" style="fill:#009bb9"/><polygon points="9.707 16 16 9.707 16 8.293 8.293 16 9.707 16" style="fill:#009bb9"/><rect height="16" rx="1" style="fill:none;stroke:#949494;stroke-linecap:round;stroke-linejoin:round" width="16" x="0.5" y="0.5"/></svg>