<?xml version="1.0" encoding="utf-8"?><svg height="18" viewBox="0 0 18 18" width="18" xmlns="http://www.w3.org/2000/svg"><line style="fill:none;stroke:#009bb9;stroke-linecap:round;stroke-linejoin:round" x1="4.5" x2="3.5" y1="9.5" y2="14.5"/><line style="fill:none;stroke:#009bb9;stroke-linecap:round;stroke-linejoin:round" x1="6.682" x2="7.5" y1="11.227" y2="14.5"/><line style="fill:none;stroke:#009bb9;stroke-linecap:round;stroke-linejoin:round" x1="5.491" x2="6.682" y1="7.439" y2="11.227"/><line style="fill:none;stroke:#009bb9;stroke-linecap:round;stroke-linejoin:round" x1="10.5" x2="6.682" y1="5.5" y2="11.227"/><line style="fill:none;stroke:#009bb9;stroke-linecap:round;stroke-linejoin:round" x1="7.5" x2="8.722" y1="4.5" y2="8.167"/><line style="fill:none;stroke:#009bb9;stroke-linecap:round;stroke-linejoin:round" x1="0.5" x2="4.5" y1="5.5" y2="9.5"/><line style="fill:none;stroke:#009bb9;stroke-linecap:round;stroke-linejoin:round" x1="5.5" x2="3.238" y1="4.5" y2="8.238"/><line style="fill:none;stroke:#009bb9;stroke-linecap:round;stroke-linejoin:round" x1="3.5" x2="7.5" y1="14.5" y2="14.5"/><path d="M16.5,1.5v12a1,1,0,0,1-1,1h-4v-9a1,1,0,0,0-1-1H.5v-3a1,1,0,0,1,1-1h14A1,1,0,0,1,16.5,1.5Zm-16,15h16" style="fill:none;stroke:#949494;stroke-linecap:round;stroke-linejoin:round"/></svg>