<?xml version="1.0" encoding="utf-8"?><svg height="18" viewBox="0 0 18 18" width="18" xmlns="http://www.w3.org/2000/svg"><rect height="16" rx="1" style="fill:none;stroke:#009bb9;stroke-linecap:round;stroke-linejoin:round" width="16" x="0.5" y="0.5"/><line style="fill:none;stroke:#949494;stroke-linecap:square;stroke-linejoin:round" x1="2.5" x2="14.5" y1="14.5" y2="14.5"/><path d="M13.5,12.5l.4-.495a1.263,1.263,0,0,0,0-1.51l-.792-.99A1.263,1.263,0,0,1,13.1,8l.792-.99a1.263,1.263,0,0,0,0-1.51l-.792-.99A1.263,1.263,0,0,1,13.1,3l.4-.5" style="fill:none;stroke:#949494;stroke-linecap:round;stroke-linejoin:round"/><path d="M8.5,12.5l.4-.495a1.263,1.263,0,0,0,0-1.51L8.1,9.505A1.263,1.263,0,0,1,8.1,8l.792-.99a1.263,1.263,0,0,0,0-1.51L8.1,4.505A1.263,1.263,0,0,1,8.1,3l.4-.5" style="fill:none;stroke:#949494;stroke-linecap:round;stroke-linejoin:round"/><path d="M3.5,12.5l.4-.495a1.263,1.263,0,0,0,0-1.51L3.1,9.505A1.263,1.263,0,0,1,3.1,8l.792-.99a1.263,1.263,0,0,0,0-1.51L3.1,4.505A1.263,1.263,0,0,1,3.1,3l.4-.5" style="fill:none;stroke:#949494;stroke-linecap:round;stroke-linejoin:round"/></svg>