<?xml version="1.0" encoding="utf-8"?><svg height="18" viewBox="0 0 18 18" width="18" xmlns="http://www.w3.org/2000/svg"><line style="fill:none;stroke:#949494;stroke-linecap:square;stroke-linejoin:round" x1="0.5" x2="16.5" y1="16.5" y2="16.5"/><rect height="14" rx="1" style="fill:none;stroke:#949494;stroke-linecap:round;stroke-linejoin:round" width="4" x="12.5" y="0.5"/><line style="fill:none;stroke:#009bb9;stroke-linecap:round;stroke-linejoin:round" x1="0.5" x2="1.5" y1="2.5" y2="3.5"/><line style="fill:none;stroke:#009bb9;stroke-linecap:round;stroke-linejoin:round" x1="10.5" x2="9.5" y1="2.5" y2="3.5"/><line style="fill:none;stroke:#009bb9;stroke-linecap:round;stroke-linejoin:round" x1="9.5" x2="10.5" y1="3.5" y2="4.5"/><line style="fill:none;stroke:#009bb9;stroke-linecap:round;stroke-linejoin:round" x1="1.5" x2="0.5" y1="3.5" y2="4.5"/><line style="fill:none;stroke:#009bb9;stroke-linecap:round;stroke-linejoin:round" x1="1.5" x2="8.682" y1="14.5" y2="10.409"/><line style="fill:none;stroke:#009bb9;stroke-linecap:round;stroke-linejoin:round" x1="2.167" x2="8.136" y1="11.167" y2="7.682"/><line style="fill:none;stroke:#009bb9;stroke-linecap:round;stroke-linejoin:round" x1="2.833" x2="7.591" y1="7.833" y2="4.955"/><polyline points="6.5 4.5 7.5 1.5 5.5 0.5 5.5 0.5 3.5 1.5 4.5 4.5" style="fill:none;stroke:#009bb9;stroke-linecap:round;stroke-linejoin:round"/><polyline points="1.5 14.5 3.5 4.5 7.5 4.5 9.5 14.5 5.5 14.5" style="fill:none;stroke:#009bb9;stroke-linecap:round;stroke-linejoin:round"/><line style="fill:none;stroke:#009bb9;stroke-linecap:round;stroke-linejoin:round" x1="3.5" x2="7.5" y1="1.5" y2="1.5"/></svg>