<?xml version="1.0" encoding="utf-8"?><svg height="18" viewBox="0 0 18 18" width="18" xmlns="http://www.w3.org/2000/svg"><rect height="16" rx="1" style="fill:none;stroke:#949494;stroke-linecap:round;stroke-linejoin:round" width="16" x="0.5" y="0.5"/><path d="M7,5H5V4H7ZM7,6H5V7H7ZM7,8H5V9H7Zm0,2H5v1H7ZM7,2H5V3H7ZM7,12H5v1H7Zm0,2H5v1H7Z" style="fill:#009bb9"/><rect height="1" style="fill:#009bb9" width="2" x="7" y="1"/><rect height="1" style="fill:#009bb9" width="2" x="7" y="5"/><rect height="1" style="fill:#009bb9" width="2" x="7" y="7"/><rect height="1" style="fill:#009bb9" width="2" x="7" y="9"/><rect height="1" style="fill:#009bb9" width="2" x="7" y="11"/><rect height="1" style="fill:#009bb9" width="2" x="7" y="3"/><rect height="1" style="fill:#009bb9" width="2" x="7" y="13"/><rect height="1" style="fill:#009bb9" width="2" x="7" y="15"/></svg>