<?xml version="1.0" encoding="utf-8"?><svg height="24" viewBox="0 0 24 24" width="24" xmlns="http://www.w3.org/2000/svg"><g style="opacity:0.75"><line style="fill:none;stroke:#949494;stroke-linecap:round;stroke-linejoin:round" x1="1.5" x2="10.5" y1="10.5" y2="1.5"/><line style="fill:none;stroke:#949494;stroke-linecap:round;stroke-linejoin:round" x1="22.5" x2="13.5" y1="10.5" y2="1.5"/><line style="fill:none;stroke:#949494;stroke-linecap:round;stroke-linejoin:round" x1="13.5" x2="22.5" y1="22.5" y2="13.5"/><line style="fill:none;stroke:#949494;stroke-linecap:round;stroke-linejoin:round" x1="10.5" x2="1.5" y1="22.5" y2="13.5"/><line style="fill:none;stroke:#949494;stroke-linecap:round;stroke-linejoin:round" x1="21.5" x2="2.5" y1="2.5" y2="21.5"/><line style="fill:none;stroke:#949494;stroke-linecap:round;stroke-linejoin:round" x1="2.5" x2="21.5" y1="2.5" y2="21.5"/></g><line style="fill:none;stroke:#009bb9;stroke-linecap:round;stroke-linejoin:round" x1="4.5" x2="1.5" y1="10.5" y2="7.5"/><line style="fill:none;stroke:#009bb9;stroke-linecap:round;stroke-linejoin:round" x1="10.5" x2="7.5" y1="4.5" y2="1.5"/><line style="fill:none;stroke:#009bb9;stroke-linecap:round;stroke-linejoin:round" x1="13.5" x2="16.5" y1="4.5" y2="1.5"/><line style="fill:none;stroke:#009bb9;stroke-linecap:round;stroke-linejoin:round" x1="19.5" x2="22.5" y1="10.5" y2="7.5"/><line style="fill:none;stroke:#009bb9;stroke-linecap:round;stroke-linejoin:round" x1="19.5" x2="22.5" y1="13.5" y2="16.5"/><line style="fill:none;stroke:#009bb9;stroke-linecap:round;stroke-linejoin:round" x1="13.5" x2="16.5" y1="19.5" y2="22.5"/><line style="fill:none;stroke:#009bb9;stroke-linecap:round;stroke-linejoin:round" x1="10.5" x2="7.5" y1="19.5" y2="22.5"/><line style="fill:none;stroke:#009bb9;stroke-linecap:round;stroke-linejoin:round" x1="4.5" x2="1.5" y1="13.5" y2="16.5"/><rect height="3" style="fill:none;stroke:#009bb9;stroke-linecap:round;stroke-linejoin:round" width="3" x="4.5" y="10.5"/><rect height="3" style="fill:none;stroke:#009bb9;stroke-linecap:round;stroke-linejoin:round" width="3" x="10.5" y="4.5"/><rect height="3" style="fill:none;stroke:#009bb9;stroke-linecap:round;stroke-linejoin:round" width="3" x="16.5" y="10.5"/><rect height="3" style="fill:none;stroke:#009bb9;stroke-linecap:round;stroke-linejoin:round" width="3" x="10.5" y="16.5"/><line style="fill:none;stroke:#009bb9;stroke-linecap:round;stroke-linejoin:round" x1="7.5" x2="10.5" y1="10.5" y2="7.5"/><line style="fill:none;stroke:#009bb9;stroke-linecap:round;stroke-linejoin:round" x1="16.5" x2="13.5" y1="10.5" y2="7.5"/><line style="fill:none;stroke:#009bb9;stroke-linecap:round;stroke-linejoin:round" x1="16.5" x2="13.5" y1="13.5" y2="16.5"/><line style="fill:none;stroke:#009bb9;stroke-linecap:round;stroke-linejoin:round" x1="10.5" x2="7.5" y1="16.5" y2="13.5"/><rect height="21" rx="2" style="fill:none;stroke:#949494;stroke-linecap:round;stroke-linejoin:round" width="21" x="1.5" y="1.5"/></svg>