<?xml version="1.0" encoding="utf-8"?><svg height="18" viewBox="0 0 18 18" width="18" xmlns="http://www.w3.org/2000/svg"><path d="M4.5,5.5c-2,1-2,1-4,0" style="fill:none;stroke:#949494;stroke-linecap:round;stroke-linejoin:round"/><path d="M16.5,5.5c-2,1-2,1-4,0" style="fill:none;stroke:#949494;stroke-linecap:round;stroke-linejoin:round"/><path d="M12.5.5v5a11.042,11.042,0,0,1-8,0V.5" style="fill:none;stroke:#949494;stroke-linecap:round;stroke-linejoin:round"/><path d="M1.5.5h14a1,1,0,0,1,1,1v4l-8,8-8-8v-4A1,1,0,0,1,1.5.5Z" style="fill:none;stroke:#949494;stroke-linecap:round;stroke-linejoin:round"/><rect height="1" style="fill:#009bb9" transform="translate(32 -1) rotate(90)" width="3" x="15" y="15"/><rect height="1" style="fill:#009bb9" transform="translate(16 15) rotate(90)" width="3" x="-1" y="15"/><rect height="15" style="fill:#009bb9" transform="translate(24 7) rotate(90)" width="1" x="8" y="8"/></svg>