<?xml version="1.0" encoding="utf-8"?><svg height="18" viewBox="0 0 18 18" width="18" xmlns="http://www.w3.org/2000/svg"><line style="fill:none;stroke:#949494;stroke-linecap:square;stroke-linejoin:round" x1="0.5" x2="4.5" y1="4.5" y2="4.5"/><line style="fill:none;stroke:#949494;stroke-linecap:square;stroke-linejoin:round" x1="12.5" x2="16.5" y1="4.5" y2="4.5"/><rect height="13" rx="1" style="fill:none;stroke:#949494;stroke-linecap:round;stroke-linejoin:round" width="8" x="4.5" y="0.5"/><circle cx="8.5" cy="7.5" r="2" style="fill:none;stroke:#949494;stroke-linecap:round;stroke-linejoin:round"/><polyline points="6.5 13.5 8.5 16.5 8.5 16.5 10.5 13.5" style="fill:none;stroke:#949494;stroke-linecap:round;stroke-linejoin:round"/><line style="fill:none;stroke:#009bb9;stroke-linecap:round;stroke-linejoin:round" x1="2.5" x2="2.5" y1="6.5" y2="13.5"/><line style="fill:none;stroke:#009bb9;stroke-linecap:round;stroke-linejoin:round" x1="14.5" x2="14.5" y1="6.5" y2="13.5"/><line style="fill:none;stroke:#009bb9;stroke-linecap:round;stroke-linejoin:round" x1="2.5" x2="2.5" y1="2.5" y2="0.5"/><line style="fill:none;stroke:#009bb9;stroke-linecap:round;stroke-linejoin:round" x1="14.5" x2="14.5" y1="0.5" y2="2.5"/><line style="fill:none;stroke:#009bb9;stroke-linecap:round;stroke-linejoin:round" x1="2.5" x2="5.5" y1="13.5" y2="16.5"/><line style="fill:none;stroke:#009bb9;stroke-linecap:round;stroke-linejoin:round" x1="14.5" x2="11.5" y1="13.5" y2="16.5"/><rect height="1" style="fill:#009bb9" width="1" y="2"/><rect height="1" style="fill:#009bb9" width="1" x="16" y="2"/><rect height="1" style="fill:#009bb9" width="1" y="6"/><rect height="1" style="fill:#009bb9" width="1" y="8"/><rect height="1" style="fill:#009bb9" width="1" y="10"/><rect height="1" style="fill:#009bb9" width="1" y="12"/><rect height="1" style="fill:#009bb9" width="1" y="14"/><rect height="1" style="fill:#009bb9" width="1" x="2" y="16"/><rect height="1" style="fill:#009bb9" width="1" x="1" y="15"/><rect height="1" style="fill:#009bb9" width="1" x="16" y="6"/><rect height="1" style="fill:#009bb9" width="1" x="16" y="8"/><rect height="1" style="fill:#009bb9" width="1" x="16" y="10"/><rect height="1" style="fill:#009bb9" width="1" x="16" y="12"/><rect height="1" style="fill:#009bb9" width="1" x="16" y="14"/><rect height="1" style="fill:#009bb9" width="1" x="14" y="16"/><rect height="1" style="fill:#009bb9" width="1" x="15" y="15"/></svg>