<?xml version="1.0" encoding="utf-8"?><svg height="18" viewBox="0 0 18 18" width="18" xmlns="http://www.w3.org/2000/svg"><line style="fill:none;stroke:#009bb9;stroke-linecap:square;stroke-linejoin:round" x1="11.5" x2="16.5" y1="4.5" y2="4.5"/><line style="fill:none;stroke:#009bb9;stroke-linecap:square;stroke-linejoin:round" x1="0.5" x2="16.5" y1="6.5" y2="6.5"/><line style="fill:none;stroke:#009bb9;stroke-linecap:square;stroke-linejoin:round" x1="0.5" x2="16.5" y1="8.5" y2="8.5"/><line style="fill:none;stroke:#009bb9;stroke-linecap:square;stroke-linejoin:round" x1="0.5" x2="16.5" y1="10.5" y2="10.5"/><line style="fill:none;stroke:#009bb9;stroke-linecap:square;stroke-linejoin:round" x1="0.5" x2="16.5" y1="12.5" y2="12.5"/><path d="M1.5,14.5h14a1,1,0,0,1,1,1v1a0,0,0,0,1,0,0H.5a0,0,0,0,1,0,0v-1A1,1,0,0,1,1.5,14.5Z" style="fill:none;stroke:#949494;stroke-linecap:round;stroke-linejoin:round" transform="translate(17 31) rotate(180)"/><line style="fill:none;stroke:#009bb9;stroke-linecap:square;stroke-linejoin:round" x1="0.5" x2="0.5" y1="12.5" y2="10.5"/><line style="fill:none;stroke:#009bb9;stroke-linecap:square;stroke-linejoin:round" x1="16.5" x2="16.5" y1="10.5" y2="8.5"/><line style="fill:none;stroke:#009bb9;stroke-linecap:square;stroke-linejoin:round" x1="0.5" x2="0.5" y1="8.5" y2="6.5"/><line style="fill:none;stroke:#009bb9;stroke-linecap:square;stroke-linejoin:round" x1="16.5" x2="16.5" y1="6.5" y2="4.5"/><rect height="1" style="fill:#009bb9;opacity:0.25" transform="translate(17 1) rotate(-180)" width="1" x="8"/><rect height="1" style="fill:#009bb9;opacity:0.2" transform="translate(13 1) rotate(-180)" width="1" x="6"/><rect height="1" style="fill:#009bb9;opacity:0.15" transform="translate(9 1) rotate(-180)" width="1" x="4"/><rect height="1" style="fill:#009bb9;opacity:0.1" transform="translate(5 1) rotate(-180)" width="1" x="2"/><rect height="1" style="fill:#009bb9;opacity:0.05" transform="translate(1 1) rotate(-180)" width="1"/><rect height="1" style="fill:#009bb9;opacity:0.3" transform="translate(21 1) rotate(-180)" width="1" x="10"/><rect height="1" style="fill:#009bb9;opacity:0.35000000000000003" transform="translate(25 1) rotate(-180)" width="1" x="12"/><rect height="1" style="fill:#009bb9;opacity:0.4" transform="translate(29 1) rotate(-180)" width="1" x="14"/><rect height="1" style="fill:#009bb9;opacity:0.45" transform="translate(33 1) rotate(-180)" width="1" x="16"/><rect height="1" style="fill:#009bb9;opacity:0.5" transform="translate(33 5) rotate(-180)" width="1" x="16" y="2"/><rect height="1" style="fill:#009bb9;opacity:0.55" transform="translate(29 5) rotate(-180)" width="1" x="14" y="2"/><rect height="1" style="fill:#009bb9;opacity:0.6" transform="translate(25 5) rotate(-180)" width="1" x="12" y="2"/><rect height="1" style="fill:#009bb9;opacity:0.65" transform="translate(21 5) rotate(-180)" width="1" x="10" y="2"/><rect height="1" style="fill:#009bb9;opacity:0.7000000000000001" transform="translate(17 5) rotate(-180)" width="1" x="8" y="2"/><rect height="1" style="fill:#009bb9;opacity:0.75" transform="translate(13 5) rotate(-180)" width="1" x="6" y="2"/><rect height="1" style="fill:#009bb9;opacity:0.8" transform="translate(9 5) rotate(-180)" width="1" x="4" y="2"/><rect height="1" style="fill:#009bb9;opacity:0.85" transform="translate(5 5) rotate(-180)" width="1" x="2" y="2"/><rect height="1" style="fill:#009bb9;opacity:0.9500000000000001" transform="translate(1 9) rotate(-180)" width="1" y="4"/><rect height="1" style="fill:#009bb9;opacity:0.9" transform="translate(1 5) rotate(-180)" width="1" y="2"/><rect height="1" style="fill:#009bb9" transform="translate(5 9) rotate(-180)" width="1" x="2" y="4"/><rect height="1" style="fill:#009bb9" transform="translate(10 9) rotate(-180)" width="2" x="4" y="4"/><rect height="1" style="fill:#009bb9" transform="translate(17 9) rotate(-180)" width="3" x="7" y="4"/></svg>