<?xml version="1.0" encoding="utf-8"?><svg height="168" viewBox="0 0 168 168" width="168" xmlns="http://www.w3.org/2000/svg" xmlns:xlink="http://www.w3.org/1999/xlink"><defs><linearGradient gradientUnits="userSpaceOnUse" id="a" x1="170.99" x2="60.656" y1="258.434" y2="44.768"><stop offset="0" stop-color="#005caf"/><stop offset="1" stop-color="#4bb6f1"/></linearGradient><linearGradient gradientUnits="userSpaceOnUse" id="b" x1="120.791" x2="69.768" y1="108.452" y2="55.126"><stop offset="0" stop-color="#c6c5c5"/><stop offset="1" stop-color="#f9fafb"/></linearGradient><linearGradient id="c" x1="120.791" x2="69.768" xlink:href="#b" y1="116.452" y2="63.126"/><linearGradient id="d" x1="120.791" x2="69.768" xlink:href="#b" y1="124.452" y2="71.126"/><linearGradient id="e" x1="120.791" x2="69.768" xlink:href="#b" y1="132.452" y2="79.126"/><linearGradient id="f" x1="105.939" x2="67.192" xlink:href="#b" y1="131.2" y2="90.704"/></defs><rect height="168" rx="5" style="fill:#f8f8f8" width="168"/><path d="M108,121H60a8,8,0,0,1-8-8V55a8,8,0,0,1,8-8H98l18,18v48A8,8,0,0,1,108,121Z" style="opacity:0.8;fill:url(#a)"/><path d="M116,65H106a8,8,0,0,1-8-8V47Z" style="opacity:0.2"/><rect height="6" rx="2" style="fill:url(#b)" width="46" x="61" y="67"/><rect height="6" rx="2" style="fill:url(#c)" width="46" x="61" y="75"/><rect height="6" rx="2" style="fill:url(#d)" width="46" x="61" y="83"/><rect height="6" rx="2" style="fill:url(#e)" width="46" x="61" y="91"/><rect height="6" rx="2" style="fill:url(#f)" width="34" x="61" y="99"/></svg>