<?xml version="1.0" encoding="utf-8"?><svg height="168" viewBox="0 0 168 168" width="168" xmlns="http://www.w3.org/2000/svg" xmlns:xlink="http://www.w3.org/1999/xlink"><defs><linearGradient gradientUnits="userSpaceOnUse" id="a" x1="154.654" x2="63.321" y1="253.314" y2="41.98"><stop offset="0" stop-color="#0f7c41"/><stop offset="1" stop-color="#0fb341"/></linearGradient><linearGradient gradientUnits="userSpaceOnUse" id="b" x1="82.728" x2="62.303" y1="86.393" y2="65.046"><stop offset="0" stop-color="#c6c5c5"/><stop offset="1" stop-color="#f9fafb"/></linearGradient><linearGradient id="c" x1="80.284" x2="59.858" xlink:href="#b" y1="93.838" y2="72.491"/><linearGradient id="d" x1="77.839" x2="57.414" xlink:href="#b" y1="101.283" y2="79.936"/><linearGradient id="e" x1="82.462" x2="49.887" xlink:href="#b" y1="116.115" y2="82.07"/><linearGradient id="f" x1="114.728" x2="94.303" xlink:href="#b" y1="86.393" y2="65.046"/><linearGradient id="g" x1="112.284" x2="91.858" xlink:href="#b" y1="93.838" y2="72.491"/><linearGradient id="h" x1="109.839" x2="89.414" xlink:href="#b" y1="101.283" y2="79.936"/><linearGradient id="i" x1="114.462" x2="81.887" xlink:href="#b" y1="116.115" y2="82.07"/><linearGradient id="j" x1="98.728" x2="78.303" xlink:href="#b" y1="86.393" y2="65.046"/><linearGradient id="k" x1="96.284" x2="75.858" xlink:href="#b" y1="93.838" y2="72.491"/><linearGradient id="l" x1="93.839" x2="73.414" xlink:href="#b" y1="101.283" y2="79.936"/><linearGradient id="m" x1="98.462" x2="65.887" xlink:href="#b" y1="116.115" y2="82.07"/></defs><rect height="168" rx="5" style="fill:#f8f8f8" width="168"/><path d="M108,121H60a8,8,0,0,1-8-8V55a8,8,0,0,1,8-8H98l18,18v48A8,8,0,0,1,108,121Z" style="opacity:0.8;fill:url(#a)"/><path d="M116,65H106a8,8,0,0,1-8-8V47Z" style="opacity:0.2"/><rect height="8" rx="2" style="fill:url(#b)" width="14" x="61" y="67"/><rect height="8" rx="2" style="fill:url(#c)" width="14" x="61" y="77"/><rect height="8" rx="2" style="fill:url(#d)" width="14" x="61" y="87"/><rect height="8" rx="2" style="fill:url(#e)" width="14" x="61" y="97"/><rect height="8" rx="2" style="fill:url(#f)" width="14" x="93" y="67"/><rect height="8" rx="2" style="fill:url(#g)" width="14" x="93" y="77"/><rect height="8" rx="2" style="fill:url(#h)" width="14" x="93" y="87"/><rect height="8" rx="2" style="fill:url(#i)" width="14" x="93" y="97"/><rect height="8" rx="2" style="fill:url(#j)" width="14" x="77" y="67"/><rect height="8" rx="2" style="fill:url(#k)" width="14" x="77" y="77"/><rect height="8" rx="2" style="fill:url(#l)" width="14" x="77" y="87"/><rect height="8" rx="2" style="fill:url(#m)" width="14" x="77" y="97"/></svg>