<?xml version="1.0" encoding="utf-8"?><svg height="168" viewBox="0 0 168 168" width="168" xmlns="http://www.w3.org/2000/svg" xmlns:xlink="http://www.w3.org/1999/xlink"><defs><linearGradient gradientUnits="userSpaceOnUse" id="a" x1="59.576" x2="143.243" y1="35.86" y2="220.86"><stop offset="0" stop-color="#ed1c24"/><stop offset="1" stop-color="#be1e2d"/></linearGradient><linearGradient gradientUnits="userSpaceOnUse" id="b" x1="73.76" x2="61.611" y1="79.156" y2="66.458"><stop offset="0" stop-color="#c6c5c5"/><stop offset="1" stop-color="#f9fafb"/></linearGradient><linearGradient id="c" x1="73.76" x2="61.611" xlink:href="#b" y1="87.156" y2="74.458"/><linearGradient id="d" x1="73.76" x2="61.611" xlink:href="#b" y1="95.156" y2="82.458"/><linearGradient id="e" x1="73.76" x2="61.611" xlink:href="#b" y1="103.156" y2="90.458"/><linearGradient id="f" x1="73.76" x2="61.611" xlink:href="#b" y1="111.156" y2="98.458"/><linearGradient id="g" x1="124.582" x2="75.236" xlink:href="#b" y1="111.188" y2="59.615"/><linearGradient id="h" x1="124.582" x2="75.236" xlink:href="#b" y1="127.188" y2="75.615"/><linearGradient id="i" x1="118.415" x2="77.622" xlink:href="#b" y1="132.742" y2="90.108"/></defs><rect height="168" rx="5" style="fill:#f8f8f8" width="168"/><path d="M108,121H60a8,8,0,0,1-8-8V55a8,8,0,0,1,8-8H98l18,18v48A8,8,0,0,1,108,121Z" style="opacity:0.8;fill:url(#a)"/><rect height="6" rx="2" style="fill:url(#b)" width="8" x="61" y="67"/><rect height="6" rx="2" style="fill:url(#c)" width="8" x="61" y="75"/><rect height="6" rx="2" style="fill:url(#d)" width="8" x="61" y="83"/><rect height="6" rx="2" style="fill:url(#e)" width="8" x="61" y="91"/><rect height="6" rx="2" style="fill:url(#f)" width="8" x="61" y="99"/><rect height="14" rx="2" style="fill:url(#g)" width="36" x="71" y="67"/><rect height="14" rx="2" style="fill:url(#h)" width="36" x="71" y="83"/><rect height="6" rx="2" style="fill:url(#i)" width="36" x="71" y="99"/><path d="M116,65H106a8,8,0,0,1-8-8V47Z" style="opacity:0.2"/></svg>