<?xml version="1.0" encoding="utf-8"?><svg height="43" viewBox="0 0 43 43" width="43" xmlns="http://www.w3.org/2000/svg"><rect height="40" rx="3.5" style="fill:#e9e9e9" width="40" x="1.5" y="1.5"/><path d="M38,2a3,3,0,0,1,3,3V38a3,3,0,0,1-3,3H5a3,3,0,0,1-3-3V5A3,3,0,0,1,5,2H38m0-1H5A4,4,0,0,0,1,5V38a4,4,0,0,0,4,4H38a4,4,0,0,0,4-4V5a4,4,0,0,0-4-4Z" style="fill:#009bb9"/><line style="fill:none;stroke:#009bb9;stroke-linecap:round;stroke-linejoin:round" x1="10" x2="33" y1="10" y2="33"/><line style="fill:none;stroke:#009bb9;stroke-linecap:round;stroke-linejoin:round" x1="33" x2="10" y1="10" y2="33"/></svg>