<?xml version="1.0" encoding="utf-8"?><svg height="43" id="svg2" inkscape:version="1.3.2 (091e20e, 2023-11-25, custom)" sodipodi:docname="plate_move_front_hover_dark.svg" version="1.1" viewBox="0 0 43 43" width="43" xmlns="http://www.w3.org/2000/svg" xmlns:inkscape="http://www.inkscape.org/namespaces/inkscape" xmlns:sodipodi="http://sodipodi.sourceforge.net/DTD/sodipodi-0.dtd" xmlns:svg="http://www.w3.org/2000/svg">
  <defs id="defs2"/>
  <sodipodi:namedview bordercolor="#000000" borderopacity="0.25" id="namedview2" inkscape:current-layer="svg2" inkscape:cx="20.555528" inkscape:cy="24.85845" inkscape:deskcolor="#d1d1d1" inkscape:pagecheckerboard="0" inkscape:pageopacity="0.0" inkscape:showpageshadow="2" inkscape:window-height="1237" inkscape:window-maximized="0" inkscape:window-width="1350" inkscape:window-x="36" inkscape:window-y="759" inkscape:zoom="19.289215" pagecolor="#ffffff"/>
  <rect height="40" id="rect1" rx="3.5" style="fill:#54545a" width="40" x="1.5" y="1.5"/>
  <path d="M38,2a3,3,0,0,1,3,3V38a3,3,0,0,1-3,3H5a3,3,0,0,1-3-3V5A3,3,0,0,1,5,2H38m0-1H5A4,4,0,0,0,1,5V38a4,4,0,0,0,4,4H38a4,4,0,0,0,4-4V5a4,4,0,0,0-4-4Z" id="path1" style="fill:#009bb9"/>
  <line id="line1" style="fill:none;stroke:#009bb9;stroke-width:0.866675;stroke-linecap:round;stroke-linejoin:round" x1="9.7239828" x2="34.155807" y1="6.5068207" y2="6.5068207"/>
  <line id="line1-2" style="fill:none;stroke:#009bb9;stroke-linecap:round;stroke-linejoin:round" x1="22.228071" x2="22.228073" y1="7.6491632" y2="31.964647"/>
  <line id="line1-2-2" style="fill:none;stroke:#009bb9;stroke-width:0.675072;stroke-linecap:round;stroke-linejoin:round" x1="22.195042" x2="10.588115" y1="7.4747553" y2="19.081686"/>
  <line id="line1-2-2-7" style="fill:none;stroke:#009bb9;stroke-width:0.675072;stroke-linecap:round;stroke-linejoin:round" x1="33.868591" x2="22.261658" y1="19.080866" y2="7.4739408"/>
</svg>