<?xml version="1.0" encoding="utf-8"?><svg height="43" viewBox="0 0 43 43" width="43" xmlns="http://www.w3.org/2000/svg"><rect height="40" rx="3.5" style="fill:#ef754a" width="40" x="1.5" y="1.5"/><path d="M38,2a3,3,0,0,1,3,3V38a3,3,0,0,1-3,3H5a3,3,0,0,1-3-3V5A3,3,0,0,1,5,2H38m0-1H5A4,4,0,0,0,1,5V38a4,4,0,0,0,4,4H38a4,4,0,0,0,4-4V5a4,4,0,0,0-4-4Z" style="fill:#b3b3b3"/><line style="fill:none;stroke:#c4c4c4;stroke-linecap:square;stroke-linejoin:round" x1="6.5" x2="10.5" y1="12.5" y2="12.5"/><line style="fill:none;stroke:#c4c4c4;stroke-linecap:square;stroke-linejoin:round" x1="17.5" x2="36.5" y1="12.5" y2="12.5"/><rect height="12" rx="2" style="fill:none;stroke:#c4c4c4;stroke-linecap:square;stroke-linejoin:round" width="7" x="10.5" y="6.5"/><line style="fill:none;stroke:#c4c4c4;stroke-linecap:square;stroke-linejoin:round" x1="36.5" x2="32.5" y1="30.5" y2="30.5"/><line style="fill:none;stroke:#c4c4c4;stroke-linecap:square;stroke-linejoin:round" x1="25.5" x2="6.5" y1="30.5" y2="30.5"/><rect height="12" rx="2" style="fill:none;stroke:#c4c4c4;stroke-linecap:square;stroke-linejoin:round" transform="translate(58 61) rotate(-180)" width="7" x="25.5" y="24.5"/></svg>