<?xml version="1.0" encoding="utf-8"?><svg height="43" id="svg2" inkscape:version="1.3.2 (091e20e, 2023-11-25, custom)" sodipodi:docname="plate_move_front.svg" version="1.1" viewBox="0 0 43 43" width="43" xmlns="http://www.w3.org/2000/svg" xmlns:inkscape="http://www.inkscape.org/namespaces/inkscape" xmlns:sodipodi="http://sodipodi.sourceforge.net/DTD/sodipodi-0.dtd" xmlns:svg="http://www.w3.org/2000/svg">
  <defs id="defs2"/>
  <sodipodi:namedview bordercolor="#000000" borderopacity="0.25" id="namedview2" inkscape:current-layer="svg2" inkscape:cx="25.168582" inkscape:cy="21.588854" inkscape:deskcolor="#d1d1d1" inkscape:pagecheckerboard="0" inkscape:pageopacity="0.0" inkscape:showpageshadow="2" inkscape:window-height="1237" inkscape:window-maximized="0" inkscape:window-width="1610" inkscape:window-x="33" inkscape:window-y="721" inkscape:zoom="22.627417" pagecolor="#ffffff"/>
  <rect height="40" id="rect1" rx="3.5" style="fill:#e9e9e9;fill-opacity:1" width="40" x="1.5" y="1.5"/>
  <path d="M38,2a3,3,0,0,1,3,3V38a3,3,0,0,1-3,3H5a3,3,0,0,1-3-3V5A3,3,0,0,1,5,2H38m0-1H5A4,4,0,0,0,1,5V38a4,4,0,0,0,4,4H38a4,4,0,0,0,4-4V5a4,4,0,0,0-4-4Z" id="path1" style="fill:#545454"/>
  <line id="line1" style="fill:none;stroke:#545454;stroke-width:0.850459;stroke-linecap:round;stroke-linejoin:round" x1="33.471352" x2="9.9450846" y1="6.9334393" y2="6.9334393"/>
  <line id="line1-1" style="fill:none;stroke:#545454;stroke-width:0.714338;stroke-linecap:round;stroke-linejoin:round" x1="32.300442" x2="21.987902" y1="18.26045" y2="8.080493"/>
  <line id="line1-1-1" style="fill:none;stroke:#545454;stroke-width:0.720111;stroke-linecap:round;stroke-linejoin:round" x1="11.504755" x2="21.855713" y1="18.329735" y2="8.0229683"/>
  <line id="line1-1-1-2" style="fill:none;stroke:#545454;stroke-width:0.623622;stroke-linecap:round;stroke-linejoin:round" x1="21.938486" x2="21.938484" y1="36.433311" y2="8.6247864"/>
</svg>