<?xml version="1.0" encoding="utf-8"?><svg height="16" viewBox="0 0 16 16" width="16" xmlns="http://www.w3.org/2000/svg"><polyline points="2.5 4.5 0.5 4.5 0.5 0.5" style="fill:none;stroke:#009bb9;stroke-linecap:square;stroke-linejoin:round"/><line style="fill:none;stroke:#009bb9;stroke-linecap:square;stroke-linejoin:round" x1="5.5" x2="5.5" y1="4.5" y2="1.5"/><line style="fill:none;stroke:#009bb9;stroke-linecap:square;stroke-linejoin:round" x1="8.5" x2="8.5" y1="4.5" y2="1.5"/><line style="fill:none;stroke:#009bb9;stroke-linecap:square;stroke-linejoin:round" x1="7.5" x2="6.5" y1="0.5" y2="0.5"/><line style="fill:none;stroke:#009bb9;stroke-linecap:square;stroke-linejoin:round" x1="11.5" x2="11.5" y1="4.5" y2="0.5"/><line style="fill:none;stroke:#009bb9;stroke-linecap:round;stroke-linejoin:round" x1="14.5" x2="11.5" y1="4.5" y2="0.5"/><line style="fill:none;stroke:#009bb9;stroke-linecap:square;stroke-linejoin:round" x1="14.5" x2="14.5" y1="0.5" y2="4.5"/><line style="fill:none;stroke:#009bb9;stroke-linecap:square;stroke-linejoin:round" x1="5.5" x2="8.5" y1="3.5" y2="3.5"/><rect height="2" style="fill:none;stroke:#009bb9;stroke-linecap:round;stroke-linejoin:round" width="2" x="6.5" y="12.5"/><rect height="2" style="fill:none;stroke:#009bb9;stroke-linecap:round;stroke-linejoin:round" width="2" x="0.5" y="7.5"/><rect height="2" style="fill:none;stroke:#009bb9;stroke-linecap:round;stroke-linejoin:round" width="2" x="12.5" y="7.5"/><rect height="1" style="fill:#009bb9" transform="translate(21 17) rotate(180)" width="1" x="10" y="8"/><rect height="1" style="fill:#009bb9" transform="translate(17 17) rotate(180)" width="1" x="8" y="8"/><rect height="1" style="fill:#009bb9" transform="translate(13 17) rotate(180)" width="1" x="6" y="8"/><rect height="1" style="fill:#009bb9" transform="translate(9 17) rotate(180)" width="1" x="4" y="8"/><rect height="1" style="fill:#009bb9" transform="translate(15 21) rotate(180)" width="1" x="7" y="10"/></svg>