<?xml version="1.0" encoding="UTF-8" standalone="no"?>
<!-- Created with Inkscape (http://www.inkscape.org/) -->

<svg
   width="560"
   height="125"
   viewBox="0 0 148.16666 33.072916"
   version="1.1"
   id="svg1"
   xml:space="preserve"
   xmlns="http://www.w3.org/2000/svg"
   xmlns:svg="http://www.w3.org/2000/svg"><defs
     id="defs1" /><g
     id="layer1"><g
       id="g22"
       transform="translate(-30.95625,-16.536457)"><path
         style="fill:#0095b3"
         d="m 31.220831,48.947917 v -0.661459 h 73.818749 73.81876 v 0.661459 0.661458 H 105.03958 31.220831 Z m 5.937965,-16.382535 c -0.282246,-0.206383 -0.430986,-0.457431 -0.330534,-0.557883 0.100453,-0.100453 1.464283,-0.570835 3.030735,-1.045295 1.566452,-0.474459 2.878401,-0.967553 2.915442,-1.095763 0.03704,-0.128209 -0.548998,-0.649827 -1.302308,-1.15915 -0.753311,-0.509323 -1.359385,-1.045104 -1.346832,-1.190625 0.01255,-0.145521 0.871683,-0.779297 1.909178,-1.408391 1.037495,-0.629093 1.886354,-1.301369 1.886354,-1.493945 0,-0.192576 -0.426863,-0.724929 -0.948584,-1.183007 l -0.948585,-0.832868 -0.76426,0.483895 c -1.756133,1.111905 -6.334405,4.576992 -6.334405,4.794225 0,0.129394 0.625079,0.459962 1.389063,0.734595 0.763984,0.274634 1.389063,0.654663 1.389063,0.844509 0,0.189847 -0.553674,0.659338 -1.230386,1.043314 -1.094564,0.62107 -1.281738,0.655635 -1.695577,0.313113 -1.355376,-1.121802 -1.83181,-4.277298 -0.936994,-6.205857 1.488325,-3.207724 5.083389,-4.447813 8.245646,-2.844271 2.028306,1.028529 2.967084,2.450747 3.111152,4.713295 0.183955,2.888954 -1.088306,5.067374 -3.563497,6.101575 -1.146729,0.479134 -3.813079,0.472302 -4.474671,-0.01147 z m 9.725369,-0.471424 c -0.174625,-0.174625 -0.3175,-0.508 -0.3175,-0.740834 0,-0.877768 0.586835,-1.058333 3.439583,-1.058333 2.97416,0 3.439583,-0.167009 3.439583,-1.234233 0,-0.874506 -0.756476,-1.147017 -3.184064,-1.147017 -2.104283,0 -2.183934,-0.02341 -3.060102,-0.899584 -0.737182,-0.737181 -0.899584,-1.099992 -0.899584,-2.009697 0,-1.334426 0.644817,-2.521081 1.580546,-2.908672 0.404341,-0.167484 2.094442,-0.253554 4.116766,-0.209652 l 3.430814,0.07448 v 0.79375 0.79375 l -2.910417,0.132291 c -1.600729,0.07276 -3.059245,0.228616 -3.241146,0.346344 -0.181901,0.117729 -0.330729,0.507629 -0.330729,0.866445 0,0.859518 0.840739,1.168461 3.179775,1.168461 2.132558,0 3.066229,0.35434 3.586942,1.361288 0.463299,0.895921 0.481727,2.514614 0.03872,3.401213 -0.611622,1.224058 -1.836922,1.586634 -5.36346,1.587089 -2.127459,2.74e-4 -3.293866,-0.105226 -3.505729,-0.317089 z m 13.043958,-0.179116 c -1.967535,-0.914506 -2.778125,-2.385947 -2.778125,-5.043054 0,-2.702574 1.563971,-4.813913 3.614168,-4.879078 0.91294,-0.02902 1.024301,0.03911 1.097447,0.671336 0.06326,0.54677 -0.09645,0.808692 -0.71639,1.174902 -1.091594,0.64482 -1.432572,1.619726 -1.299183,3.714557 0.105559,1.657773 0.171422,1.811698 1.113717,2.602802 0.745166,0.625605 0.978349,1.004217 0.910987,1.479142 -0.116161,0.818963 -0.624465,0.892069 -1.942621,0.279393 z m 2.689931,0.320227 c -0.482146,-0.482146 -0.117236,-1.36071 0.815799,-1.964131 1.219969,-0.78899 1.703649,-2.008333 1.504272,-3.792225 -0.191997,-1.717861 -0.500992,-2.236431 -1.608279,-2.699085 -0.773019,-0.322988 -0.907996,-0.500373 -0.838599,-1.10208 0.07613,-0.660091 0.173139,-0.715243 1.219602,-0.693379 1.916932,0.04005 3.316114,1.438494 3.748539,3.746559 0.308372,1.645933 -0.02654,3.842419 -0.736245,4.828646 -0.832084,1.156283 -3.52518,2.255603 -4.105089,1.675695 z m 9.974684,-0.0261 c -0.33669,-0.218183 -4.330239,-9.485739 -4.330239,-10.048891 0,-0.264378 0.326647,-0.339372 1.220912,-0.280305 l 1.220912,0.08064 1.358776,3.439583 c 0.747326,1.891771 1.477837,3.421959 1.623358,3.400418 0.145521,-0.02154 0.876993,-1.569354 1.625493,-3.439584 l 1.360909,-3.400417 1.218778,-0.08064 c 0.820801,-0.05431 1.218779,0.02377 1.218779,0.239108 0,0.368309 -3.938515,9.464043 -4.313548,9.961847 -0.270173,0.358618 -1.718578,0.442888 -2.20413,0.128241 z m 10.354136,-0.145307 c -1.529521,-0.604414 -2.033458,-1.026837 -2.530224,-2.120947 -0.698517,-1.538459 -0.690352,-4.405094 0.01671,-5.865682 0.977966,-2.020207 3.995219,-3.032965 4.183278,-1.404141 0.06542,0.566648 -0.0819,0.797365 -0.71976,1.127218 -0.98051,0.507041 -1.275476,1.023522 -1.368148,2.395608 -0.158963,2.353566 -0.02805,2.811903 1.100774,3.854031 0.778181,0.718413 1.055129,1.167893 0.992187,1.6103 -0.102597,0.721141 -0.580087,0.836211 -1.674813,0.403613 z m 2.425347,0.171407 c -0.45958,-0.459581 -0.139895,-1.416394 0.6013,-1.799681 1.230331,-0.636229 1.603562,-1.387951 1.603562,-3.229728 0,-2.055872 -0.353183,-2.852482 -1.507528,-3.400255 -0.743536,-0.352831 -0.890443,-0.55577 -0.823236,-1.13723 0.07503,-0.649186 0.175893,-0.705794 1.218697,-0.684006 2.262804,0.04728 3.7579,2.090504 3.7579,5.135622 0,2.379088 -0.759688,3.883733 -2.371167,4.696354 -1.174102,0.592066 -2.142733,0.755719 -2.479528,0.418924 z m 8.124197,-0.325914 c -1.653702,-0.758901 -1.988639,-1.886733 -1.893765,-6.376864 l 0.07547,-3.571875 h 1.058334 1.058333 l 0.132292,3.75812 c 0.09052,2.571373 0.240595,3.86641 0.47526,4.101042 0.192902,0.192876 1.234821,0.400806 2.38125,0.475213 l 2.038282,0.132292 v 0.926041 0.926042 l -2.116667,0.06559 c -1.620734,0.05022 -2.37255,-0.05184 -3.20879,-0.435599 z"
         id="path23" /><path
         style="fill:#000404"
         d="M 30.99589,33.139062 30.95625,16.536457 h 74.08333 74.08334 l -0.0396,16.602605 c -0.0218,9.131433 -0.0892,16.275183 -0.14987,15.875 l -0.11022,-0.727604 H 105.03958 31.255979 l -0.110223,0.727604 c -0.06062,0.400183 -0.128062,-6.743567 -0.149866,-15.875 z m 10.637577,-0.562214 c 2.475191,-1.034201 3.747452,-3.212621 3.563497,-6.101575 -0.144068,-2.262548 -1.082846,-3.684766 -3.111152,-4.713295 -3.162257,-1.603542 -6.757321,-0.363453 -8.245646,2.844271 -0.894816,1.928559 -0.418382,5.084055 0.936994,6.205857 0.413839,0.342522 0.601013,0.307957 1.695577,-0.313113 0.676712,-0.383976 1.230386,-0.853467 1.230386,-1.043314 0,-0.189846 -0.625079,-0.569875 -1.389063,-0.844509 -0.763984,-0.274633 -1.389063,-0.605201 -1.389063,-0.734595 0,-0.217233 4.578272,-3.68232 6.334405,-4.794225 l 0.76426,-0.483895 0.948585,0.832868 c 0.521721,0.458078 0.948584,0.990431 0.948584,1.183007 0,0.192576 -0.848859,0.864852 -1.886354,1.493945 -1.037495,0.629094 -1.896625,1.26287 -1.909178,1.408391 -0.01255,0.145521 0.593521,0.681302 1.346832,1.190625 0.75331,0.509323 1.339348,1.030941 1.302308,1.15915 -0.03704,0.12821 -1.34899,0.621304 -2.915442,1.095763 -1.566452,0.47446 -2.930282,0.944842 -3.030735,1.045295 -0.100452,0.100452 0.04829,0.3515 0.330534,0.557883 0.661592,0.483768 3.327942,0.4906 4.474671,0.01147 z m 12.867017,-0.628822 c 1.090828,-0.547105 1.581925,-1.410581 1.58728,-2.790853 0.005,-1.286454 -0.561897,-2.377748 -1.443914,-2.779622 -0.381563,-0.173851 -1.513835,-0.316094 -2.51616,-0.316094 -2.339036,0 -3.179775,-0.308943 -3.179775,-1.168461 0,-0.358816 0.148828,-0.748716 0.330729,-0.866445 0.181901,-0.117728 1.640417,-0.273583 3.241146,-0.346344 l 2.910417,-0.132291 v -0.79375 -0.79375 l -3.430814,-0.07448 c -2.022324,-0.0439 -3.712425,0.04217 -4.116766,0.209652 -0.935729,0.387591 -1.580546,1.574246 -1.580546,2.908672 0,0.909705 0.162402,1.272516 0.899584,2.009697 0.876168,0.876169 0.955819,0.899584 3.060102,0.899584 2.427588,0 3.184064,0.272511 3.184064,1.147017 0,1.067224 -0.465423,1.234233 -3.439583,1.234233 -2.852748,0 -3.439583,0.180565 -3.439583,1.058333 0,0.898905 0.576188,1.058341 3.823229,1.057923 2.506647,-3.24e-4 3.385412,-0.09931 4.11059,-0.463021 z m 7.37026,-0.312577 c 0.06736,-0.474925 -0.165821,-0.853537 -0.910987,-1.479142 -0.942295,-0.791104 -1.008158,-0.945029 -1.113717,-2.602802 -0.133389,-2.094831 0.207589,-3.069737 1.299183,-3.714557 0.619943,-0.36621 0.779649,-0.628132 0.71639,-1.174902 -0.07315,-0.632231 -0.184507,-0.700353 -1.097447,-0.671336 -2.050197,0.06517 -3.614168,2.176504 -3.614168,4.879078 0,2.657107 0.81059,4.128548 2.778125,5.043054 1.318156,0.612676 1.82646,0.53957 1.942621,-0.279393 z m 3.211348,0.180696 c 1.47136,-0.751828 2.049108,-1.55559 2.377296,-3.307292 0.654547,-3.493638 -1.054502,-6.468398 -3.748539,-6.524684 -1.046463,-0.02186 -1.143471,0.03329 -1.219602,0.693379 -0.0694,0.601707 0.06558,0.779092 0.838599,1.10208 1.107287,0.462654 1.416282,0.981224 1.608279,2.699085 0.199377,1.783892 -0.284303,3.003235 -1.504272,3.792225 -0.933035,0.603421 -1.297945,1.481985 -0.815799,1.964131 0.337424,0.337424 1.306156,0.172725 2.464038,-0.418924 z m 9.714776,0.264583 c 0.375033,-0.497804 4.313548,-9.593538 4.313548,-9.961847 0,-0.21534 -0.397978,-0.293418 -1.218779,-0.239108 l -1.218778,0.08064 -1.360909,3.400417 c -0.7485,1.87023 -1.479972,3.418043 -1.625493,3.439584 -0.145521,0.02154 -0.876032,-1.508647 -1.623358,-3.400418 l -1.358776,-3.439583 -1.220912,-0.08064 c -0.894265,-0.05907 -1.220912,0.01593 -1.220912,0.280305 0,0.563152 3.993549,9.830708 4.330239,10.048891 0.485552,0.314647 1.933957,0.230377 2.20413,-0.128241 z m 9.824819,-0.420679 c 0.06294,-0.442407 -0.214006,-0.891887 -0.992187,-1.6103 -1.128828,-1.042128 -1.259737,-1.500465 -1.100774,-3.854031 0.09267,-1.372086 0.387638,-1.888567 1.368148,-2.395608 0.637864,-0.329853 0.785184,-0.56057 0.71976,-1.127218 -0.188059,-1.628824 -3.205312,-0.616066 -4.183278,1.404141 -0.707058,1.460588 -0.715223,4.327223 -0.01671,5.865682 0.496766,1.09411 1.000703,1.516533 2.530224,2.120947 1.094726,0.432598 1.572216,0.317528 1.674813,-0.403613 z m 3.230062,0.156096 c 1.611479,-0.812621 2.371167,-2.317266 2.371167,-4.696354 0,-3.045118 -1.495096,-5.088346 -3.7579,-5.135622 -1.042804,-0.02179 -1.143662,0.03482 -1.218697,0.684006 -0.06721,0.58146 0.0797,0.784399 0.823236,1.13723 1.154345,0.547773 1.507528,1.344383 1.507528,3.400255 0,1.841777 -0.373231,2.593499 -1.603562,3.229728 -0.741195,0.383287 -1.06088,1.3401 -0.6013,1.799681 0.336795,0.336795 1.305426,0.173142 2.479528,-0.418924 z m 10.970126,-0.463021 v -0.926041 l -2.038282,-0.132292 c -1.146429,-0.07441 -2.188348,-0.282337 -2.38125,-0.475213 -0.234665,-0.234632 -0.384744,-1.529669 -0.47526,-4.101042 l -0.132292,-3.75812 h -1.058333 -1.058334 l -0.07547,3.571875 c -0.09487,4.490131 0.240063,5.617963 1.893765,6.376864 0.83624,0.38376 1.588056,0.48582 3.20879,0.435599 l 2.116667,-0.06559 z"
         id="path22" /></g></g></svg>
