<?xml version="1.0" encoding="UTF-8" standalone="no"?>
<!-- Created with Inkscape (http://www.inkscape.org/) -->

<svg
   width="560"
   height="125"
   viewBox="0 0 148.16666 33.072916"
   version="1.1"
   id="svg1"
   xml:space="preserve"
   xmlns="http://www.w3.org/2000/svg"
   xmlns:svg="http://www.w3.org/2000/svg"><defs
     id="defs1" /><g
     id="layer1"><g
       id="g23"
       transform="translate(-30.95625,-16.536457)"><path
         style="fill:#fafcfc"
         d="M 30.99589,33.139062 30.95625,16.536457 h 74.08333 74.08334 l -0.0396,16.602605 c -0.0218,9.131433 -0.0892,16.275183 -0.14987,15.875 l -0.11022,-0.727604 H 105.03958 31.255979 l -0.110223,0.727604 c -0.06062,0.400183 -0.128062,-6.743567 -0.149866,-15.875 z m 11.517783,1.163319 c 2.21001,-1.136511 3.369667,-3.072807 3.382618,-5.648007 0.01293,-2.570215 -0.181374,-2.63719 -2.875153,-0.99107 -1.251419,0.76472 -2.274692,1.520816 -2.273941,1.680214 7.51e-4,0.159398 0.65498,0.706533 1.453842,1.215856 0.798863,0.509323 1.453092,1.059121 1.453843,1.221772 7.51e-4,0.162652 -1.397619,0.705493 -3.107489,1.206313 -2.096048,0.613932 -3.108854,1.03392 -3.108854,1.289171 0,0.885226 3.370582,0.902328 5.075134,0.02575 z m 13.776507,-0.56796 c 1.274941,-0.839445 1.753878,-3.024866 0.987631,-4.506624 -0.615283,-1.189827 -1.639493,-1.57884 -4.156844,-1.57884 -2.368553,0 -3.379302,-0.394518 -3.379302,-1.31902 0,-1.108963 0.650087,-1.326813 3.959341,-1.326813 2.655535,0 3.152948,-0.06555 3.294393,-0.434149 0.09163,-0.238782 0.09634,-0.6555 0.01048,-0.926041 -0.142626,-0.449376 -0.484434,-0.491893 -3.954449,-0.491893 -3.678623,0 -3.823427,0.02112 -4.594717,0.670117 -1.589024,1.337075 -1.651257,3.494234 -0.141749,4.913372 0.597853,0.56206 0.965744,0.644546 3.233468,0.724986 2.768221,0.09819 3.484902,0.411348 3.484902,1.522737 0,1.119956 -0.893989,1.429205 -4.131605,1.429205 -3.15402,0 -3.513751,0.159308 -3.125066,1.383948 0.154239,0.485964 0.386881,0.510336 4.040896,0.423341 2.855571,-0.06799 4.034121,-0.195608 4.472624,-0.484326 z m 7.421803,-0.309444 c 0.0597,-0.498485 -0.148958,-0.839865 -0.83155,-1.360503 -1.977446,-1.508271 -1.887721,-5.906133 0.141909,-6.955695 0.513663,-0.265626 0.74224,-0.587992 0.74224,-1.046795 0,-0.906288 -0.59307,-1.059475 -2.008707,-0.518839 -1.692444,0.646351 -2.521379,1.974634 -2.686309,4.304534 -0.225691,3.188241 0.792352,5.247375 2.975224,6.017808 1.31566,0.464355 1.566776,0.398004 1.667193,-0.44051 z m 3.76576,0.243252 c 0.76724,-0.387254 1.390879,-0.965195 1.784402,-1.653646 0.533738,-0.933752 0.596157,-1.356736 0.530256,-3.593292 -0.0686,-2.328187 -0.136888,-2.616433 -0.837176,-3.533803 -0.830865,-1.088426 -2.073604,-1.736447 -3.330062,-1.736447 -0.678263,0 -0.802248,0.101713 -0.802248,0.658139 0,0.476704 0.283022,0.836803 1.026631,1.306223 1.151127,0.726674 1.619203,1.736633 1.619203,3.493724 0,1.769625 -0.711122,3.265641 -1.760774,3.704214 -0.643085,0.268698 -0.88506,0.537617 -0.88506,0.983612 0,0.337596 0.07937,0.693185 0.176389,0.790199 0.336839,0.336839 1.305477,0.173113 2.478439,-0.418923 z m 10.567458,-0.132292 c 1.31872,-2.800319 4.240215,-9.708639 4.240215,-10.026634 0,-0.293654 -0.274936,-0.368796 -1.124479,-0.307329 l -1.12448,0.08136 -1.575234,3.906693 c -0.866378,2.148682 -1.68838,3.868978 -1.826669,3.822881 -0.13829,-0.0461 -0.922734,-1.804108 -1.743209,-3.906693 l -1.491773,-3.822881 -1.015903,-0.0842 c -0.558747,-0.04631 -1.117231,0.01713 -1.241075,0.140976 -0.123845,0.123845 0.798105,2.63228 2.048778,5.574301 l 2.273951,5.349128 h 1.118619 c 0.960857,0 1.166941,-0.102615 1.461259,-0.727604 z m 10.2756,-0.119426 c 0.06587,-0.56867 -0.0833,-0.795829 -0.748447,-1.13979 -1.056845,-0.546516 -1.583863,-1.801371 -1.578871,-3.75937 0.0047,-1.825569 0.382638,-2.669315 1.514818,-3.381419 0.606894,-0.381716 0.844995,-0.73294 0.85234,-1.257287 0.0084,-0.597325 -0.10516,-0.727604 -0.634042,-0.727604 -1.624102,0 -3.35324,1.280757 -3.898943,2.887912 -0.177141,0.521701 -0.318276,1.798087 -0.313633,2.836414 0.0128,2.862859 0.957226,4.25412 3.533893,5.20589 0.747901,0.27626 1.190676,0.04503 1.272885,-0.664746 z m 2.987112,0.545796 c 2.331379,-0.780863 3.43977,-3.145885 3.026087,-6.45689 -0.302502,-2.421147 -1.804862,-4.043962 -3.969692,-4.287969 -1.239451,-0.139704 -1.241797,-0.13844 -1.154704,0.622451 0.05807,0.507298 0.314242,0.870687 0.76553,1.085911 1.32683,0.632783 1.688264,1.312245 1.792127,3.369031 0.118143,2.339566 -0.349908,3.447034 -1.69421,4.008719 -0.664759,0.277754 -0.908468,0.544246 -0.908468,0.993393 0,1.047232 0.520635,1.208853 2.14333,0.665354 z m 12.276457,-0.624808 v -0.79375 l -2.07745,-0.168676 c -2.950028,-0.239524 -2.921842,-0.1932 -3.08192,-5.06532 l -0.132292,-4.026421 -0.898296,-0.08577 c -0.540241,-0.05158 -0.986837,0.05388 -1.120428,0.264583 -0.266351,0.420103 -0.262783,5.288197 0.0055,7.436871 0.32499,2.60331 1.554,3.360126 5.320566,3.276365 l 1.98437,-0.04413 z M 36.703025,32.259026 c 0.639683,-0.374879 1.123357,-0.800705 1.074833,-0.94628 -0.04853,-0.145574 -0.737394,-0.523464 -1.530819,-0.839755 -0.793426,-0.316291 -1.438238,-0.694138 -1.432915,-0.839658 0.01037,-0.283417 7.229957,-5.665163 7.619431,-5.679803 0.127884,-0.0048 0.704019,0.417235 1.2803,0.937871 1.110009,1.002827 1.503993,1.052086 1.00841,0.126081 -0.476376,-0.890117 -2.28225,-2.052652 -3.726946,-2.399229 -4.236504,-1.016322 -8.495358,3.281801 -7.38576,7.453859 0.356084,1.338863 1.233023,2.868512 1.644501,2.868512 0.157248,0 0.809282,-0.306719 1.448965,-0.681598 z"
         id="path24" /><path
         style="fill:#1ba4bf"
         d="m 31.220831,48.947917 v -0.661459 h 73.818749 73.81876 v 0.661459 0.661458 H 105.03958 31.220831 Z m 7.011458,-14.108564 c -1.583286,-0.36729 -0.907243,-0.908069 2.315104,-1.851894 1.70987,-0.50082 3.10824,-1.043661 3.107489,-1.206313 -7.51e-4,-0.162651 -0.65498,-0.712449 -1.453843,-1.221772 -0.798862,-0.509323 -1.453091,-1.056458 -1.453842,-1.215856 -7.51e-4,-0.159398 1.022522,-0.915494 2.273941,-1.680214 2.693779,-1.64612 2.888079,-1.579145 2.875153,0.99107 -0.0096,1.912523 -0.44533,3.051043 -1.674936,4.376627 -1.398777,1.507961 -3.95579,2.280031 -5.989066,1.808352 z m 9.544371,-1.043947 c -0.388685,-1.22464 -0.02895,-1.383948 3.125066,-1.383948 3.237616,0 4.131605,-0.309249 4.131605,-1.429205 0,-1.111389 -0.716681,-1.424545 -3.484902,-1.522737 -2.267724,-0.08044 -2.635615,-0.162926 -3.233468,-0.724986 -1.509508,-1.419138 -1.447275,-3.576297 0.141749,-4.913372 0.77129,-0.648998 0.916094,-0.670117 4.594717,-0.670117 3.470015,0 3.811823,0.04252 3.954449,0.491893 0.08587,0.270541 0.08115,0.687259 -0.01048,0.926041 -0.141445,0.368598 -0.638858,0.434149 -3.294393,0.434149 -3.309254,0 -3.959341,0.21785 -3.959341,1.326813 0,0.924502 1.010749,1.31902 3.379302,1.31902 1.451863,0 2.46791,0.136874 2.979358,0.401354 1.455845,0.752847 1.987758,2.757984 1.182042,4.455905 -0.688473,1.450849 -1.199465,1.61098 -5.464811,1.712531 -3.654015,0.087 -3.886657,0.06262 -4.040896,-0.423341 z m 14.26813,0.07008 c -2.182872,-0.770433 -3.200915,-2.829567 -2.975224,-6.017808 0.16493,-2.3299 0.993865,-3.658183 2.686309,-4.304534 1.415637,-0.540636 2.008707,-0.387449 2.008707,0.518839 0,0.458803 -0.228577,0.781169 -0.74224,1.046795 -2.02963,1.049562 -2.119355,5.447424 -0.141909,6.955695 0.682592,0.520638 0.891246,0.862018 0.83155,1.360503 -0.100417,0.838514 -0.351533,0.904865 -1.667193,0.44051 z m 2.954514,0.221665 c -0.09701,-0.09701 -0.176389,-0.452603 -0.176389,-0.790199 0,-0.445995 0.241975,-0.714914 0.88506,-0.983612 1.049652,-0.438573 1.760774,-1.934589 1.760774,-3.704214 0,-1.757091 -0.468076,-2.76705 -1.619203,-3.493724 -0.743609,-0.46942 -1.026631,-0.829519 -1.026631,-1.306223 0,-0.556426 0.123985,-0.658139 0.802248,-0.658139 1.256458,0 2.499197,0.648021 3.330062,1.736447 0.700288,0.91737 0.768575,1.205616 0.837176,3.533803 0.0659,2.236556 0.0035,2.65954 -0.530256,3.593292 -0.838254,1.466489 -3.550326,2.785084 -4.262841,2.072569 z m 8.192068,-5.172739 c -1.250673,-2.942021 -2.172623,-5.450456 -2.048778,-5.574301 0.123844,-0.123844 0.682328,-0.187284 1.241075,-0.140976 l 1.015903,0.0842 1.491773,3.822881 c 0.820475,2.102585 1.604919,3.860597 1.743209,3.906693 0.138289,0.0461 0.960291,-1.674199 1.826669,-3.822881 l 1.575234,-3.906693 1.12448,-0.08136 c 0.849543,-0.06147 1.124479,0.01367 1.124479,0.307329 0,0.317995 -2.921495,7.226315 -4.240215,10.026634 -0.294318,0.624989 -0.500402,0.727604 -1.461259,0.727604 h -1.118619 z m 13.856544,5.166844 c -1.546879,-0.571387 -2.207314,-1.06879 -2.830083,-2.131464 -0.571432,-0.975076 -0.696873,-1.523033 -0.70381,-3.074426 -0.0046,-1.038327 0.136492,-2.314713 0.313633,-2.836414 0.545703,-1.607155 2.274841,-2.887912 3.898943,-2.887912 0.528882,0 0.642409,0.130279 0.634042,0.727604 -0.0073,0.524347 -0.245446,0.875571 -0.85234,1.257287 -1.13218,0.712104 -1.510164,1.55585 -1.514818,3.381419 -0.005,1.957999 0.522026,3.212854 1.578871,3.75937 0.665149,0.343961 0.814313,0.57112 0.748447,1.13979 -0.08221,0.709773 -0.524984,0.941006 -1.272885,0.664746 z m 2.293056,0.0059 c -0.09701,-0.09701 -0.176389,-0.452603 -0.176389,-0.790199 0,-0.449147 0.243709,-0.715639 0.908468,-0.993393 1.344302,-0.561685 1.812353,-1.669153 1.69421,-4.008719 -0.103863,-2.056786 -0.465297,-2.736248 -1.792127,-3.369031 -0.451288,-0.215224 -0.707464,-0.578613 -0.76553,-1.085911 -0.08709,-0.760891 -0.08475,-0.762155 1.154704,-0.622451 2.16483,0.244007 3.66719,1.866822 3.969692,4.287969 0.304899,2.440332 -0.237072,4.454205 -1.506257,5.596994 -0.958969,0.863466 -3.024652,1.446861 -3.486771,0.984741 z m 9.381172,-0.08366 c -1.443449,-0.348984 -2.222289,-1.338825 -2.442708,-3.104475 -0.268235,-2.148674 -0.271803,-7.016768 -0.0055,-7.436871 0.133591,-0.210707 0.580187,-0.316168 1.120428,-0.264583 l 0.898296,0.08577 0.132292,4.026421 c 0.160078,4.87212 0.131892,4.825796 3.081918,5.06532 l 2.07745,0.168676 v 0.79375 0.79375 L 101.6,34.175378 c -1.09141,0.02427 -2.386442,-0.05308 -2.877856,-0.17189 z m -64.28053,-1.92276 c -2.278066,-3.720312 -0.30919,-8.407167 3.978903,-9.471663 2.15398,-0.534715 5.38814,0.701325 6.301748,2.408417 0.495583,0.926005 0.101599,0.876746 -1.00841,-0.126081 -0.576281,-0.520636 -1.152416,-0.942677 -1.2803,-0.937871 -0.389474,0.01464 -7.609064,5.396386 -7.619431,5.679803 -0.0053,0.14552 0.639489,0.523367 1.432915,0.839658 0.793425,0.316291 1.482294,0.694181 1.530819,0.839755 0.09065,0.271956 -2.011517,1.627878 -2.523798,1.627878 -0.157247,0 -0.522848,-0.386953 -0.812446,-0.859896 z"
         id="path23" /></g></g></svg>
