<?xml version="1.0" encoding="UTF-8" standalone="no"?>
<!-- Created with Inkscape (http://www.inkscape.org/) -->

<svg
   width="480"
   height="480"
   viewBox="0 0 127 127"
   version="1.1"
   id="svg1"
   xml:space="preserve"
   inkscape:version="1.4.2 (f4327f4, 2025-05-13)"
   sodipodi:docname="splash_logo.svg"
   xmlns:inkscape="http://www.inkscape.org/namespaces/inkscape"
   xmlns:sodipodi="http://sodipodi.sourceforge.net/DTD/sodipodi-0.dtd"
   xmlns="http://www.w3.org/2000/svg"
   xmlns:svg="http://www.w3.org/2000/svg"><sodipodi:namedview
     id="namedview1"
     pagecolor="#ffffff"
     bordercolor="#111111"
     borderopacity="1"
     inkscape:showpageshadow="0"
     inkscape:pageopacity="0"
     inkscape:pagecheckerboard="1"
     inkscape:deskcolor="#d1d1d1"
     inkscape:document-units="mm"
     inkscape:zoom="0.7349537"
     inkscape:cx="396.62362"
     inkscape:cy="234.70866"
     inkscape:window-width="1920"
     inkscape:window-height="1027"
     inkscape:window-x="-8"
     inkscape:window-y="-8"
     inkscape:window-maximized="1"
     inkscape:current-layer="layer1" /><defs
     id="defs1" /><g
     inkscape:label="图层 1"
     inkscape:groupmode="layer"
     id="layer1"><g
       id="g66"
       transform="translate(-41.539585,1.3229166)"><path
         style="fill:#fcfdfd"
         d="M 41.539585,62.177083 V -1.3229166 h 63.500005 63.5 V 62.177083 125.67708 h -63.5 -63.500005 z m 38.891283,20.146609 c 0.539707,-0.289447 1.171764,-0.968041 1.540242,-1.653645 l 0.624923,-1.162755 -0.124834,-1.65358 C 82.335964,76.062376 81.883392,75.146463 80.773413,74.417747 L 80.062528,73.951042 76.977639,73.807277 73.89275,73.663511 73.194292,73.205865 72.495835,72.748218 v -0.878935 c 0,-0.51014 0.199694,-1.059656 0.475923,-1.309639 L 73.44768,70.12894 77.53582,70.05562 81.62396,69.9823 V 68.791675 67.60105 l -4.780935,-0.07193 -4.780935,-0.07193 -0.907607,0.604588 c -2.486951,1.656645 -2.573738,5.648064 -0.161969,7.449115 l 0.745637,0.556823 3.179979,0.132292 3.17998,0.132292 0.638446,0.742358 c 0.770089,0.895427 0.804979,1.506587 0.133426,2.337184 l -0.50502,0.624624 -4.191334,0.132292 -4.191335,0.132292 -0.08479,0.885083 c -0.04663,0.486796 -0.0206,1.052343 0.05784,1.256771 l 0.14263,0.371687 h 4.708786 4.708786 z m 10.00569,-0.620672 0.08135,-0.979272 -1.093756,-0.690458 c -0.658556,-0.415728 -1.265341,-1.078845 -1.524986,-1.666562 l -0.43123,-0.976103 -0.0031,-2.39038 -0.0031,-2.39038 0.532363,-0.916912 c 0.292799,-0.504301 0.979362,-1.208487 1.525696,-1.564858 l 0.993334,-0.647946 -0.07898,-0.939554 -0.07898,-0.939553 -0.599904,-0.08515 c -1.805418,-0.256258 -4.253093,1.573326 -5.003103,3.739711 l -0.475171,1.372522 -8.17e-4,2.645972 -8.16e-4,2.645973 0.741138,1.514831 c 0.407625,0.833157 1.107056,1.775387 1.554289,2.093846 1.006012,0.716343 2.551406,1.292241 3.255217,1.21307 l 0.529167,-0.05952 z m 4.154255,0.61812 c 1.438211,-0.653365 2.669204,-2.126872 3.161373,-3.784183 0.523355,-1.762327 0.523355,-5.028254 0,-6.79058 -0.727677,-2.450354 -2.934652,-4.258466 -5.214163,-4.271816 l -0.992188,-0.0058 v 1.045952 1.045953 l 1.143533,0.505839 1.143533,0.505839 0.483363,1.01861 c 0.620347,1.307285 0.825312,4.178127 0.419172,5.871112 -0.338826,1.412384 -1.233716,2.48389 -2.461997,2.947897 l -0.727604,0.274867 v 1.064882 1.064882 l 0.992188,-0.0058 c 0.545703,-0.0032 1.469458,-0.222631 2.05279,-0.487633 z m 13.550547,0.162714 c 0.30957,-0.399718 5.89406,-14.375958 5.89406,-14.75102 0,-0.391175 -2.83851,-0.329831 -3.08383,0.06665 -0.11255,0.181901 -1.04914,2.644803 -2.08131,5.473115 -1.03217,2.828312 -1.99987,5.183451 -2.15045,5.233642 -0.15057,0.05019 -1.1635,-2.382944 -2.25096,-5.406969 l -1.97719,-5.498225 -1.50417,-0.07935 -1.504175,-0.07935 v 0.417963 c 0,0.5311 5.225005,14.158276 5.603515,14.614349 0.36306,0.437469 2.71732,0.444559 3.05451,0.0092 z m 13.24877,-0.871064 0.0787,-1.069501 -0.92662,-0.441871 c -0.50963,-0.243028 -1.13301,-0.833315 -1.38527,-1.311748 l -0.45866,-0.869878 -0.1123,-2.407941 -0.11229,-2.407942 0.54254,-1.226513 0.54255,-1.226513 0.94249,-0.449446 0.9425,-0.449445 V 68.610371 67.46875 h -0.79663 c -1.25117,0 -3.15344,1.037132 -3.97014,2.164551 -1.04415,1.441402 -1.40911,3.254163 -1.26176,6.26716 l 0.12464,2.548497 0.54495,1.058334 c 0.29972,0.582083 0.82442,1.318834 1.16601,1.637223 0.81211,0.75697 2.85961,1.686554 3.53147,1.603327 l 0.52917,-0.06555 z m 5.09588,0.297117 c 1.9202,-1.27073 2.6957,-3.174181 2.70359,-6.635949 0.006,-2.479366 -0.59358,-4.794213 -1.52876,-5.905615 -0.82386,-0.979093 -2.74532,-1.899593 -3.96525,-1.899593 h -0.92892 v 1.056251 1.056251 l 0.99219,0.465103 0.99218,0.465103 0.63013,1.270762 0.63013,1.270762 v 2.051963 2.051963 l -0.5417,1.224591 -0.54169,1.224591 -1.08062,0.551291 -1.08062,0.55129 v 0.876568 c 0,0.482111 0.0893,0.967329 0.19844,1.078261 0.38313,0.38942 2.46799,-0.05681 3.5209,-0.753593 z m 14.6692,-0.41824 v -1.190625 l -2.64583,-0.143538 c -2.83293,-0.153689 -3.40708,-0.307062 -3.74872,-1.001399 -0.11976,-0.24341 -0.2778,-2.942876 -0.35118,-5.998813 l -0.13344,-5.55625 h -1.32291 -1.32292 l -0.0741,5.55625 -0.0741,5.55625 0.40953,1.079478 c 0.4825,1.271853 1.60355,2.424011 2.67669,2.750973 0.42138,0.128386 2.07583,0.212025 3.67656,0.185864 l 2.91042,-0.04756 z m -29.51243,-21.57097 c 2.59715,-0.729883 5.89289,-2.24614 7.94889,-3.657016 1.94816,-1.336874 5.41117,-4.822678 6.68395,-6.727945 2.68018,-4.012054 4.23763,-8.27677 4.73585,-12.968081 l 0.28918,-2.722971 -0.28652,-2.965571 C 129.90589,19.408371 122.27382,10.220178 111.38959,7.2532385 l -2.77813,-0.7572903 -3.70417,0.024791 -3.70416,0.024791 -2.857786,0.8312885 c -5.706155,1.6598391 -10.064381,4.5937483 -13.490235,9.0814733 -2.793404,3.659244 -4.251965,6.809395 -5.245653,11.329385 l -0.609338,2.771697 -0.0056,3.042708 c -0.01157,6.320566 1.884065,11.926653 5.789706,17.122304 0.664706,0.884255 1.370879,1.670025 1.569272,1.746156 0.198393,0.07613 0.703683,-0.07254 1.122866,-0.330384 0.419183,-0.257841 2.369494,-1.4598 4.334025,-2.671019 1.964532,-1.211219 4.435079,-2.726962 5.490105,-3.368317 1.055026,-0.641355 1.918229,-1.306389 1.918229,-1.477853 0,-0.302003 -2.858075,-1.484351 -11.354301,-4.697122 -2.243042,-0.848187 -4.202471,-1.666369 -4.354285,-1.818184 l -0.276027,-0.276027 0.385535,-0.364357 c 0.212045,-0.200397 2.707255,-2.118328 5.544911,-4.26207 2.837656,-2.143741 8.135938,-6.145841 11.773956,-8.893555 3.63802,-2.747714 8.50239,-6.42487 10.80971,-8.171458 2.30732,-1.746587 4.39731,-3.175614 4.64443,-3.175614 0.38089,0 9.47248,8.266518 10.58459,9.624021 l 0.37415,0.456704 -0.37415,0.341457 c -0.20578,0.187802 -2.04102,1.39322 -4.07831,2.678708 -3.39123,2.139795 -6.00388,3.807399 -9.525,6.07963 -0.7276,0.469533 -2.38242,1.533966 -3.67737,2.365406 l -2.35446,1.511709 0.50237,0.483355 c 0.43638,0.419857 5.28485,3.734974 12.73936,8.710476 1.20054,0.801303 2.18281,1.591362 2.18281,1.755686 0,0.164324 -2.58961,1.10335 -5.75469,2.086723 -3.16508,0.983374 -6.58812,2.061391 -7.60677,2.395595 -1.01865,0.334204 -3.2213,1.032013 -4.89479,1.550688 -9.243748,2.864968 -12.010524,3.796614 -12.103509,4.07557 -0.15568,0.467039 3.181337,2.018271 6.01809,2.797544 3.351249,0.920609 3.584199,0.946997 7.408339,0.839229 l 3.30729,-0.0932 z"
         id="path67" /><path
         style="fill:#0b9ebb"
         d="m 69.955347,82.442896 c -0.07845,-0.204428 -0.104475,-0.769975 -0.05784,-1.256771 l 0.08479,-0.885083 4.191335,-0.132292 4.191334,-0.132292 0.50502,-0.624624 C 79.541539,78.581237 79.506649,77.970077 78.73656,77.07465 L 78.09811,76.332292 74.91813,76.2 71.738151,76.067708 70.992514,75.510885 c -2.411769,-1.801051 -2.324982,-5.79247 0.161969,-7.449115 l 0.907607,-0.604588 4.780935,0.07193 4.780935,0.07193 v 1.190625 1.190625 l -4.08814,0.07332 -4.08814,0.07332 -0.475922,0.430704 c -0.276229,0.249983 -0.475923,0.799499 -0.475923,1.309639 v 0.878935 l 0.698457,0.457647 0.698458,0.457646 3.084889,0.143766 3.084889,0.143765 0.710885,0.466705 c 1.109979,0.728716 1.562551,1.644629 1.697786,3.435965 l 0.124834,1.65358 -0.624923,1.162755 c -0.368478,0.685604 -1.000535,1.364198 -1.540242,1.653645 l -0.915319,0.490891 h -4.708786 -4.708786 z m 18.38508,0.01166 c -1.610691,-0.58401 -2.549527,-1.436913 -3.32389,-3.019655 l -0.741138,-1.514831 8.16e-4,-2.645973 8.17e-4,-2.645972 0.475171,-1.372522 c 0.75001,-2.166385 3.197685,-3.995969 5.003103,-3.739711 l 0.599904,0.08515 0.07898,0.939553 0.07898,0.939554 -0.993334,0.647946 c -0.546334,0.356371 -1.232897,1.060557 -1.525696,1.564858 l -0.532363,0.916912 0.0031,2.39038 0.0031,2.39038 0.43123,0.976103 c 0.259645,0.587717 0.86643,1.250834 1.524986,1.666562 l 1.093756,0.690458 -0.08135,0.979272 -0.08135,0.979272 -0.529167,0.05952 c -0.291041,0.03274 -0.959569,-0.09653 -1.485616,-0.287265 z m 3.205408,-0.704851 v -1.064882 l 0.727604,-0.274867 c 1.228281,-0.464007 2.123171,-1.535513 2.461997,-2.947897 0.40614,-1.692985 0.201175,-4.563827 -0.419172,-5.871112 l -0.483363,-1.01861 -1.143533,-0.505839 -1.143533,-0.505839 V 68.514702 67.46875 l 0.992188,0.0058 c 2.279511,0.01335 4.486486,1.821462 5.214163,4.271816 0.523355,1.762326 0.523355,5.028253 0,6.79058 -0.727677,2.450353 -2.934652,4.258466 -5.214163,4.271816 l -0.992188,0.0058 z m 13.541015,0.724954 C 104.70834,82.018582 99.483335,68.391406 99.483335,67.860306 v -0.417963 l 1.504175,0.07935 1.50417,0.07935 1.97719,5.498225 c 1.08746,3.024025 2.10039,5.457161 2.25096,5.406969 0.15058,-0.05019 1.11828,-2.40533 2.15045,-5.233642 1.03217,-2.828312 1.96876,-5.291214 2.08131,-5.473115 0.24532,-0.396476 3.08383,-0.45782 3.08383,-0.06665 0,0.375062 -5.58449,14.351302 -5.89406,14.75102 -0.33719,0.43536 -2.69145,0.42827 -3.05451,-0.0092 z m 13.97565,-0.206256 c -1.49708,-0.685271 -2.28504,-1.415912 -2.97769,-2.761107 l -0.54495,-1.058334 -0.12464,-2.548497 c -0.14735,-3.012997 0.21761,-4.825758 1.26176,-6.26716 0.8167,-1.127419 2.71897,-2.164551 3.97014,-2.164551 h 0.79663 v 1.141621 1.141621 l -0.9425,0.449445 -0.94249,0.449446 -0.54255,1.226513 -0.54254,1.226513 0.11229,2.407942 0.1123,2.407941 0.45866,0.869878 c 0.25226,0.478433 0.87564,1.06872 1.38527,1.311748 l 0.92662,0.441871 -0.0787,1.069501 -0.0787,1.069502 -0.52917,0.06555 c -0.29104,0.03605 -1.06494,-0.179697 -1.71979,-0.479443 z m 3.90261,0.395101 c -0.10914,-0.110932 -0.19844,-0.59615 -0.19844,-1.078261 v -0.876568 l 1.08062,-0.55129 1.08062,-0.551291 0.54169,-1.224591 0.5417,-1.224591 v -2.051963 -2.051963 l -0.63013,-1.270762 -0.63013,-1.270762 -0.99218,-0.465103 -0.99219,-0.465103 V 68.525001 67.46875 h 0.92892 c 1.21993,0 3.14139,0.9205 3.96525,1.899593 0.93518,1.111402 1.53441,3.426249 1.52876,5.905615 -0.008,3.461768 -0.78339,5.365219 -2.70359,6.635949 -1.05291,0.696783 -3.13777,1.143013 -3.5209,0.753593 z m 11.60312,-0.119507 c -1.07314,-0.326962 -2.19419,-1.47912 -2.67669,-2.750973 l -0.40953,-1.079478 0.0741,-5.55625 0.0741,-5.55625 h 1.32292 1.32291 l 0.13344,5.55625 c 0.0734,3.055937 0.23142,5.755403 0.35118,5.998813 0.34164,0.694337 0.91579,0.84771 3.74872,1.001399 l 2.64583,0.143538 v 1.190625 1.190625 l -2.91042,0.04756 c -1.60073,0.02616 -3.25518,-0.05748 -3.67656,-0.185864 z M 101.73229,60.689314 c -3.308771,-0.504283 -9.55456,-2.921457 -9.325378,-3.609003 0.09298,-0.278956 2.859761,-1.210602 12.103508,-4.07557 1.67349,-0.518675 3.87614,-1.216484 4.89479,-1.550688 1.01865,-0.334204 4.44169,-1.412221 7.60677,-2.395595 3.16508,-0.983373 5.75469,-1.922399 5.75469,-2.086723 0,-0.164324 -0.98227,-0.954383 -2.18281,-1.755686 -7.45451,-4.975502 -12.30298,-8.290619 -12.73936,-8.710476 l -0.50237,-0.483355 2.35446,-1.511709 c 1.29495,-0.83144 2.94977,-1.895873 3.67737,-2.365406 3.52112,-2.272231 6.13377,-3.939835 9.525,-6.07963 2.03729,-1.285488 3.87253,-2.490906 4.07831,-2.678708 l 0.37415,-0.341457 -0.37415,-0.456704 c -1.11211,-1.357503 -10.2037,-9.624021 -10.58459,-9.624021 -0.24712,0 -2.33711,1.429027 -4.64443,3.175614 -2.30732,1.746588 -7.17169,5.423744 -10.80971,8.171458 -3.638017,2.747714 -8.936299,6.749814 -11.773955,8.893555 -2.837656,2.143742 -5.332866,4.061673 -5.544911,4.26207 l -0.385535,0.364357 0.276027,0.276027 c 0.151814,0.151815 2.111243,0.969997 4.354285,1.818184 8.496226,3.212771 11.354301,4.395119 11.354301,4.697122 0,0.171464 -0.863203,0.836498 -1.918229,1.477853 -1.055026,0.641355 -3.525573,2.157098 -5.490105,3.368317 -1.964531,1.211219 -3.914842,2.413178 -4.334025,2.671019 -0.419183,0.257842 -0.924473,0.406514 -1.122866,0.330384 -0.198393,-0.07613 -0.904566,-0.861901 -1.569272,-1.746156 -3.905641,-5.195651 -5.801274,-10.801738 -5.789706,-17.122304 l 0.0056,-3.042708 0.609338,-2.771697 c 0.993688,-4.51999 2.452249,-7.670141 5.245653,-11.329385 3.425854,-4.487725 7.78408,-7.4216344 13.490235,-9.0814735 l 2.857785,-0.8312885 3.70416,-0.024791 3.70417,-0.024791 2.77813,0.7572903 c 10.88423,2.9669397 18.5163,12.1551327 19.62454,23.6258747 l 0.28652,2.965571 -0.28918,2.722971 c -0.49822,4.691311 -2.05567,8.956027 -4.73585,12.968081 -1.27278,1.905267 -4.73579,5.391071 -6.68395,6.727945 -2.056,1.410876 -5.35174,2.927133 -7.94889,3.657016 l -2.50215,0.703184 -3.30729,0.0932 c -1.81902,0.05126 -3.66448,0.03876 -4.10105,-0.02777 z"
         id="path66" /></g></g></svg>
