<?xml version="1.0" encoding="UTF-8" standalone="no"?>
<!-- Created with Inkscape (http://www.inkscape.org/) -->

<svg
   width="480"
   height="480"
   viewBox="0 0 127 127"
   version="1.1"
   id="svg1"
   xml:space="preserve"
   inkscape:version="1.4.2 (f4327f4, 2025-05-13)"
   sodipodi:docname="splash_logo_dark.svg"
   xmlns:inkscape="http://www.inkscape.org/namespaces/inkscape"
   xmlns:sodipodi="http://sodipodi.sourceforge.net/DTD/sodipodi-0.dtd"
   xmlns="http://www.w3.org/2000/svg"
   xmlns:svg="http://www.w3.org/2000/svg"><sodipodi:namedview
     id="namedview1"
     pagecolor="#ffffff"
     bordercolor="#111111"
     borderopacity="1"
     inkscape:showpageshadow="0"
     inkscape:pageopacity="0"
     inkscape:pagecheckerboard="1"
     inkscape:deskcolor="#d1d1d1"
     inkscape:document-units="mm"
     inkscape:zoom="0.7349537"
     inkscape:cx="396.62362"
     inkscape:cy="234.70866"
     inkscape:window-width="1920"
     inkscape:window-height="1027"
     inkscape:window-x="-8"
     inkscape:window-y="-8"
     inkscape:window-maximized="1"
     inkscape:current-layer="layer1" /><defs
     id="defs1" /><g
     inkscape:label="图层 1"
     inkscape:groupmode="layer"
     id="layer1"><g
       id="g65"
       transform="translate(-41.539585,1.3229166)"><path
         style="fill:#0098b5"
         d="m 69.859311,82.567394 c -0.317149,-0.592598 -0.352529,-1.602694 -0.0714,-2.038587 0.126546,-0.196212 1.593323,-0.33513 4.202796,-0.398044 l 4.008409,-0.09664 0.555653,-0.502859 c 0.733198,-0.663536 0.707943,-1.773036 -0.05671,-2.491391 l -0.612371,-0.57529 H 75.246824 72.60796 l -1.180542,-0.595312 -1.180541,-0.595313 -0.595313,-1.180541 c -0.327422,-0.649298 -0.595312,-1.665867 -0.595312,-2.259042 0,-0.593175 0.26789,-1.609744 0.595312,-2.259042 l 0.595313,-1.180541 1.180541,-0.595313 1.180542,-0.595312 h 4.388938 4.388937 l 0.3175,0.3175 c 0.338903,0.338903 0.421579,1.484661 0.156901,2.174402 l -0.160599,0.418514 h -3.952469 -3.952469 l -0.649432,0.649432 c -0.357188,0.357188 -0.649432,0.83885 -0.649432,1.07036 0,0.23151 0.292244,0.713172 0.649432,1.07036 l 0.649432,0.649432 h 2.734089 2.734089 l 1.180541,0.595312 1.180542,0.595313 0.521533,1.058333 c 0.997774,2.024756 0.562072,4.714668 -0.999987,6.173658 -0.9553,0.892267 -2.185493,1.088984 -6.854424,1.096072 l -4.157879,0.0063 z m 18.559841,0.0081 c -1.799516,-0.620896 -3.085189,-1.874609 -3.753126,-3.659829 l -0.528524,-1.412609 v -2.323302 c 0,-3.884728 0.969458,-6.056664 3.214709,-7.202105 0.567312,-0.289422 1.47507,-0.552091 2.017238,-0.583711 l 0.985761,-0.05749 0.08068,1.257792 0.08068,1.257792 -0.633311,0.240785 c -1.733254,0.658982 -2.487325,2.717143 -2.24359,6.123655 0.148123,2.070219 0.605631,2.946194 1.954371,3.74197 l 0.91968,0.542625 -0.07926,1.202217 c -0.04359,0.661219 -0.198321,1.237186 -0.343842,1.279926 -0.145521,0.04274 -0.897685,-0.140732 -1.671475,-0.407716 z m 2.980971,0.167223 c -0.26264,-0.684429 -0.0099,-2.112299 0.410295,-2.318194 0.218282,-0.106952 0.743208,-0.357084 1.166504,-0.55585 0.460185,-0.216087 0.963156,-0.786914 1.25096,-1.419725 l 0.481332,-1.058333 v -2.248958 -2.248959 l -0.512558,-1.129253 -0.512557,-1.129252 -1.216774,-0.521571 -1.216775,-0.52157 0.0815,-1.127302 0.0815,-1.127302 1.214525,0.03922 c 1.351527,0.04364 2.989128,0.776084 3.847755,1.720972 2.491815,2.742151 2.50178,9.424003 0.01803,12.086743 -0.81357,0.872198 -2.351963,1.611875 -3.751321,1.803678 l -1.186249,0.162594 z m 13.537667,-0.258873 c -0.20822,-0.327422 -0.85795,-1.845469 -1.44384,-3.373437 -0.58589,-1.527969 -1.78749,-4.658955 -2.67023,-6.957746 -0.88273,-2.298791 -1.604968,-4.358301 -1.604968,-4.576688 v -0.397067 l 1.647948,0.07877 1.64796,0.07877 0.69084,1.852084 c 0.37997,1.018646 1.26396,3.433507 1.96443,5.366358 0.71897,1.983875 1.39995,3.472156 1.56374,3.417557 0.15959,-0.0532 1.12362,-2.349106 2.14231,-5.102024 1.01868,-2.752919 1.94847,-5.154023 2.0662,-5.335787 0.25352,-0.39141 2.98465,-0.455649 3.21946,-0.07572 0.15956,0.258178 -5.50467,14.680455 -6.00484,15.289516 -0.14937,0.181901 -0.84958,0.330729 -1.55601,0.330729 h -1.28442 z m 14.71256,0.209522 c -1.71976,-0.541689 -2.94817,-1.62561 -3.72867,-3.290075 l -0.69564,-1.483509 1e-4,-2.910417 9e-5,-2.910417 0.75357,-1.534846 0.75357,-1.534847 0.96613,-0.626936 c 1.16681,-0.757162 3.01966,-1.329769 3.5921,-1.110104 l 0.41674,0.159917 -7.2e-4,1.132783 -7.1e-4,1.132783 -0.99148,0.529167 c -0.6229,0.332457 -1.18423,0.922587 -1.51001,1.5875 l -0.51854,1.058333 0.0122,2.270016 0.0122,2.270015 0.50636,1.037276 0.50635,1.037277 1.00553,0.491187 1.00554,0.491188 -0.0795,1.226224 -0.0795,1.226224 -0.39687,0.0539 c -0.21828,0.02965 -0.90625,-0.106543 -1.52882,-0.302639 z m 2.9702,0.04829 c -0.0857,-0.223234 -0.11759,-0.797028 -0.071,-1.275097 l 0.0848,-0.869218 1.04581,-0.545032 c 0.5752,-0.299768 1.28957,-0.961751 1.5875,-1.471074 l 0.54169,-0.926042 V 75.141652 72.62811 l -0.54169,-0.926042 c -0.29793,-0.509323 -1.0123,-1.172151 -1.5875,-1.472952 l -1.04581,-0.546911 v -1.172881 -1.172881 l 1.07643,0.01929 c 0.59204,0.01061 1.64734,0.295656 2.34512,0.633441 l 1.26867,0.614156 0.7474,1.178528 c 1.81826,2.867092 1.76559,8.074964 -0.11033,10.909672 -0.73718,1.113943 -2.4886,2.094294 -4.13635,2.315305 l -1.04902,0.140703 z m 12.58154,0.09592 c -1.25372,-0.256708 -1.93445,-0.656108 -2.73028,-1.601898 -1.01518,-1.206464 -1.25841,-3.011573 -1.17826,-8.744209 l 0.0721,-5.155026 h 1.45521 1.4552 l 0.14555,5.55625 0.14554,5.55625 0.32512,0.592189 c 0.3933,0.716404 0.87543,0.849653 3.91049,1.080762 l 2.35247,0.179133 v 1.322916 1.322917 l -2.51354,0.04016 c -1.38245,0.02209 -2.93026,-0.04516 -3.43958,-0.149449 z M 99.615627,60.462796 c -2.982365,-0.656219 -7.805209,-2.748414 -7.805209,-3.385973 0,-0.202121 4.817636,-1.839555 12.501562,-4.249072 17.69288,-5.548114 17.74878,-5.566607 17.85692,-5.907825 0.0537,-0.16951 -2.02222,-1.730348 -4.61321,-3.468529 -8.66534,-5.813195 -10.26715,-6.956855 -10.26715,-7.330564 0,-0.204286 3.57188,-2.652883 7.9375,-5.441325 4.36563,-2.788442 8.80047,-5.623073 9.85522,-6.29918 1.05474,-0.676108 1.91794,-1.314405 1.91823,-1.418439 5.5e-4,-0.204664 -9.86717,-9.475033 -10.40737,-9.777345 -0.42303,-0.236739 -32.721621,24.11809 -32.643595,24.61498 0.03118,0.198541 0.949654,0.708193 2.04106,1.132562 1.091406,0.424368 2.877344,1.116779 3.96875,1.53869 1.091406,0.421911 3.115469,1.204901 4.497917,1.739978 1.382448,0.535076 3.13862,1.206825 3.902604,1.492775 0.763984,0.285949 1.387908,0.660181 1.386498,0.831627 -0.0023,0.275131 -11.901802,7.828417 -12.991581,8.246464 l -0.426436,0.163584 -1.049451,-1.271039 C 82.884226,48.77509 81.385874,46.066349 80.144574,42.394097 79.075521,39.23142 78.751648,36.537568 78.916502,32.179479 l 0.141352,-3.736771 0.696731,-2.38125 c 0.825634,-2.821809 2.344551,-6.11198 3.834501,-8.306029 3.387924,-4.98894 8.867319,-8.9838733 14.571332,-10.6237111 l 1.984372,-0.5704848 3.65036,-0.1399264 c 4.24667,-0.1627842 6.76289,0.1637978 9.80864,1.2730691 8.59889,3.1317452 14.79553,10.2118042 17.12303,19.5641652 l 0.62393,2.507084 v 3.836458 3.836459 l -0.62393,2.507083 c -1.37781,5.536307 -3.9056,9.961682 -7.87052,13.778839 -3.70083,3.56291 -7.74874,5.765179 -12.33981,6.713491 -2.47438,0.511096 -8.62722,0.525117 -10.900863,0.02484 z"
         id="path66" /><path
         style="fill:#000102"
         d="M 41.539585,62.177083 V -1.3229166 h 63.500005 63.5 V 62.177083 125.67708 h -63.5 -63.500005 z m 37.927136,20.653284 c 1.142889,-0.265212 2.137787,-1.083478 2.753613,-2.264742 0.595337,-1.141962 0.558643,-3.476989 -0.07484,-4.7625 L 81.62396,74.744792 80.443418,74.149479 79.262877,73.554167 h -2.734089 -2.734089 l -0.649432,-0.649432 c -0.819021,-0.819021 -0.819021,-1.321699 0,-2.14072 l 0.649432,-0.649432 h 3.952469 3.952469 l 0.160599,-0.418514 c 0.264678,-0.689741 0.182002,-1.835499 -0.156901,-2.174402 l -0.3175,-0.3175 H 76.996898 72.60796 l -1.180542,0.595312 -1.180541,0.595313 -0.595313,1.180541 c -0.327422,0.649298 -0.595312,1.665867 -0.595312,2.259042 0,0.593175 0.26789,1.609744 0.595312,2.259042 l 0.595313,1.180541 1.180541,0.595313 1.180542,0.595312 h 2.638864 2.638864 l 0.612365,0.575288 c 0.764655,0.718355 0.78991,1.827855 0.05671,2.491391 l -0.555653,0.502859 -4.008409,0.09664 c -2.609473,0.06291 -4.07625,0.201832 -4.202796,0.398044 -0.281125,0.435893 -0.245745,1.445989 0.0714,2.038587 l 0.273892,0.511773 4.157879,-0.0063 c 2.286833,-0.0035 4.61587,-0.112591 5.175639,-0.242488 z m 10.967748,-1.127073 0.07926,-1.202217 -0.91968,-0.542625 c -1.34874,-0.795776 -1.806248,-1.671751 -1.954371,-3.74197 -0.243735,-3.406512 0.510336,-5.464673 2.24359,-6.123655 l 0.633311,-0.240785 -0.08068,-1.257792 -0.08068,-1.257792 -0.985761,0.05749 c -0.542168,0.03162 -1.449926,0.294289 -2.017238,0.583711 -2.245251,1.145441 -3.214709,3.317377 -3.214709,7.202105 v 2.323302 l 0.528524,1.412609 c 0.290689,0.776935 0.93751,1.809012 1.43738,2.293506 0.845747,0.81973 3.386885,1.950362 3.987221,1.774039 0.145521,-0.04274 0.30025,-0.618707 0.343842,-1.279926 z m 4.48565,0.612817 c 0.545238,-0.2796 1.253416,-0.789324 1.57373,-1.132721 2.483754,-2.66274 2.473789,-9.344592 -0.01803,-12.086743 -0.858627,-0.944888 -2.496228,-1.677332 -3.847755,-1.720972 l -1.214525,-0.03922 -0.0815,1.127302 -0.0815,1.127302 1.216775,0.52157 1.216774,0.521571 0.512557,1.129252 0.512558,1.129253 v 2.248959 2.248958 l -0.481332,1.058333 c -0.287804,0.632811 -0.790775,1.203638 -1.25096,1.419725 -0.423296,0.198766 -0.948222,0.448898 -1.166504,0.55585 -0.420217,0.205895 -0.672935,1.633765 -0.410295,2.318194 l 0.156156,0.406935 1.186249,-0.162594 c 0.652438,-0.08943 1.632353,-0.391357 2.177591,-0.670957 z m 13.236681,0.432327 c 0.50017,-0.609061 6.1644,-15.031338 6.00484,-15.289516 -0.23481,-0.379925 -2.96594,-0.315686 -3.21946,0.07572 -0.11773,0.181764 -1.04752,2.582868 -2.0662,5.335787 -1.01869,2.752918 -1.98272,5.048829 -2.14231,5.102024 -0.16379,0.0546 -0.84477,-1.433682 -1.56374,-3.417557 -0.70047,-1.932851 -1.58446,-4.347712 -1.96443,-5.366358 l -0.69084,-1.852084 -1.64796,-0.07877 -1.647948,-0.07877 v 0.397067 c 0,0.218387 0.722238,2.277897 1.604968,4.576688 0.88274,2.298791 2.08434,5.429777 2.67023,6.957746 0.58589,1.527968 1.23562,3.046015 1.44384,3.373437 l 0.37858,0.595313 h 1.28442 c 0.70643,0 1.40664,-0.148828 1.55601,-0.330729 z m 13.49874,-1.032547 0.0795,-1.226224 -1.00554,-0.491188 -1.00553,-0.491187 -0.50635,-1.037277 -0.50636,-1.037276 -0.0122,-2.270015 -0.0122,-2.270016 0.51854,-1.058333 c 0.32578,-0.664913 0.88711,-1.255043 1.51001,-1.5875 l 0.99148,-0.529167 7.1e-4,-1.132783 7.2e-4,-1.132783 -0.41674,-0.159917 c -0.57244,-0.219665 -2.42529,0.352942 -3.5921,1.110104 l -0.96613,0.626936 -0.75357,1.534847 -0.75357,1.534846 -9e-5,2.910417 -10e-5,2.910417 0.69564,1.483509 c 0.40534,0.864421 1.09232,1.786067 1.64619,2.208522 0.97251,0.74177 2.90044,1.480734 3.6113,1.384192 l 0.39687,-0.0539 z m 4.43138,0.563252 c 2.0855,-1.009571 3.29433,-3.542191 3.29433,-6.90192 0,-2.421431 -0.41138,-4.179564 -1.30925,-5.595353 l -0.7474,-1.178528 -1.26867,-0.614156 c -0.69778,-0.337785 -1.75308,-0.622834 -2.34512,-0.633441 l -1.07643,-0.01929 v 1.172881 1.172881 l 1.04581,0.546911 c 0.5752,0.300801 1.28957,0.963629 1.5875,1.472952 l 0.54169,0.926042 v 2.513542 2.513541 l -0.54169,0.926042 c -0.29793,0.509323 -1.0123,1.171306 -1.5875,1.471074 l -1.04581,0.545032 -0.0848,0.869218 c -0.0466,0.478069 -0.0147,1.051863 0.071,1.275097 l 0.15575,0.405879 1.04902,-0.140703 c 0.57696,-0.07739 1.59468,-0.404854 2.2616,-0.727704 z m 15.06829,-0.655185 v -1.322916 l -2.35247,-0.179133 c -3.03506,-0.231109 -3.51719,-0.364358 -3.91049,-1.080762 l -0.32512,-0.592189 -0.14554,-5.55625 -0.14555,-5.55625 h -1.4552 -1.45521 l -0.0721,5.155026 c -0.0802,5.732636 0.16308,7.537745 1.17826,8.744209 1.25009,1.48565 2.39843,1.811613 6.16986,1.751347 l 2.51354,-0.04016 z M 110.51649,60.437955 c 4.59107,-0.948312 8.63898,-3.150581 12.33981,-6.713491 3.96492,-3.817157 6.49271,-8.242532 7.87052,-13.778839 l 0.62393,-2.507083 v -3.836459 -3.836458 l -0.62393,-2.507084 c -2.3275,-9.352361 -8.52414,-16.43242 -17.12303,-19.5641652 -3.04575,-1.1092713 -5.56197,-1.4358533 -9.80864,-1.2730691 l -3.65036,0.1399264 -1.984372,0.5704848 C 92.456405,8.7715557 86.97701,12.766489 83.589086,17.755429 c -1.48995,2.194049 -3.008867,5.48422 -3.834501,8.306029 l -0.696731,2.38125 -0.141352,3.736771 c -0.164854,4.358089 0.159019,7.051941 1.228072,10.214618 1.2413,3.672252 2.739652,6.380993 5.133312,9.280068 l 1.049451,1.271039 0.426436,-0.163584 c 1.089779,-0.418047 12.989318,-7.971333 12.991581,-8.246464 0.0014,-0.171446 -0.622514,-0.545678 -1.386498,-0.831627 -0.763984,-0.28595 -2.520156,-0.957699 -3.902604,-1.492775 -1.382448,-0.535077 -3.406511,-1.318067 -4.497917,-1.739978 -1.091406,-0.421911 -2.877344,-1.114322 -3.96875,-1.53869 -1.091406,-0.424369 -2.009883,-0.934021 -2.04106,-1.132562 -0.07803,-0.49689 32.220565,-24.851719 32.643595,-24.61498 0.5402,0.302312 10.40792,9.572681 10.40737,9.777345 -2.9e-4,0.104034 -0.86349,0.742331 -1.91823,1.418439 -1.05475,0.676107 -5.48959,3.510738 -9.85522,6.29918 -4.36562,2.788442 -7.9375,5.237039 -7.9375,5.441325 0,0.373709 1.60181,1.517369 10.26715,7.330564 2.59099,1.738181 4.66693,3.299019 4.61321,3.468529 -0.10814,0.341218 -0.16404,0.359711 -17.85692,5.907825 -7.683926,2.409517 -12.501562,4.046951 -12.501562,4.249072 0,0.637559 4.822844,2.729754 7.805209,3.385973 2.273643,0.500276 8.426483,0.486255 10.900863,-0.02484 z"
         id="path65" /></g></g></svg>
