<?xml version="1.0" encoding="utf-8"?><svg fill="none" height="48" viewBox="0 0 48 48" width="48" xmlns="http://www.w3.org/2000/svg">
<rect fill="#FEFFFE" height="48" transform="matrix(1 0 0 -1 0 48)" width="48"/>
<rect fill="#D9D9D9" height="8" transform="matrix(0 1 1 0 0 8)" width="8"/>
<rect fill="#D9D9D9" height="8" transform="matrix(0 1 1 0 0 24)" width="8"/>
<rect fill="#D9D9D9" height="8" transform="matrix(0 1 1 0 0 40)" width="8"/>
<rect fill="#D9D9D9" height="8" transform="matrix(0 1 1 0 8 0)" width="8"/>
<rect fill="#D9D9D9" height="8" transform="matrix(0 1 1 0 8 16)" width="8"/>
<rect fill="#D9D9D9" height="8" transform="matrix(0 1 1 0 8 32)" width="8"/>
<rect fill="#D9D9D9" height="8" transform="matrix(0 1 1 0 16 8)" width="8"/>
<rect fill="#D9D9D9" height="8" transform="matrix(0 1 1 0 16 24)" width="8"/>
<rect fill="#D9D9D9" height="8" transform="matrix(0 1 1 0 16 40)" width="8"/>
<rect fill="#D9D9D9" height="8" transform="matrix(0 1 1 0 24 0)" width="8"/>
<rect fill="#D9D9D9" height="8" transform="matrix(0 1 1 0 24 16)" width="8"/>
<rect fill="#D9D9D9" height="8" transform="matrix(0 1 1 0 24 32)" width="8"/>
<rect fill="#D9D9D9" height="8" transform="matrix(0 1 1 0 32 8)" width="8"/>
<rect fill="#D9D9D9" height="8" transform="matrix(0 1 1 0 32 24)" width="8"/>
<rect fill="#D9D9D9" height="8" transform="matrix(0 1 1 0 32 40)" width="8"/>
<rect fill="#D9D9D9" height="8" transform="matrix(0 1 1 0 40 0)" width="8"/>
<rect fill="#D9D9D9" height="8" transform="matrix(0 1 1 0 40 16)" width="8"/>
<rect fill="#D9D9D9" height="8" transform="matrix(0 1 1 0 40 32)" width="8"/>
</svg>